if (_typeface_js && _typeface_js.loadFace) _typeface_js.loadFace({"glyphs":{"ợ":{"x_min":54,"x_max":746,"ha":746,"o":"m 539 308 q 521 410 539 362 q 475 495 503 458 q 412 554 448 532 q 342 576 377 576 q 256 556 291 576 q 199 502 220 536 q 168 421 178 468 q 159 320 159 375 q 178 219 159 267 q 225 134 197 170 q 289 76 254 97 q 355 55 323 55 q 437 72 403 55 q 494 124 472 90 q 528 203 517 157 q 539 308 539 250 m 746 707 q 738 670 746 690 q 713 626 731 649 q 665 577 695 602 q 590 527 635 551 q 630 436 616 486 q 644 329 644 386 q 632 240 644 283 q 600 158 620 197 q 551 86 580 119 q 489 30 523 53 q 416 -6 454 6 q 336 -20 377 -20 q 219 4 271 -20 q 130 71 167 28 q 74 173 94 114 q 54 301 54 232 q 65 389 54 346 q 96 471 76 432 q 144 543 116 510 q 206 600 172 576 q 280 637 241 623 q 362 651 320 651 q 474 628 424 651 q 561 564 525 605 q 613 611 597 588 q 629 652 629 634 q 618 689 629 671 q 589 722 608 707 l 710 777 q 736 744 726 762 q 746 707 746 726 m 431 -189 q 425 -225 431 -208 q 408 -254 418 -242 q 383 -274 397 -267 q 352 -282 369 -282 q 308 -265 321 -282 q 295 -217 295 -248 q 301 -181 295 -198 q 318 -151 307 -164 q 343 -132 329 -139 q 373 -125 357 -125 q 431 -189 431 -125 "},"Ẩ":{"x_min":0,"x_max":812.515625,"ha":827,"o":"m 514 363 l 394 711 l 278 363 l 514 363 m 258 302 l 183 75 q 201 44 176 54 q 282 29 226 35 l 282 0 l 0 0 l 0 29 q 73 46 46 37 q 107 75 100 54 l 359 838 q 398 869 375 855 q 438 893 421 883 l 723 75 q 733 58 727 65 q 749 45 739 50 q 775 35 759 40 q 812 29 790 31 l 812 0 l 526 0 l 526 29 q 599 42 579 32 q 612 75 619 52 l 535 302 l 258 302 m 620 957 q 607 938 612 944 q 591 927 602 932 l 405 1068 l 221 927 q 212 932 216 929 q 205 938 208 935 q 199 946 202 941 q 191 957 196 951 l 370 1167 l 442 1167 l 620 957 m 520 1392 q 508 1359 520 1374 q 478 1331 495 1344 q 445 1306 461 1318 q 422 1281 429 1294 q 421 1255 414 1269 q 456 1225 427 1242 q 435 1217 446 1218 q 414 1214 424 1215 q 369 1241 384 1229 q 351 1265 354 1254 q 355 1285 348 1275 q 373 1304 361 1294 q 398 1321 384 1313 q 425 1340 413 1330 q 446 1360 437 1349 q 454 1382 454 1370 q 441 1421 454 1408 q 409 1434 428 1434 q 390 1430 399 1434 q 376 1420 382 1426 q 366 1407 370 1414 q 363 1392 363 1399 q 364 1385 363 1388 q 368 1378 366 1381 q 354 1373 363 1376 q 336 1369 346 1371 q 317 1365 326 1367 q 301 1363 307 1363 l 293 1370 l 293 1379 q 306 1411 293 1395 q 339 1439 319 1426 q 383 1459 359 1451 q 431 1467 408 1467 q 497 1446 474 1467 q 520 1392 520 1426 "},"ǻ":{"x_min":54,"x_max":628.765625,"ha":638,"o":"m 238 68 q 325 88 279 68 q 423 154 371 109 l 423 329 q 328 311 365 320 q 267 293 291 302 q 229 274 243 284 q 204 252 215 264 q 175 210 186 234 q 165 155 165 187 q 173 111 165 128 q 192 84 181 94 q 217 71 204 74 q 238 68 229 68 m 628 55 q 533 -2 571 15 q 476 -20 495 -20 q 439 11 454 -20 q 423 97 424 42 q 361 44 392 66 q 302 7 331 22 q 246 -13 272 -6 q 198 -20 220 -20 q 148 -11 174 -20 q 101 13 122 -3 q 67 59 81 31 q 54 126 54 87 q 72 212 54 177 q 115 272 90 246 q 152 302 131 288 q 207 330 172 317 q 293 356 241 344 q 423 380 344 368 l 423 475 q 417 518 423 498 q 399 553 412 538 q 364 575 386 568 q 309 583 342 583 q 266 575 287 582 q 229 556 245 568 q 205 527 214 544 q 198 490 196 511 q 184 476 199 484 q 150 462 170 469 q 110 453 130 456 q 83 452 91 450 l 73 478 q 121 543 89 512 q 194 598 153 574 q 280 636 235 622 q 369 651 326 651 q 484 612 444 651 q 525 503 525 573 l 525 120 q 532 80 525 92 q 552 68 539 68 q 576 71 561 68 q 618 86 591 74 l 628 55 m 390 843 q 386 874 390 859 q 375 900 382 889 q 356 918 367 911 q 332 925 346 925 q 305 919 318 925 q 282 903 292 913 q 266 877 273 892 q 260 844 260 862 q 264 814 260 828 q 276 788 268 799 q 294 770 283 777 q 319 764 305 764 q 345 769 332 764 q 368 784 358 774 q 384 808 378 794 q 390 843 390 823 m 451 871 q 438 807 451 836 q 404 757 425 778 q 356 723 382 735 q 304 712 330 712 q 262 720 281 712 q 229 742 243 728 q 207 775 215 756 q 199 816 199 794 q 213 880 199 851 q 247 931 226 910 q 294 965 268 953 q 346 977 320 977 q 387 968 368 977 q 421 945 407 960 q 443 911 435 930 q 451 871 451 892 m 296 1008 q 274 1015 284 1010 q 257 1027 265 1021 l 416 1308 q 437 1306 424 1307 q 465 1302 451 1304 q 493 1297 480 1300 q 514 1292 507 1294 l 530 1266 l 296 1008 "},"ʉ":{"x_min":27.515625,"x_max":725.4375,"ha":736,"o":"m 320 61 q 365 67 342 61 q 412 87 388 73 q 462 123 436 101 q 519 177 489 145 l 519 281 l 217 281 l 217 226 q 224 146 217 178 q 244 96 231 115 q 277 69 257 77 q 320 61 296 61 m 692 281 l 621 281 l 621 172 q 624 103 621 130 q 636 70 627 77 q 664 68 644 65 q 718 86 684 71 l 725 55 q 677 25 700 39 q 634 1 654 11 q 599 -14 614 -8 q 576 -20 584 -20 q 538 11 553 -20 q 519 112 523 42 q 441 44 476 70 q 377 4 406 18 q 323 -14 347 -9 q 276 -20 298 -20 q 215 -11 244 -20 q 163 20 186 -2 q 128 84 141 44 q 115 189 115 125 l 115 281 l 43 281 l 27 295 q 34 318 30 306 q 43 342 37 331 l 115 342 l 115 481 q 112 532 115 514 q 102 559 110 550 q 76 572 93 568 q 27 579 58 575 l 27 606 q 73 612 51 608 q 114 622 94 617 q 155 635 134 627 q 197 651 175 642 l 217 624 l 217 342 l 519 342 l 519 481 q 515 530 519 512 q 502 559 512 549 q 473 573 492 569 q 424 579 455 577 l 424 606 q 517 625 472 612 q 600 651 562 638 l 621 624 l 621 342 l 692 342 l 707 325 l 692 281 "},"Ổ":{"x_min":47,"x_max":772,"ha":834,"o":"m 667 426 q 658 519 667 473 q 634 606 650 565 q 596 682 618 647 q 544 742 573 716 q 482 782 516 767 q 409 797 448 797 q 301 771 349 797 q 220 698 253 746 q 169 584 187 651 q 152 434 152 517 q 172 290 152 358 q 228 171 193 223 q 310 90 263 120 q 409 61 357 61 q 513 84 465 61 q 594 153 560 107 q 647 268 628 200 q 667 426 667 337 m 772 439 q 741 263 772 346 q 658 117 710 180 q 536 17 605 54 q 389 -20 467 -20 q 244 15 308 -20 q 136 112 180 51 q 70 251 93 172 q 47 415 47 329 q 76 590 47 507 q 158 737 106 674 q 279 837 209 800 q 429 875 349 875 q 577 838 513 875 q 684 740 640 801 q 749 600 727 679 q 772 439 772 521 m 631 957 q 618 938 623 944 q 602 927 613 932 l 416 1068 l 232 927 q 223 932 227 929 q 216 938 219 935 q 210 946 213 941 q 202 957 206 951 l 381 1167 l 453 1167 l 631 957 m 531 1392 q 518 1359 531 1374 q 489 1331 506 1344 q 456 1306 472 1318 q 433 1281 440 1294 q 432 1255 425 1269 q 467 1225 438 1242 q 446 1217 457 1218 q 425 1214 435 1215 q 380 1241 394 1229 q 362 1265 365 1254 q 366 1285 359 1275 q 384 1304 372 1294 q 409 1321 395 1313 q 436 1340 424 1330 q 456 1360 448 1349 q 465 1382 465 1370 q 452 1421 465 1408 q 420 1434 439 1434 q 401 1430 409 1434 q 386 1420 393 1426 q 377 1407 380 1414 q 374 1392 374 1399 q 375 1385 374 1388 q 379 1378 377 1381 q 365 1373 374 1376 q 347 1369 357 1371 q 328 1365 337 1367 q 311 1363 318 1363 l 304 1370 l 304 1379 q 317 1411 304 1395 q 350 1439 330 1426 q 394 1459 370 1451 q 442 1467 418 1467 q 508 1446 485 1467 q 531 1392 531 1426 "},"Ừ":{"x_min":33.65625,"x_max":950.125,"ha":950,"o":"m 950 944 q 941 904 950 927 q 912 856 933 881 q 855 802 891 830 q 767 749 820 775 l 767 355 q 745 196 767 266 q 682 79 723 127 q 583 5 642 30 q 451 -20 525 -20 q 323 0 381 -20 q 221 58 264 18 q 155 158 179 98 q 132 301 132 218 l 132 783 q 107 804 132 791 q 33 825 82 816 l 33 855 l 339 855 l 339 825 q 267 804 293 816 q 241 783 241 793 l 241 335 q 256 218 241 270 q 301 131 271 167 q 376 76 332 95 q 478 58 420 58 q 564 81 526 58 q 627 142 601 104 q 665 229 652 180 q 679 327 679 277 l 679 783 q 654 804 679 791 q 580 825 629 816 l 580 855 l 821 855 q 833 889 833 873 q 823 926 833 909 q 794 959 813 944 l 914 1014 q 940 981 930 999 q 950 944 950 963 m 579 957 q 564 938 569 944 q 548 927 559 931 l 230 1092 l 236 1122 q 251 1134 240 1128 q 274 1148 261 1141 q 297 1162 286 1156 q 316 1173 309 1168 l 579 957 "},"̂":{"x_min":-563.609375,"x_max":-134.28125,"ha":0,"o":"m -134 740 q -147 721 -142 727 q -163 710 -151 715 l -349 891 l -533 710 q -542 715 -538 712 q -549 721 -545 718 q -555 729 -552 724 q -563 740 -558 734 l -384 998 l -311 998 l -134 740 "},"Á":{"x_min":0,"x_max":812.515625,"ha":827,"o":"m 514 363 l 394 711 l 278 363 l 514 363 m 258 302 l 183 75 q 201 44 176 54 q 282 29 226 35 l 282 0 l 0 0 l 0 29 q 73 46 46 37 q 107 75 100 54 l 359 838 q 398 869 375 855 q 438 893 421 883 l 723 75 q 733 58 727 65 q 749 45 739 50 q 775 35 759 40 q 812 29 790 31 l 812 0 l 526 0 l 526 29 q 599 42 579 32 q 612 75 619 52 l 535 302 l 258 302 m 316 927 q 300 938 305 931 q 286 957 295 944 l 548 1173 q 567 1162 555 1168 q 590 1148 578 1156 q 613 1134 602 1141 q 628 1122 623 1128 l 634 1092 l 316 927 "},"ṑ":{"x_min":54,"x_max":645,"ha":699,"o":"m 540 308 q 522 410 540 362 q 476 495 504 458 q 413 554 448 532 q 343 576 378 576 q 256 556 291 576 q 199 502 220 536 q 168 421 178 468 q 159 320 159 375 q 178 219 159 267 q 226 134 197 170 q 289 76 254 97 q 355 55 324 55 q 438 72 403 55 q 495 124 473 90 q 529 203 518 157 q 540 308 540 250 m 645 329 q 633 240 645 283 q 601 158 621 196 q 552 86 581 119 q 489 30 524 53 q 416 -6 455 6 q 336 -20 378 -20 q 220 4 272 -20 q 131 71 168 28 q 74 173 94 114 q 54 301 54 232 q 65 389 54 346 q 96 471 76 432 q 144 543 116 510 q 207 600 172 576 q 281 637 241 623 q 363 651 320 651 q 478 626 426 651 q 567 559 530 602 q 624 457 604 516 q 645 329 645 398 m 598 868 q 594 851 597 861 q 586 831 590 841 q 578 812 582 822 q 572 797 575 803 l 155 797 l 140 813 q 145 830 141 821 q 152 850 148 840 q 160 869 156 859 q 168 885 164 878 l 583 885 l 598 868 m 440 975 q 422 962 431 967 q 402 954 413 957 l 163 1210 l 178 1237 q 198 1242 185 1239 q 226 1247 211 1244 q 255 1251 240 1250 q 277 1254 269 1253 l 440 975 "},"Ȯ":{"x_min":47,"x_max":772,"ha":834,"o":"m 667 426 q 658 519 667 473 q 634 606 650 565 q 596 682 618 647 q 544 742 573 716 q 482 782 516 767 q 409 797 448 797 q 301 771 349 797 q 220 698 253 746 q 169 584 187 651 q 152 434 152 517 q 172 290 152 358 q 228 171 193 223 q 310 90 263 120 q 409 61 357 61 q 513 84 465 61 q 594 153 560 107 q 647 268 628 200 q 667 426 667 337 m 772 439 q 741 263 772 346 q 658 117 710 180 q 536 17 605 54 q 389 -20 467 -20 q 244 15 308 -20 q 136 112 180 51 q 70 251 93 172 q 47 415 47 329 q 76 590 47 507 q 158 737 106 674 q 279 837 209 800 q 429 875 349 875 q 577 838 513 875 q 684 740 640 801 q 749 600 727 679 q 772 439 772 521 m 485 1045 q 479 1009 485 1026 q 462 980 473 992 q 437 960 452 967 q 406 953 423 953 q 362 969 375 953 q 349 1018 349 986 q 355 1053 349 1036 q 372 1083 361 1070 q 397 1102 383 1095 q 427 1110 411 1110 q 485 1045 485 1110 "},"ĥ":{"x_min":37.046875,"x_max":745.953125,"ha":766,"o":"m 454 0 l 454 29 q 525 51 502 42 q 549 70 549 61 l 549 429 q 543 496 549 470 q 528 537 538 522 q 500 557 517 552 q 462 563 484 563 q 411 550 438 563 q 353 514 383 538 q 293 455 324 491 q 234 372 263 419 l 234 70 q 259 49 234 60 q 328 29 284 38 l 328 0 l 37 0 l 37 29 q 106 49 81 40 q 132 70 132 58 l 132 880 q 129 924 132 908 q 117 949 127 940 q 88 961 107 958 q 37 969 69 965 l 37 996 q 88 1007 65 1002 q 132 1019 112 1013 q 170 1033 152 1025 q 208 1051 189 1040 l 234 1027 l 233 463 q 298 541 262 507 q 370 600 334 576 q 440 638 406 625 q 501 651 474 651 q 557 642 530 651 q 605 615 584 633 q 638 568 625 596 q 651 502 651 540 l 651 70 q 671 51 651 61 q 745 29 692 42 l 745 0 l 454 0 m 605 1127 q 592 1108 597 1114 q 576 1096 588 1102 l 390 1237 l 206 1096 q 197 1102 201 1099 q 190 1108 193 1104 q 184 1116 187 1111 q 176 1127 181 1121 l 355 1336 l 427 1336 l 605 1127 "},"»":{"x_min":94.953125,"x_max":619.890625,"ha":674,"o":"m 619 291 l 375 12 l 345 32 l 502 316 l 346 598 l 375 619 l 618 341 l 619 291 m 368 291 l 124 12 l 94 32 l 251 316 l 95 598 l 124 619 l 367 341 l 368 291 "},"Ḻ":{"x_min":33.65625,"x_max":640.484375,"ha":661,"o":"m 640 165 q 626 63 635 106 q 612 0 618 19 l 33 0 l 33 29 q 105 49 79 38 q 132 70 132 61 l 132 783 q 107 804 132 791 q 33 825 82 816 l 33 855 l 339 855 l 339 825 q 267 804 293 816 q 241 783 241 793 l 241 111 q 246 89 241 99 q 266 74 252 80 q 305 64 281 67 q 367 61 329 61 l 464 61 q 516 64 495 61 q 554 79 538 67 q 583 114 570 91 q 611 177 597 137 l 640 165 m 566 -155 q 561 -172 564 -162 q 554 -192 558 -182 q 546 -211 550 -201 q 539 -227 542 -220 l 122 -227 l 107 -210 q 112 -193 109 -202 q 120 -173 115 -183 q 128 -154 124 -164 q 135 -139 132 -145 l 551 -139 l 566 -155 "},"∆":{"x_min":40.015625,"x_max":741.96875,"ha":796,"o":"m 597 112 q 512 335 554 226 q 475 432 494 382 q 437 531 456 482 q 402 626 419 581 q 370 711 385 672 q 337 619 355 668 q 301 520 320 570 q 265 421 283 470 q 230 326 247 371 q 151 112 191 219 q 145 92 146 99 q 151 82 144 85 q 175 78 158 79 q 225 78 192 78 l 522 78 q 573 78 555 78 q 597 82 590 79 q 603 92 604 85 q 597 112 602 99 m 727 0 l 50 0 l 40 34 q 157 347 101 196 q 206 480 181 412 q 255 613 231 548 q 299 736 278 678 q 336 838 320 794 q 374 869 352 855 q 415 893 397 883 q 456 779 432 842 q 505 646 479 716 q 559 504 532 576 q 613 364 587 431 q 741 34 675 204 l 727 0 "},"ṟ":{"x_min":-46.125,"x_max":528.015625,"ha":550,"o":"m 522 625 q 528 602 528 621 q 522 556 527 582 q 509 503 517 530 q 493 458 501 476 l 463 458 q 452 504 459 485 q 435 534 444 523 q 413 550 425 545 q 388 556 401 556 q 353 543 373 556 q 312 504 333 530 q 270 435 291 477 q 234 336 250 393 l 234 70 q 259 49 234 60 q 348 29 284 38 l 348 0 l 37 0 l 37 29 q 106 49 81 39 q 132 70 132 59 l 132 465 q 130 502 132 487 q 127 527 129 518 q 122 542 125 537 q 116 551 119 547 q 105 559 111 556 q 90 564 100 562 q 68 567 81 566 q 37 569 56 568 l 37 596 q 123 620 81 608 q 200 651 166 632 l 224 627 l 233 473 q 272 543 250 510 q 318 599 293 575 q 369 637 342 623 q 425 651 396 651 q 472 645 446 651 q 522 625 497 640 m 412 -155 q 407 -172 411 -162 q 400 -192 404 -182 q 392 -211 396 -201 q 385 -227 388 -220 l -31 -227 l -46 -210 q -41 -193 -44 -202 q -33 -173 -37 -183 q -25 -154 -29 -164 q -18 -139 -21 -145 l 397 -139 l 412 -155 "},"ỹ":{"x_min":-31.875,"x_max":670.765625,"ha":685,"o":"m 670 601 q 637 593 650 597 q 616 583 624 588 q 603 572 608 578 q 596 555 599 565 l 369 -55 q 306 -184 341 -130 q 233 -272 271 -237 q 158 -322 196 -306 q 86 -339 120 -339 q 38 -335 60 -339 q 1 -327 16 -332 q -23 -315 -14 -322 q -31 -303 -31 -309 q -23 -286 -31 -298 q -3 -259 -15 -274 q 22 -231 8 -245 q 47 -211 36 -218 q 112 -231 80 -230 q 169 -223 144 -233 q 198 -204 181 -219 q 230 -168 214 -189 q 263 -118 247 -146 q 291 -62 279 -91 l 311 -15 l 88 555 q 65 584 82 574 q 13 601 47 594 l 13 631 l 275 631 l 275 601 q 232 595 248 598 q 206 586 215 591 q 196 574 197 581 q 198 555 194 566 l 365 123 l 522 555 q 523 573 525 565 q 511 585 520 580 q 485 594 502 590 q 444 601 469 597 l 444 631 l 670 631 l 670 601 m 590 912 q 561 857 578 884 q 523 808 544 830 q 478 773 503 787 q 427 760 454 760 q 382 771 404 760 q 341 798 361 783 q 300 825 320 813 q 261 837 280 837 q 211 814 234 837 q 164 755 189 792 l 128 768 q 157 823 140 796 q 194 873 173 851 q 239 908 215 894 q 290 922 263 922 q 339 910 316 922 q 382 883 362 898 q 421 856 402 868 q 455 845 439 845 q 506 866 481 845 q 554 928 531 888 l 590 912 "},"«":{"x_min":54.265625,"x_max":579.203125,"ha":674,"o":"m 54 291 l 54 315 q 54 332 54 324 q 55 341 54 339 l 299 619 l 327 598 l 320 586 q 303 554 314 574 q 278 508 292 534 q 248 457 263 483 q 220 405 233 430 q 195 360 206 379 q 177 328 184 340 q 171 316 170 316 l 328 32 l 299 12 l 54 291 m 305 291 l 305 315 q 305 332 305 324 q 306 341 305 339 l 550 619 l 578 598 l 571 586 q 554 554 564 574 q 529 508 543 534 q 499 457 514 483 q 471 405 484 430 q 446 360 457 379 q 428 328 435 340 q 422 316 421 316 l 579 32 l 550 12 l 305 291 "},"ử":{"x_min":27.515625,"x_max":851,"ha":851,"o":"m 851 707 q 840 662 851 688 q 803 608 830 637 q 733 549 777 579 q 621 491 688 519 l 621 172 q 624 104 621 130 q 636 70 627 77 q 664 68 644 65 q 718 86 683 71 l 725 55 q 676 25 699 39 q 634 1 653 11 q 599 -14 614 -8 q 576 -20 584 -20 q 537 11 552 -20 q 519 112 523 43 q 441 44 476 70 q 377 4 406 18 q 323 -14 347 -9 q 276 -20 298 -20 q 215 -11 244 -20 q 163 20 186 -2 q 128 84 141 44 q 115 189 115 125 l 115 482 q 112 532 115 514 q 102 559 110 550 q 76 572 93 568 q 27 579 58 575 l 27 606 q 73 613 51 609 q 114 622 94 617 q 155 635 134 627 q 197 651 175 642 l 217 624 l 217 226 q 224 147 217 179 q 244 96 231 115 q 277 69 257 77 q 320 61 296 61 q 365 67 342 61 q 412 87 388 73 q 462 123 436 101 q 519 177 489 145 l 519 482 q 515 531 519 513 q 502 559 512 549 q 473 574 492 570 q 424 579 455 578 l 424 606 q 517 625 472 612 q 600 651 562 638 l 621 625 l 620 538 q 672 568 650 553 q 707 599 693 584 q 727 627 721 614 q 734 652 734 641 q 723 689 734 671 q 694 722 713 707 l 815 777 q 841 744 831 762 q 851 707 851 726 m 483 904 q 471 871 483 886 q 441 843 458 856 q 409 817 425 829 q 385 793 393 806 q 384 767 378 780 q 419 736 391 753 q 398 728 409 730 q 377 726 388 727 q 332 753 347 740 q 315 776 318 765 q 318 797 312 787 q 336 815 325 806 q 362 833 348 824 q 388 851 376 842 q 409 871 401 861 q 417 894 417 882 q 405 933 417 920 q 372 946 392 946 q 354 942 362 946 q 339 932 345 938 q 330 918 333 926 q 326 903 326 911 q 328 896 326 900 q 332 889 330 893 q 318 885 326 887 q 299 880 309 882 q 280 877 290 878 q 264 874 271 875 l 256 882 l 256 891 q 269 922 256 907 q 302 950 282 938 q 347 971 322 963 q 395 979 371 979 q 460 958 437 979 q 483 904 483 938 "},"í":{"x_min":47.046875,"x_max":398.109375,"ha":376,"o":"m 47 0 l 47 29 q 117 49 93 38 q 142 70 142 61 l 142 454 q 140 510 142 488 q 130 543 139 531 q 102 560 121 555 q 47 569 83 566 l 47 596 q 91 606 68 600 q 137 619 114 612 q 182 634 161 626 q 220 651 203 642 l 244 651 l 244 70 q 266 50 244 62 q 338 29 289 38 l 338 0 l 47 0 m 164 710 q 142 717 151 712 q 125 729 132 722 l 284 1010 q 305 1007 292 1009 q 333 1003 318 1005 q 361 999 347 1001 q 382 994 375 996 l 398 967 l 164 710 "},"ʠ":{"x_min":54,"x_max":876.25,"ha":716,"o":"m 505 494 q 441 554 482 533 q 352 576 401 576 q 279 560 314 576 q 216 512 244 544 q 172 433 189 480 q 156 322 156 385 q 172 217 156 264 q 214 137 189 170 q 271 85 240 103 q 330 68 302 68 q 375 77 353 68 q 419 102 397 86 q 462 137 441 117 q 505 177 484 156 l 505 494 m 876 965 q 866 949 876 959 q 843 927 856 938 q 814 906 829 916 q 790 892 800 896 q 761 930 775 915 q 734 953 748 944 q 710 964 721 961 q 689 968 698 968 q 652 957 667 968 q 626 920 636 946 q 611 853 616 895 q 607 750 607 811 l 607 -254 q 628 -276 607 -265 q 701 -296 649 -287 l 701 -326 l 389 -326 l 389 -296 q 479 -276 453 -287 q 505 -254 505 -266 l 505 112 q 454 56 479 81 q 402 15 429 32 q 346 -10 375 -1 q 281 -20 316 -20 q 203 2 243 -20 q 130 65 163 24 q 75 166 96 106 q 54 301 54 226 q 72 411 54 360 q 119 500 91 461 q 178 566 146 539 q 233 606 209 593 q 309 639 271 627 q 373 651 347 651 q 436 643 405 651 q 505 608 468 635 l 505 712 q 510 811 505 770 q 528 885 516 853 q 560 941 541 916 q 606 988 579 965 q 677 1035 640 1019 q 741 1051 715 1051 q 795 1039 771 1051 q 838 1014 820 1028 q 866 985 856 999 q 876 965 876 971 "},"ǜ":{"x_min":27.515625,"x_max":725.4375,"ha":736,"o":"m 725 55 q 677 25 700 39 q 634 1 654 11 q 599 -14 614 -8 q 576 -20 584 -20 q 538 11 553 -20 q 519 112 523 43 q 441 44 476 70 q 377 4 406 18 q 323 -14 347 -9 q 276 -20 298 -20 q 215 -11 244 -20 q 163 21 186 -2 q 128 85 141 44 q 115 189 115 125 l 115 482 q 112 532 115 514 q 102 559 110 550 q 76 572 93 568 q 27 579 58 575 l 27 606 q 73 613 51 608 q 114 622 94 617 q 155 635 134 627 q 197 651 175 642 l 217 624 l 217 226 q 224 147 217 179 q 244 96 231 115 q 277 69 257 77 q 320 61 296 61 q 365 67 342 61 q 412 87 388 73 q 462 123 436 101 q 519 177 489 145 l 519 482 q 515 530 519 512 q 502 559 512 549 q 473 573 492 569 q 424 579 455 577 l 424 606 q 517 625 472 612 q 600 651 562 638 l 621 624 l 621 172 q 624 104 621 130 q 636 70 627 77 q 664 68 644 65 q 718 86 684 71 l 725 55 m 572 854 q 566 818 572 835 q 550 789 560 801 q 525 769 539 776 q 494 762 511 762 q 450 778 463 762 q 436 826 436 795 q 443 862 436 845 q 460 892 449 879 q 484 911 470 904 q 515 919 498 919 q 572 854 572 919 m 301 854 q 295 818 301 835 q 279 789 289 801 q 254 769 268 776 q 223 762 240 762 q 179 778 192 762 q 165 826 165 795 q 172 862 165 845 q 189 892 178 879 q 213 911 199 904 q 244 919 227 919 q 301 854 301 919 m 446 975 q 429 962 438 967 q 408 954 420 957 l 170 1210 l 185 1237 q 205 1242 191 1239 q 232 1247 218 1244 q 261 1251 247 1250 q 284 1254 276 1253 l 446 975 "},"ṥ":{"x_min":64.5,"x_max":474.078125,"ha":536,"o":"m 474 192 q 460 109 474 144 q 425 51 446 75 q 377 13 403 28 q 325 -7 350 0 q 276 -17 299 -15 q 241 -20 254 -20 q 163 -7 208 -20 q 72 29 117 4 q 65 51 67 31 q 64 97 63 71 q 68 150 65 123 q 77 192 72 176 l 106 185 q 120 131 107 156 q 157 88 134 106 q 209 58 179 69 q 275 48 239 48 q 319 55 299 48 q 354 77 340 63 q 377 111 369 91 q 386 154 386 130 q 371 202 386 181 q 333 240 356 223 q 279 273 309 258 q 218 304 249 288 q 163 335 189 319 q 116 371 137 351 q 83 417 96 392 q 71 474 71 442 q 87 549 71 516 q 132 604 104 582 q 196 639 160 627 q 271 651 233 651 q 317 647 292 651 q 367 636 343 643 q 414 620 392 629 q 449 598 435 611 q 450 580 453 594 q 440 549 447 566 q 426 517 434 532 q 415 497 419 502 l 389 502 q 321 570 356 551 q 254 590 287 590 q 214 582 231 590 q 184 563 196 575 q 165 537 171 551 q 159 508 159 522 q 171 469 159 486 q 205 437 184 452 q 253 408 226 421 q 308 379 280 394 q 367 347 337 364 q 420 308 396 330 q 459 258 444 286 q 474 192 474 230 m 240 710 q 218 717 227 712 q 201 729 208 722 l 360 1010 q 381 1007 368 1009 q 409 1003 394 1005 q 437 999 423 1001 q 458 994 451 996 l 474 967 l 240 710 m 337 1098 q 331 1063 337 1079 q 314 1033 325 1046 q 289 1013 304 1021 q 258 1006 275 1006 q 214 1023 228 1006 q 201 1071 201 1040 q 207 1106 201 1090 q 224 1136 213 1123 q 249 1156 235 1148 q 279 1163 263 1163 q 337 1098 337 1163 "},"µ":{"x_min":41.515625,"x_max":736.125,"ha":750,"o":"m 736 55 q 694 29 715 42 q 652 4 672 15 q 614 -13 631 -6 q 585 -21 597 -21 q 560 -9 571 -21 q 543 21 550 2 q 533 67 537 41 q 529 122 529 92 q 422 14 474 50 q 332 -21 371 -21 q 253 6 292 -21 q 185 82 214 34 l 185 78 q 192 -55 184 3 q 213 -159 199 -114 q 243 -237 226 -205 q 278 -290 261 -269 q 251 -300 268 -294 q 215 -314 234 -307 q 180 -328 196 -321 q 155 -339 163 -334 l 129 -319 l 129 495 q 127 537 129 522 q 117 560 125 552 q 91 572 108 568 q 41 579 73 575 l 41 606 q 90 615 67 611 q 131 624 112 619 q 169 635 151 629 q 205 651 187 641 l 207 647 q 215 639 211 644 q 223 630 219 635 q 231 621 228 625 l 231 248 q 239 196 231 224 q 264 145 248 169 q 303 105 280 121 q 354 89 326 89 q 392 92 373 89 q 433 106 411 95 q 478 138 454 118 q 529 194 501 159 l 529 507 q 526 533 529 518 q 520 563 524 548 q 512 591 516 578 q 503 610 508 604 q 564 628 533 618 q 622 651 595 639 l 641 624 q 635 582 639 606 q 631 514 632 557 l 631 181 q 637 92 631 118 q 657 67 643 67 q 689 72 672 67 q 729 86 706 77 l 736 55 "},"ỳ":{"x_min":-31.875,"x_max":670.765625,"ha":685,"o":"m 670 601 q 637 593 650 597 q 616 583 624 588 q 603 572 608 578 q 596 555 599 565 l 369 -55 q 306 -184 341 -130 q 233 -272 271 -237 q 158 -322 196 -306 q 86 -339 120 -339 q 38 -335 60 -339 q 1 -327 16 -332 q -23 -315 -14 -322 q -31 -303 -31 -309 q -23 -286 -31 -298 q -3 -259 -15 -274 q 22 -231 8 -245 q 47 -211 36 -218 q 112 -231 80 -230 q 169 -223 144 -233 q 198 -204 181 -219 q 230 -168 214 -189 q 263 -118 247 -146 q 291 -62 279 -91 l 311 -15 l 88 555 q 65 584 82 574 q 13 601 47 594 l 13 631 l 275 631 l 275 601 q 232 595 248 598 q 206 586 215 591 q 196 574 197 581 q 198 555 194 566 l 365 123 l 522 555 q 523 573 525 565 q 511 585 520 580 q 485 594 502 590 q 444 601 469 597 l 444 631 l 670 631 l 670 601 m 436 731 q 419 718 427 722 q 398 710 410 713 l 160 965 l 174 993 q 194 998 181 995 q 222 1003 208 1000 q 251 1007 237 1005 q 274 1010 265 1009 l 436 731 "},"Ḟ":{"x_min":33.65625,"x_max":608.59375,"ha":664,"o":"m 33 0 l 33 29 q 105 49 79 38 q 132 70 132 61 l 132 783 q 107 804 132 791 q 33 825 82 816 l 33 855 l 587 855 l 608 838 q 605 799 607 820 q 598 757 602 778 q 590 717 595 736 q 582 685 586 698 l 550 685 q 545 737 548 716 q 534 771 541 758 q 517 788 527 783 q 494 794 507 794 l 241 794 l 241 499 l 494 499 l 514 480 q 500 459 508 470 q 483 438 491 448 q 465 418 474 427 q 450 404 457 410 q 428 421 440 414 q 402 433 417 428 q 366 439 386 437 q 316 442 345 442 l 241 442 l 241 70 q 267 52 241 62 q 359 29 293 42 l 359 0 l 33 0 m 389 1045 q 382 1009 389 1026 q 366 980 376 992 q 341 960 355 967 q 310 953 327 953 q 266 969 279 953 q 253 1018 253 986 q 259 1053 253 1036 q 276 1083 265 1070 q 301 1102 287 1095 q 331 1110 314 1110 q 389 1045 389 1110 "},"M":{"x_min":40.6875,"x_max":1064.8125,"ha":1120,"o":"m 1051 825 q 1007 819 1031 825 q 959 801 983 812 l 966 70 q 991 50 966 62 q 1064 29 1015 38 l 1064 0 l 756 0 l 756 29 q 831 49 802 38 q 861 70 861 61 l 855 705 l 558 0 l 524 0 l 223 700 l 217 70 q 241 50 217 62 q 315 29 266 38 l 315 0 l 40 0 l 40 29 q 113 49 87 38 q 139 70 139 61 l 145 798 q 93 819 120 813 q 47 825 67 825 l 47 855 l 241 855 q 252 852 248 855 q 262 844 257 850 q 271 827 266 838 q 284 798 276 816 l 554 185 l 813 798 q 828 829 822 818 q 837 846 833 841 q 846 853 842 852 q 857 855 851 855 l 1051 855 l 1051 825 "},"Ḏ":{"x_min":27.5625,"x_max":761,"ha":823,"o":"m 307 818 q 241 816 273 818 l 241 104 q 248 80 241 89 q 284 62 257 68 q 364 57 311 57 q 460 79 411 57 q 551 148 510 102 q 619 265 593 195 q 646 432 646 336 q 623 593 646 522 q 558 715 601 665 q 451 791 515 765 q 307 818 388 818 m 761 458 q 743 306 761 373 q 697 188 726 240 q 629 102 668 137 q 548 43 591 66 q 462 10 506 21 q 378 0 418 0 l 33 0 l 33 29 q 105 49 79 38 q 132 70 132 61 l 132 805 q 80 799 104 802 q 33 792 56 795 l 27 834 q 96 849 57 842 q 178 863 135 857 q 266 871 222 868 q 350 875 310 875 q 521 846 445 875 q 650 765 596 818 q 732 634 703 711 q 761 458 761 556 m 602 -155 q 597 -172 600 -162 q 590 -192 594 -182 q 582 -211 585 -201 q 575 -227 578 -220 l 158 -227 l 143 -210 q 148 -193 145 -202 q 155 -173 151 -183 q 164 -154 160 -164 q 171 -139 168 -145 l 587 -139 l 602 -155 "},"ũ":{"x_min":27.515625,"x_max":725.4375,"ha":736,"o":"m 725 55 q 677 25 700 39 q 634 1 654 11 q 599 -14 614 -8 q 576 -20 584 -20 q 538 11 553 -20 q 519 112 523 43 q 441 44 476 70 q 377 4 406 18 q 323 -14 347 -9 q 276 -20 298 -20 q 215 -11 244 -20 q 163 21 186 -2 q 128 85 141 44 q 115 189 115 125 l 115 482 q 112 532 115 514 q 102 559 110 550 q 76 572 93 568 q 27 579 58 575 l 27 606 q 73 613 51 608 q 114 622 94 617 q 155 635 134 627 q 197 651 175 642 l 217 624 l 217 226 q 224 147 217 179 q 244 96 231 115 q 277 69 257 77 q 320 61 296 61 q 365 67 342 61 q 412 87 388 73 q 462 123 436 101 q 519 177 489 145 l 519 482 q 515 530 519 512 q 502 559 512 549 q 473 573 492 569 q 424 579 455 577 l 424 606 q 517 625 472 612 q 600 651 562 638 l 621 624 l 621 172 q 624 104 621 130 q 636 70 627 77 q 664 68 644 65 q 718 86 684 71 l 725 55 m 600 912 q 571 857 588 884 q 534 808 554 830 q 489 773 513 787 q 438 760 464 760 q 393 771 414 760 q 351 798 371 783 q 310 825 330 813 q 271 837 290 837 q 221 814 244 837 q 174 755 199 792 l 138 768 q 167 823 150 796 q 204 873 183 851 q 249 908 225 894 q 300 922 274 922 q 349 910 326 922 q 392 883 372 898 q 431 856 413 868 q 465 845 449 845 q 516 866 491 845 q 564 928 541 888 l 600 912 "},"ŭ":{"x_min":27.515625,"x_max":725.4375,"ha":736,"o":"m 725 55 q 677 25 700 39 q 634 1 654 11 q 599 -14 614 -8 q 576 -20 584 -20 q 538 11 553 -20 q 519 112 523 43 q 441 44 476 70 q 377 4 406 18 q 323 -14 347 -9 q 276 -20 298 -20 q 215 -11 244 -20 q 163 21 186 -2 q 128 85 141 44 q 115 189 115 125 l 115 482 q 112 532 115 514 q 102 559 110 550 q 76 572 93 568 q 27 579 58 575 l 27 606 q 73 613 51 608 q 114 622 94 617 q 155 635 134 627 q 197 651 175 642 l 217 624 l 217 226 q 224 147 217 179 q 244 96 231 115 q 277 69 257 77 q 320 61 296 61 q 365 67 342 61 q 412 87 388 73 q 462 123 436 101 q 519 177 489 145 l 519 482 q 515 530 519 512 q 502 559 512 549 q 473 573 492 569 q 424 579 455 577 l 424 606 q 517 625 472 612 q 600 651 562 638 l 621 624 l 621 172 q 624 104 621 130 q 636 70 627 77 q 664 68 644 65 q 718 86 684 71 l 725 55 m 590 922 q 544 829 569 867 q 490 768 518 792 q 432 735 462 745 q 371 725 401 725 q 306 735 337 725 q 247 768 275 745 q 194 829 219 792 q 149 922 169 867 q 165 941 157 934 q 185 953 173 947 q 224 887 202 914 q 270 845 246 861 q 320 822 295 829 q 368 815 345 815 q 418 822 392 815 q 468 845 444 829 q 515 887 493 861 q 554 953 537 914 q 573 941 565 947 q 590 922 581 934 "},"{":{"x_min":69.578125,"x_max":440.796875,"ha":467,"o":"m 440 1053 q 391 1015 414 1036 q 351 969 368 994 q 325 914 334 943 q 316 848 316 884 q 320 784 316 809 q 330 737 324 759 q 339 690 335 715 q 344 625 344 665 q 335 569 344 597 q 311 518 327 542 q 273 474 295 494 q 222 442 250 454 q 279 421 255 436 q 316 382 302 406 q 337 329 331 359 q 344 260 344 298 q 339 191 344 220 q 330 138 335 163 q 320 87 324 112 q 316 28 316 62 q 321 -37 316 -8 q 339 -89 326 -66 q 375 -132 352 -112 q 434 -172 398 -152 l 418 -214 q 320 -165 361 -190 q 253 -108 279 -140 q 215 -38 227 -77 q 203 48 203 0 q 207 114 203 88 q 217 164 211 140 q 226 216 222 188 q 231 285 231 243 q 203 369 231 340 q 125 397 176 397 l 110 397 q 103 396 106 397 q 95 395 100 396 q 81 393 91 394 l 69 429 q 190 492 149 450 q 231 585 231 534 q 228 631 231 612 q 223 667 226 651 q 217 697 220 683 q 210 726 213 711 q 205 762 207 742 q 203 810 203 782 q 218 896 203 855 q 262 970 233 936 q 331 1033 290 1004 q 423 1085 372 1061 l 440 1053 "},"¼":{"x_min":54.28125,"x_max":759.546875,"ha":814,"o":"m 644 332 l 507 153 l 644 153 l 644 332 m 759 142 q 744 124 751 132 q 729 111 737 116 l 708 111 l 708 39 q 709 34 708 36 q 715 30 710 32 q 730 25 720 27 q 755 19 739 22 l 755 0 l 569 0 l 569 19 q 608 26 593 23 q 631 31 623 29 q 641 37 639 34 q 644 42 644 39 l 644 111 l 455 111 l 442 121 l 632 381 q 665 393 648 387 q 694 405 682 399 l 708 393 l 708 153 l 749 153 l 759 142 m 66 432 l 66 455 q 114 461 95 458 q 144 469 133 465 q 158 477 154 473 q 163 484 163 481 l 163 732 q 162 753 163 746 q 156 764 161 760 q 148 768 153 766 q 131 769 142 769 q 104 766 121 768 q 62 760 87 764 l 54 782 q 92 793 69 786 q 138 807 115 800 q 183 823 162 815 q 217 838 205 831 l 231 826 l 231 484 q 234 477 231 481 q 247 469 237 473 q 274 461 256 465 q 320 455 292 458 l 320 432 l 66 432 m 214 2 q 184 -10 198 -5 q 151 -20 169 -15 l 134 0 l 651 816 q 680 828 664 821 q 711 838 696 834 l 727 819 l 214 2 "},"Ḿ":{"x_min":40.6875,"x_max":1064.8125,"ha":1120,"o":"m 1051 825 q 1007 819 1031 825 q 959 801 983 812 l 966 70 q 991 50 966 62 q 1064 29 1015 38 l 1064 0 l 756 0 l 756 29 q 831 49 802 38 q 861 70 861 61 l 855 705 l 558 0 l 524 0 l 223 700 l 217 70 q 241 50 217 62 q 315 29 266 38 l 315 0 l 40 0 l 40 29 q 113 49 87 38 q 139 70 139 61 l 145 798 q 93 819 120 813 q 47 825 67 825 l 47 855 l 241 855 q 252 852 248 855 q 262 844 257 850 q 271 827 266 838 q 284 798 276 816 l 554 185 l 813 798 q 828 829 822 818 q 837 846 833 841 q 846 853 842 852 q 857 855 851 855 l 1051 855 l 1051 825 m 463 927 q 446 938 451 931 q 432 957 441 944 l 695 1173 q 713 1162 701 1168 q 737 1148 725 1156 q 759 1134 749 1141 q 775 1122 769 1128 l 781 1092 l 463 927 "},"Ĳ":{"x_min":47.65625,"x_max":790.046875,"ha":838,"o":"m 47 0 l 47 29 q 119 49 93 38 q 146 70 146 61 l 146 783 q 121 804 146 791 q 47 825 96 816 l 47 855 l 353 855 l 353 825 q 281 804 307 816 q 255 783 255 793 l 255 70 q 279 50 255 62 q 353 29 304 38 l 353 0 l 47 0 m 790 825 q 717 804 743 816 q 691 783 691 793 l 691 139 q 680 4 691 58 q 650 -86 669 -49 q 607 -149 631 -124 q 556 -195 582 -173 q 515 -222 537 -210 q 471 -241 493 -233 q 429 -253 449 -249 q 396 -258 409 -258 q 355 -251 375 -258 q 319 -236 335 -245 q 294 -219 303 -228 q 284 -204 284 -210 q 293 -188 284 -198 q 314 -168 301 -178 q 339 -148 326 -158 q 362 -136 353 -139 q 396 -156 381 -148 q 422 -168 410 -164 q 446 -173 434 -172 q 470 -175 457 -175 q 507 -163 487 -175 q 544 -122 527 -151 q 571 -41 561 -92 q 582 89 582 10 l 582 783 q 577 792 582 787 q 557 802 571 797 q 516 813 542 808 q 450 825 491 819 l 450 855 l 790 855 l 790 825 "},"Ê":{"x_min":33.65625,"x_max":647.265625,"ha":689,"o":"m 647 165 q 633 63 641 107 q 619 0 624 19 l 33 0 l 33 29 q 105 49 79 38 q 132 70 132 61 l 132 783 q 107 804 132 791 q 33 825 82 816 l 33 855 l 580 855 l 603 838 q 599 799 601 820 q 592 757 596 778 q 583 717 588 736 q 575 685 579 698 l 544 685 q 539 737 543 716 q 527 771 534 758 q 511 788 521 783 q 489 794 501 794 l 241 794 l 241 499 l 515 499 l 533 480 q 520 459 527 470 q 503 438 512 448 q 486 418 495 427 q 470 404 478 410 q 448 421 460 414 q 421 433 437 428 q 385 439 406 437 q 336 442 365 442 l 241 442 l 241 104 q 245 86 241 94 q 265 72 250 78 q 307 64 280 67 q 379 61 334 61 l 466 61 q 520 64 498 61 q 559 79 542 67 q 589 114 576 91 q 618 177 603 137 l 647 165 m 554 957 q 541 938 546 944 q 525 927 537 932 l 339 1068 l 156 927 q 146 932 150 929 q 140 938 143 935 q 133 946 137 941 q 125 957 130 951 l 304 1167 l 377 1167 l 554 957 "},")":{"x_min":27.65625,"x_max":359,"ha":440,"o":"m 359 450 q 336 234 359 338 q 273 42 314 129 q 175 -111 233 -45 q 48 -214 118 -177 l 27 -183 q 110 -87 71 -146 q 179 51 149 -27 q 226 225 209 129 q 244 430 244 321 q 229 622 244 528 q 188 798 215 716 q 120 946 160 880 q 27 1054 79 1012 l 48 1085 q 183 986 125 1050 q 280 840 241 923 q 339 657 319 756 q 359 450 359 557 "},"Ṽ":{"x_min":13.5625,"x_max":874.90625,"ha":903,"o":"m 874 825 q 802 808 828 817 q 769 781 776 800 l 510 40 q 491 14 504 25 q 462 -2 478 4 q 432 -13 446 -9 q 408 -20 417 -17 l 109 781 q 79 809 103 798 q 13 825 56 820 l 13 855 l 308 855 l 308 825 q 234 811 254 821 q 221 782 214 802 l 461 138 l 689 781 q 672 809 696 800 q 592 825 648 819 l 592 855 l 874 855 l 874 825 m 682 1103 q 653 1047 670 1075 q 615 998 636 1020 q 570 963 594 977 q 519 950 545 950 q 474 961 495 950 q 432 988 453 973 q 392 1015 412 1003 q 352 1027 372 1027 q 303 1005 325 1027 q 255 945 280 982 l 219 958 q 248 1013 231 986 q 286 1063 265 1041 q 331 1098 307 1084 q 381 1112 355 1112 q 430 1100 407 1112 q 474 1073 453 1088 q 512 1046 494 1058 q 547 1035 531 1035 q 597 1056 573 1035 q 645 1118 622 1078 l 682 1103 "},"a":{"x_min":54,"x_max":628.765625,"ha":638,"o":"m 238 68 q 325 88 279 68 q 423 154 371 109 l 423 329 q 328 311 365 320 q 267 293 291 302 q 229 274 243 284 q 204 252 215 264 q 175 210 186 234 q 165 155 165 187 q 173 111 165 128 q 192 84 181 94 q 217 71 204 74 q 238 68 229 68 m 628 55 q 533 -2 571 15 q 476 -20 495 -20 q 439 11 454 -20 q 423 97 424 42 q 361 44 392 66 q 302 7 331 22 q 246 -13 272 -6 q 198 -20 220 -20 q 148 -11 174 -20 q 101 13 122 -3 q 67 59 81 31 q 54 126 54 87 q 72 212 54 177 q 115 272 90 246 q 152 302 131 288 q 207 330 172 317 q 293 356 241 344 q 423 380 344 368 l 423 475 q 417 518 423 498 q 399 553 412 538 q 364 575 386 568 q 309 583 342 583 q 266 575 287 582 q 229 556 245 568 q 205 527 214 544 q 198 490 196 511 q 184 476 199 484 q 150 462 170 469 q 110 453 130 456 q 83 452 91 450 l 73 478 q 121 543 89 512 q 194 598 153 574 q 280 636 235 622 q 369 651 326 651 q 484 612 444 651 q 525 503 525 573 l 525 120 q 532 80 525 92 q 552 68 539 68 q 576 71 561 68 q 618 86 591 74 l 628 55 "},"Ɲ":{"x_min":-166.421875,"x_max":867.34375,"ha":901,"o":"m 769 -20 q 716 -6 735 -16 q 689 14 697 2 l 213 673 l 213 139 q 206 4 213 58 q 185 -86 199 -49 q 151 -149 171 -124 q 105 -195 132 -173 q 64 -221 87 -209 q 20 -241 42 -232 q -21 -253 -1 -249 q -54 -258 -41 -258 q -95 -251 -74 -258 q -131 -236 -115 -245 q -156 -219 -146 -228 q -166 -204 -166 -210 q -157 -188 -166 -198 q -136 -168 -148 -178 q -110 -148 -124 -158 q -87 -136 -97 -139 q -54 -156 -68 -148 q -28 -168 -40 -164 q -4 -173 -15 -172 q 19 -175 6 -175 q 57 -163 37 -175 q 93 -122 77 -151 q 121 -41 110 -92 q 132 89 132 10 l 132 779 q 84 810 108 800 q 33 825 60 821 l 33 855 l 177 855 q 194 853 187 855 q 206 846 200 851 q 221 830 213 840 q 242 802 229 819 l 688 187 l 688 783 q 665 805 688 791 q 589 825 643 818 l 589 855 l 867 855 l 867 825 q 793 806 818 819 q 769 783 769 793 l 769 -20 "},"Z":{"x_min":40.015625,"x_max":672.125,"ha":726,"o":"m 672 198 q 669 150 670 177 q 667 97 668 124 q 665 45 666 70 q 663 0 664 19 l 59 0 l 40 30 l 522 787 l 210 787 q 187 779 200 787 q 162 755 174 772 q 139 714 149 739 q 120 653 128 688 l 82 661 l 101 865 q 135 859 120 861 q 165 855 150 856 q 195 855 179 855 l 648 855 l 665 825 l 187 68 l 541 68 q 567 74 556 68 q 589 96 579 80 q 611 139 600 112 q 634 208 621 166 l 672 198 "},"":{"x_min":54,"x_max":885,"ha":715,"o":"m 330 68 q 375 77 353 68 q 419 102 397 86 q 462 137 441 117 q 505 177 484 156 l 505 494 q 441 554 482 533 q 352 576 401 576 q 279 560 314 576 q 216 512 244 544 q 172 433 189 480 q 156 322 156 385 q 172 217 156 264 q 214 137 189 170 q 271 85 240 103 q 330 68 302 68 m 505 112 q 454 57 479 81 q 402 15 429 32 q 345 -10 375 -1 q 281 -20 316 -20 q 203 2 243 -20 q 130 65 163 24 q 75 166 96 106 q 54 301 54 226 q 73 411 54 360 q 119 500 92 461 q 178 566 146 539 q 233 606 209 593 q 309 639 271 628 q 373 651 347 651 q 410 648 391 651 q 447 639 428 646 q 486 620 466 632 q 530 587 507 608 q 551 602 540 594 q 572 619 562 610 q 591 636 582 627 q 607 651 600 644 l 628 630 q 617 589 621 611 q 610 543 613 569 q 607 486 607 516 l 607 -112 q 625 -232 607 -190 q 693 -275 644 -275 q 722 -268 708 -275 q 745 -252 735 -262 q 760 -230 755 -243 q 766 -205 766 -218 q 757 -178 766 -190 q 778 -162 763 -171 q 810 -147 793 -154 q 844 -136 827 -140 q 871 -133 861 -132 l 885 -161 q 865 -220 885 -188 q 812 -277 846 -251 q 735 -321 779 -303 q 643 -339 691 -339 q 575 -323 601 -339 q 532 -283 548 -308 q 511 -224 517 -257 q 505 -153 505 -190 l 505 112 "},"k":{"x_min":37.046875,"x_max":694.515625,"ha":695,"o":"m 37 0 l 37 29 q 106 49 81 40 q 132 70 132 58 l 132 878 q 128 926 132 909 q 114 952 124 943 q 84 963 103 960 q 37 969 66 966 l 37 996 q 129 1018 83 1006 q 208 1051 174 1031 l 234 1027 l 234 359 l 442 542 q 470 573 465 561 q 468 591 474 585 q 446 599 461 597 q 413 601 431 601 l 413 631 l 670 631 l 670 601 q 615 590 640 598 q 562 559 590 582 l 330 374 l 586 75 q 605 57 595 64 q 628 45 615 50 q 655 40 640 41 q 690 41 670 39 l 694 12 q 655 3 674 7 q 619 -1 636 0 q 589 -5 602 -4 q 569 -7 576 -7 q 523 1 541 -7 q 491 28 506 9 l 234 353 l 234 70 q 236 61 234 65 q 246 52 238 56 q 268 42 253 48 q 308 29 283 37 l 308 0 l 37 0 "},"Ù":{"x_min":33.65625,"x_max":864.34375,"ha":908,"o":"m 864 825 q 792 804 818 816 q 766 783 766 793 l 766 355 q 744 197 766 266 q 681 79 722 127 q 582 5 641 30 q 451 -20 524 -20 q 322 0 381 -20 q 221 58 264 18 q 155 158 179 98 q 132 301 132 218 l 132 783 q 107 804 132 791 q 33 825 82 816 l 33 855 l 339 855 l 339 825 q 267 804 293 816 q 241 783 241 793 l 241 335 q 256 218 241 270 q 301 131 271 167 q 375 76 331 95 q 478 58 419 58 q 563 81 526 58 q 626 142 600 104 q 664 229 651 180 q 678 327 678 277 l 678 783 q 653 804 678 791 q 579 825 628 816 l 579 855 l 864 855 l 864 825 m 579 957 q 564 938 569 944 q 548 927 559 931 l 230 1092 l 236 1122 q 251 1134 240 1128 q 274 1148 261 1141 q 297 1162 286 1156 q 316 1173 309 1168 l 579 957 "},"Ů":{"x_min":33.65625,"x_max":864.34375,"ha":908,"o":"m 864 825 q 792 804 818 816 q 766 783 766 793 l 766 355 q 744 197 766 266 q 681 79 722 127 q 582 5 641 30 q 451 -20 524 -20 q 322 0 381 -20 q 221 58 264 18 q 155 158 179 98 q 132 301 132 218 l 132 783 q 107 804 132 791 q 33 825 82 816 l 33 855 l 339 855 l 339 825 q 267 804 293 816 q 241 783 241 793 l 241 335 q 256 218 241 270 q 301 131 271 167 q 375 76 331 95 q 478 58 419 58 q 563 81 526 58 q 626 142 600 104 q 664 229 651 180 q 678 327 678 277 l 678 783 q 653 804 678 791 q 579 825 628 816 l 579 855 l 864 855 l 864 825 m 524 1060 q 520 1091 524 1076 q 508 1117 516 1106 q 490 1135 501 1128 q 466 1142 479 1142 q 439 1136 451 1142 q 416 1120 426 1130 q 400 1094 406 1109 q 394 1061 394 1079 q 398 1031 394 1045 q 410 1005 402 1016 q 428 987 417 994 q 452 981 439 981 q 479 986 466 981 q 502 1001 491 991 q 518 1026 512 1011 q 524 1060 524 1040 m 585 1088 q 572 1024 585 1053 q 537 974 559 995 q 490 940 516 952 q 438 929 464 929 q 396 937 415 929 q 362 959 376 945 q 341 992 349 973 q 333 1033 333 1011 q 346 1097 333 1068 q 380 1148 359 1127 q 427 1182 401 1170 q 480 1194 454 1194 q 521 1185 502 1194 q 554 1162 540 1177 q 577 1128 569 1147 q 585 1088 585 1109 "},"¢":{"x_min":71,"x_max":585.78125,"ha":652,"o":"m 174 417 q 185 331 174 370 q 216 263 196 292 q 263 215 236 234 q 322 186 290 195 l 322 654 q 264 631 291 648 q 217 585 238 614 q 185 514 197 556 q 174 417 174 473 m 383 -5 q 372 -14 376 -11 q 363 -19 367 -17 q 352 -23 358 -21 q 338 -28 347 -25 l 322 -11 l 322 87 q 228 110 273 89 q 148 170 183 131 q 92 266 113 209 q 71 397 71 323 q 89 509 71 456 q 141 604 108 562 q 220 675 174 646 q 322 719 267 705 l 322 822 q 335 832 331 829 q 342 836 339 835 q 350 839 345 838 q 365 844 355 841 l 383 829 l 383 730 q 399 731 391 730 q 416 731 407 731 q 462 727 438 731 q 507 716 485 723 q 546 699 528 709 q 576 677 564 690 q 574 654 577 669 q 564 623 570 639 q 551 592 558 607 q 537 568 543 576 l 513 574 q 497 598 507 585 q 470 622 486 611 q 433 643 454 634 q 383 656 411 652 l 383 177 q 417 179 401 177 q 453 189 433 180 q 497 215 472 197 q 559 264 522 233 l 585 237 q 523 169 551 196 q 471 125 495 142 q 426 100 447 108 q 383 89 404 92 l 383 -5 "},"Ɂ":{"x_min":27,"x_max":604,"ha":645,"o":"m 156 0 l 156 29 q 241 49 215 39 q 268 70 268 59 l 268 268 q 284 354 268 317 q 326 421 301 391 q 381 475 352 450 q 436 525 410 500 q 478 576 461 549 q 495 637 495 603 q 443 764 495 721 q 301 807 392 807 q 237 794 266 807 q 188 760 208 781 q 156 714 168 740 q 145 661 145 688 q 147 633 145 646 q 156 608 149 621 q 107 592 134 597 q 50 583 80 586 l 31 603 q 28 619 30 608 q 27 639 27 629 q 53 730 27 686 q 123 805 79 773 q 227 855 168 836 q 354 875 286 875 q 460 860 413 875 q 539 819 507 845 q 587 753 570 792 q 604 668 604 715 q 587 582 604 617 q 545 520 570 547 q 490 472 519 494 q 435 428 461 451 q 393 376 410 404 q 377 308 377 348 l 377 70 q 404 49 377 60 q 488 29 432 38 l 488 0 l 156 0 "},"ē":{"x_min":54,"x_max":588,"ha":642,"o":"m 336 580 q 271 566 301 580 q 219 527 242 552 q 181 468 196 503 q 160 393 166 434 l 451 393 q 471 398 466 393 q 477 417 477 403 q 471 463 477 435 q 451 517 466 490 q 408 561 436 543 q 336 580 381 580 m 588 377 q 555 352 575 363 q 513 332 535 340 l 156 332 q 170 231 156 279 q 210 147 184 183 q 273 89 236 111 q 357 68 310 68 q 398 70 378 68 q 441 82 418 73 q 492 110 464 92 q 558 160 520 129 q 574 146 567 155 q 584 132 580 137 q 504 52 538 82 q 439 6 469 22 q 379 -14 409 -9 q 315 -20 350 -20 q 216 2 263 -20 q 132 65 168 24 q 75 164 96 106 q 54 294 54 222 q 64 383 54 339 q 93 467 74 428 q 140 539 113 506 q 204 597 168 573 q 237 617 219 607 q 276 634 256 627 q 317 646 297 642 q 355 651 337 651 q 434 638 399 651 q 494 605 469 626 q 538 557 520 585 q 567 499 556 530 q 583 437 578 469 q 588 377 588 405 m 581 868 q 577 851 580 861 q 569 831 573 841 q 561 812 565 822 q 555 797 558 803 l 138 797 l 123 813 q 128 830 124 821 q 135 850 131 840 q 143 869 139 859 q 151 885 147 878 l 566 885 l 581 868 "},"Ẹ":{"x_min":33.65625,"x_max":647.265625,"ha":689,"o":"m 647 165 q 633 63 641 107 q 619 0 624 19 l 33 0 l 33 29 q 105 49 79 38 q 132 70 132 61 l 132 783 q 107 804 132 791 q 33 825 82 816 l 33 855 l 580 855 l 603 838 q 599 799 601 820 q 592 757 596 778 q 583 717 588 736 q 575 685 579 698 l 544 685 q 539 737 543 716 q 527 771 534 758 q 511 788 521 783 q 489 794 501 794 l 241 794 l 241 499 l 515 499 l 533 480 q 520 459 527 470 q 503 438 512 448 q 486 418 495 427 q 470 404 478 410 q 448 421 460 414 q 421 433 437 428 q 385 439 406 437 q 336 442 365 442 l 241 442 l 241 104 q 245 86 241 94 q 265 72 250 78 q 307 64 280 67 q 379 61 334 61 l 466 61 q 520 64 498 61 q 559 79 542 67 q 589 114 576 91 q 618 177 603 137 l 647 165 m 408 -189 q 402 -225 408 -208 q 385 -254 396 -242 q 361 -274 375 -267 q 329 -282 346 -282 q 286 -265 299 -282 q 272 -217 272 -248 q 278 -181 272 -198 q 295 -151 284 -164 q 320 -132 306 -139 q 350 -125 334 -125 q 408 -189 408 -125 "},"≠":{"x_min":41.375,"x_max":568.34375,"ha":610,"o":"m 442 519 l 551 519 l 568 501 q 558 471 564 488 q 548 444 552 455 l 395 444 l 314 316 l 551 316 l 568 298 q 558 269 564 284 q 548 241 552 253 l 267 241 l 179 101 q 161 91 173 96 q 136 82 149 86 q 109 73 122 77 q 88 67 96 69 l 71 90 l 165 241 l 58 241 l 41 259 q 50 287 44 273 q 62 316 56 302 l 212 316 l 293 444 l 58 444 l 41 461 q 50 490 44 474 q 62 519 56 506 l 339 519 l 427 658 q 472 678 446 670 q 518 692 497 686 l 537 669 l 442 519 "},"¥":{"x_min":-45.734375,"x_max":677.046875,"ha":652,"o":"m 159 0 l 159 29 q 246 55 221 42 q 271 78 271 68 l 271 296 l 86 296 l 71 313 q 78 335 74 323 q 86 358 82 347 l 271 358 l 271 393 q 221 493 247 443 q 169 588 195 542 q 117 673 142 634 q 68 742 91 713 q 54 756 62 750 q 34 768 47 763 q 4 776 22 773 q -43 780 -14 780 l -45 808 q 34 818 -5 814 q 102 823 74 823 q 155 796 133 823 q 203 729 180 764 q 248 656 226 694 q 292 576 270 618 q 338 485 314 534 l 483 742 q 477 770 493 760 q 408 787 460 780 l 408 817 l 677 817 l 677 787 q 605 769 630 778 q 571 742 580 759 l 380 392 l 380 358 l 563 358 l 580 342 l 563 296 l 380 296 l 380 78 q 385 68 380 74 q 404 55 391 62 q 439 42 417 48 q 492 29 460 35 l 492 0 l 159 0 "},"Ƚ":{"x_min":29.59375,"x_max":640.484375,"ha":661,"o":"m 640 165 q 626 63 635 106 q 612 0 618 19 l 33 0 l 33 29 q 105 49 79 38 q 132 70 132 61 l 132 364 l 44 364 l 29 380 q 36 402 32 391 q 44 425 40 414 l 132 425 l 132 783 q 107 804 132 791 q 33 825 82 816 l 33 855 l 339 855 l 339 825 q 267 804 293 816 q 241 783 241 793 l 241 425 l 403 425 l 420 409 l 403 364 l 241 364 l 241 111 q 246 89 241 98 q 266 74 252 80 q 305 64 281 67 q 367 61 329 61 l 464 61 q 516 64 495 61 q 554 79 538 67 q 583 114 570 91 q 611 177 597 137 l 640 165 "},"Ĥ":{"x_min":33.65625,"x_max":861.34375,"ha":908,"o":"m 33 0 l 33 29 q 105 49 79 38 q 132 70 132 61 l 132 783 q 107 804 132 791 q 33 825 82 816 l 33 855 l 339 855 l 339 825 q 267 804 293 816 q 241 783 241 793 l 241 478 l 654 478 l 654 783 q 629 804 654 791 q 555 825 604 816 l 555 855 l 861 855 l 861 825 q 789 804 815 816 q 763 783 763 793 l 763 70 q 787 50 763 62 q 861 29 812 38 l 861 0 l 555 0 l 555 29 q 627 49 601 38 q 654 70 654 61 l 654 417 l 241 417 l 241 70 q 265 50 241 62 q 339 29 289 38 l 339 0 l 33 0 m 661 957 q 649 938 653 944 q 632 927 644 932 l 446 1068 l 263 927 q 253 932 257 929 q 247 938 250 935 q 240 946 244 941 q 232 957 237 951 l 411 1167 l 484 1167 l 661 957 "},"U":{"x_min":33.65625,"x_max":864.34375,"ha":908,"o":"m 864 825 q 792 804 818 816 q 766 783 766 793 l 766 355 q 744 197 766 266 q 681 79 722 127 q 582 5 641 30 q 451 -20 524 -20 q 322 0 381 -20 q 221 58 264 18 q 155 158 179 98 q 132 301 132 218 l 132 783 q 107 804 132 791 q 33 825 82 816 l 33 855 l 339 855 l 339 825 q 267 804 293 816 q 241 783 241 793 l 241 335 q 256 218 241 270 q 301 131 271 167 q 375 76 331 95 q 478 58 419 58 q 563 81 526 58 q 626 142 600 104 q 664 229 651 180 q 678 327 678 277 l 678 783 q 653 804 678 791 q 579 825 628 816 l 579 855 l 864 855 l 864 825 "},"Ñ":{"x_min":33.65625,"x_max":867.34375,"ha":901,"o":"m 33 0 l 33 29 q 107 48 83 35 q 132 70 132 61 l 132 779 q 84 811 109 800 q 33 825 60 821 l 33 855 l 177 855 q 194 853 187 855 q 207 846 200 851 q 221 830 214 840 q 242 802 229 819 l 688 187 l 688 783 q 665 805 688 791 q 589 825 643 818 l 589 855 l 867 855 l 867 825 q 793 806 818 819 q 769 783 769 793 l 769 -20 q 716 -6 735 -15 q 689 14 697 3 l 213 673 l 213 70 q 235 49 213 62 q 311 29 258 36 l 311 0 l 33 0 m 682 1103 q 653 1047 670 1075 q 615 998 636 1020 q 570 963 594 977 q 519 950 545 950 q 474 961 495 950 q 432 988 453 973 q 392 1015 412 1003 q 352 1027 372 1027 q 303 1005 325 1027 q 255 945 280 982 l 219 958 q 248 1013 231 986 q 286 1063 265 1041 q 331 1098 307 1084 q 381 1112 355 1112 q 430 1100 407 1112 q 474 1073 453 1088 q 512 1046 494 1058 q 547 1035 531 1035 q 597 1056 573 1035 q 645 1118 622 1078 l 682 1103 "},"F":{"x_min":33.65625,"x_max":608.59375,"ha":664,"o":"m 33 0 l 33 29 q 105 49 79 38 q 132 70 132 61 l 132 783 q 107 804 132 791 q 33 825 82 816 l 33 855 l 587 855 l 608 838 q 605 799 607 820 q 598 757 602 778 q 590 717 595 736 q 582 685 586 698 l 550 685 q 545 737 548 716 q 534 771 541 758 q 517 788 527 783 q 494 794 507 794 l 241 794 l 241 499 l 494 499 l 514 480 q 500 459 508 470 q 483 438 491 448 q 465 418 474 427 q 450 404 457 410 q 428 421 440 414 q 402 433 417 428 q 366 439 386 437 q 316 442 345 442 l 241 442 l 241 70 q 267 52 241 62 q 359 29 293 42 l 359 0 l 33 0 "},"ả":{"x_min":54,"x_max":628.765625,"ha":638,"o":"m 238 68 q 325 88 279 68 q 423 154 371 109 l 423 329 q 328 311 365 320 q 267 293 291 302 q 229 274 243 284 q 204 252 215 264 q 175 210 186 234 q 165 155 165 187 q 173 111 165 128 q 192 84 181 94 q 217 71 204 74 q 238 68 229 68 m 628 55 q 533 -2 571 15 q 476 -20 495 -20 q 439 11 454 -20 q 423 97 424 42 q 361 44 392 66 q 302 7 331 22 q 246 -13 272 -6 q 198 -20 220 -20 q 148 -11 174 -20 q 101 13 122 -3 q 67 59 81 31 q 54 126 54 87 q 72 212 54 177 q 115 272 90 246 q 152 302 131 288 q 207 330 172 317 q 293 356 241 344 q 423 380 344 368 l 423 475 q 417 518 423 498 q 399 553 412 538 q 364 575 386 568 q 309 583 342 583 q 266 575 287 582 q 229 556 245 568 q 205 527 214 544 q 198 490 196 511 q 184 476 199 484 q 150 462 170 469 q 110 453 130 456 q 83 452 91 450 l 73 478 q 121 543 89 512 q 194 598 153 574 q 280 636 235 622 q 369 651 326 651 q 484 612 444 651 q 525 503 525 573 l 525 120 q 532 80 525 92 q 552 68 539 68 q 576 71 561 68 q 618 86 591 74 l 628 55 m 439 904 q 427 871 439 886 q 397 843 414 856 q 364 817 380 829 q 341 793 349 806 q 340 767 334 780 q 375 736 347 753 q 354 728 365 730 q 333 726 344 727 q 288 753 303 740 q 271 776 274 765 q 274 797 268 787 q 292 815 280 806 q 318 833 304 824 q 344 851 332 842 q 365 871 356 861 q 373 894 373 882 q 361 933 373 920 q 328 946 348 946 q 309 942 318 946 q 295 932 301 938 q 285 918 289 926 q 282 903 282 911 q 284 896 282 900 q 287 889 285 893 q 274 885 282 887 q 255 880 265 882 q 236 877 246 878 q 220 874 227 875 l 212 882 l 212 891 q 225 922 212 907 q 258 950 238 938 q 302 971 278 963 q 351 979 327 979 q 416 958 393 979 q 439 904 439 938 "},"ʔ":{"x_min":41,"x_max":577,"ha":604,"o":"m 135 0 l 135 29 q 251 70 251 49 l 251 336 q 267 432 251 388 q 309 513 284 475 q 363 585 333 551 q 416 652 392 619 q 458 720 441 685 q 475 793 475 755 q 461 870 475 835 q 422 932 447 906 q 365 972 398 957 q 294 987 332 987 q 241 973 267 987 q 196 939 216 960 q 164 891 176 917 q 152 838 152 864 q 154 818 152 828 q 160 799 156 808 q 114 782 138 787 q 60 773 91 776 l 42 793 q 41 804 41 799 l 41 816 q 66 906 41 863 q 135 981 92 949 q 233 1032 178 1013 q 347 1051 288 1051 q 442 1033 399 1051 q 514 984 484 1015 q 560 912 544 954 q 577 823 577 871 q 560 733 577 773 q 518 659 543 693 q 465 594 494 625 q 411 530 435 563 q 369 460 386 497 q 353 376 353 423 l 353 70 q 382 49 353 60 q 468 29 412 38 l 468 0 l 135 0 "},"ờ":{"x_min":54,"x_max":746,"ha":746,"o":"m 539 308 q 521 410 539 362 q 475 495 503 458 q 412 554 448 532 q 342 576 377 576 q 256 556 291 576 q 199 502 220 536 q 168 421 178 468 q 159 320 159 375 q 178 219 159 267 q 225 134 197 170 q 289 76 254 97 q 355 55 323 55 q 437 72 403 55 q 494 124 472 90 q 528 203 517 157 q 539 308 539 250 m 746 707 q 738 670 746 690 q 713 626 731 649 q 665 577 695 602 q 590 527 635 551 q 630 436 616 486 q 644 329 644 386 q 632 240 644 283 q 600 158 620 197 q 551 86 580 119 q 489 30 523 53 q 416 -6 454 6 q 336 -20 377 -20 q 219 4 271 -20 q 130 71 167 28 q 74 173 94 114 q 54 301 54 232 q 65 389 54 346 q 96 471 76 432 q 144 543 116 510 q 206 600 172 576 q 280 637 241 623 q 362 651 320 651 q 474 628 424 651 q 561 564 525 605 q 613 611 597 588 q 629 652 629 634 q 618 689 629 671 q 589 722 608 707 l 710 777 q 736 744 726 762 q 746 707 746 726 m 440 731 q 422 718 431 722 q 402 710 413 713 l 163 965 l 178 993 q 198 998 185 995 q 226 1003 211 1000 q 255 1007 240 1005 q 277 1010 269 1009 l 440 731 "},"̿":{"x_min":-697.21875,"x_max":43.40625,"ha":0,"o":"m 43 1051 q 38 1034 42 1044 q 31 1014 35 1024 q 23 995 27 1005 q 16 980 19 986 l -682 980 l -697 996 q -692 1013 -695 1004 q -685 1033 -689 1023 q -676 1052 -680 1042 q -669 1068 -672 1061 l 28 1068 l 43 1051 m 43 868 q 38 851 42 861 q 31 831 35 841 q 23 812 27 822 q 16 797 19 803 l -682 797 l -697 813 q -692 830 -695 821 q -685 850 -689 840 q -676 869 -680 859 q -669 885 -672 878 l 28 885 l 43 868 "},"å":{"x_min":54,"x_max":628.765625,"ha":638,"o":"m 238 68 q 325 88 279 68 q 423 154 371 109 l 423 329 q 328 311 365 320 q 267 293 291 302 q 229 274 243 284 q 204 252 215 264 q 175 210 186 234 q 165 155 165 187 q 173 111 165 128 q 192 84 181 94 q 217 71 204 74 q 238 68 229 68 m 628 55 q 533 -2 571 15 q 476 -20 495 -20 q 439 11 454 -20 q 423 97 424 42 q 361 44 392 66 q 302 7 331 22 q 246 -13 272 -6 q 198 -20 220 -20 q 148 -11 174 -20 q 101 13 122 -3 q 67 59 81 31 q 54 126 54 87 q 72 212 54 177 q 115 272 90 246 q 152 302 131 288 q 207 330 172 317 q 293 356 241 344 q 423 380 344 368 l 423 475 q 417 518 423 498 q 399 553 412 538 q 364 575 386 568 q 309 583 342 583 q 266 575 287 582 q 229 556 245 568 q 205 527 214 544 q 198 490 196 511 q 184 476 199 484 q 150 462 170 469 q 110 453 130 456 q 83 452 91 450 l 73 478 q 121 543 89 512 q 194 598 153 574 q 280 636 235 622 q 369 651 326 651 q 484 612 444 651 q 525 503 525 573 l 525 120 q 532 80 525 92 q 552 68 539 68 q 576 71 561 68 q 618 86 591 74 l 628 55 m 390 843 q 386 874 390 859 q 375 900 382 889 q 356 918 367 911 q 332 925 346 925 q 305 919 318 925 q 282 903 292 913 q 266 877 273 892 q 260 844 260 862 q 264 814 260 828 q 276 788 268 799 q 294 770 283 777 q 319 764 305 764 q 345 769 332 764 q 368 784 358 774 q 384 808 378 794 q 390 843 390 823 m 451 871 q 438 807 451 836 q 404 757 425 778 q 356 723 382 735 q 304 712 330 712 q 262 720 281 712 q 229 742 243 728 q 207 775 215 756 q 199 816 199 794 q 213 880 199 851 q 247 931 226 910 q 294 965 268 953 q 346 977 320 977 q 387 968 368 977 q 421 945 407 960 q 443 911 435 930 q 451 871 451 892 "},"0":{"x_min":52,"x_max":600,"ha":652,"o":"m 489 383 q 474 547 489 476 q 435 664 459 617 q 379 735 411 711 q 312 760 347 760 q 250 741 278 760 q 203 683 222 722 q 173 583 184 644 q 163 437 163 522 q 176 273 163 344 q 213 154 190 202 q 269 82 236 106 q 339 58 301 58 q 402 76 374 58 q 449 134 430 95 q 478 236 468 174 q 489 383 489 297 m 600 408 q 579 243 600 321 q 521 106 558 165 q 430 14 483 48 q 312 -20 377 -20 q 199 14 248 -20 q 118 106 150 48 q 68 243 85 165 q 52 408 52 321 q 73 574 52 496 q 131 710 94 652 q 222 803 169 769 q 339 838 274 838 q 452 804 403 838 q 533 711 501 770 q 583 575 566 653 q 600 408 600 496 "},"ɋ":{"x_min":54,"x_max":885,"ha":715,"o":"m 330 68 q 375 77 353 68 q 419 102 397 86 q 462 137 441 117 q 505 177 484 156 l 505 494 q 441 554 482 533 q 352 576 401 576 q 279 560 314 576 q 216 512 244 544 q 172 433 189 480 q 156 322 156 385 q 172 217 156 264 q 214 137 189 170 q 271 85 240 103 q 330 68 302 68 m 505 112 q 454 57 479 81 q 402 15 429 32 q 345 -10 375 -1 q 281 -20 316 -20 q 203 2 243 -20 q 130 65 163 24 q 75 166 96 106 q 54 301 54 226 q 73 411 54 360 q 119 500 92 461 q 178 566 146 539 q 233 606 209 593 q 309 639 271 628 q 373 651 347 651 q 410 648 391 651 q 447 639 428 646 q 486 620 466 632 q 530 587 507 608 q 551 602 540 594 q 572 619 562 610 q 591 636 582 627 q 607 651 600 644 l 628 630 q 617 589 621 611 q 610 543 613 569 q 607 486 607 516 l 607 -112 q 625 -232 607 -190 q 693 -275 644 -275 q 722 -268 708 -275 q 745 -252 735 -262 q 760 -230 755 -243 q 766 -205 766 -218 q 757 -178 766 -190 q 778 -162 763 -171 q 810 -147 793 -154 q 844 -136 827 -140 q 871 -133 861 -132 l 885 -161 q 865 -220 885 -188 q 812 -277 846 -251 q 735 -321 779 -303 q 643 -339 691 -339 q 575 -323 601 -339 q 532 -283 548 -308 q 511 -224 517 -257 q 505 -153 505 -190 l 505 112 "},"ō":{"x_min":54,"x_max":645,"ha":699,"o":"m 540 308 q 522 410 540 362 q 476 495 504 458 q 413 554 448 532 q 343 576 378 576 q 256 556 291 576 q 199 502 220 536 q 168 421 178 468 q 159 320 159 375 q 178 219 159 267 q 226 134 197 170 q 289 76 254 97 q 355 55 324 55 q 438 72 403 55 q 495 124 473 90 q 529 203 518 157 q 540 308 540 250 m 645 329 q 633 240 645 283 q 601 158 621 196 q 552 86 581 119 q 489 30 524 53 q 416 -6 455 6 q 336 -20 378 -20 q 220 4 272 -20 q 131 71 168 28 q 74 173 94 114 q 54 301 54 232 q 65 389 54 346 q 96 471 76 432 q 144 543 116 510 q 207 600 172 576 q 281 637 241 623 q 363 651 320 651 q 478 626 426 651 q 567 559 530 602 q 624 457 604 516 q 645 329 645 398 m 598 868 q 594 851 597 861 q 586 831 590 841 q 578 812 582 822 q 572 797 575 803 l 155 797 l 140 813 q 145 830 141 821 q 152 850 148 840 q 160 869 156 859 q 168 885 164 878 l 583 885 l 598 868 "},"”":{"x_min":59.875,"x_max":542,"ha":606,"o":"m 256 878 q 246 821 256 852 q 220 760 237 790 q 177 701 202 729 q 119 653 152 673 l 89 676 q 114 709 103 690 q 132 747 124 728 q 142 784 139 766 q 146 816 146 802 q 127 869 146 846 q 70 894 109 892 l 59 924 q 85 943 65 933 q 128 963 105 954 q 174 980 152 973 q 209 986 197 986 q 243 941 231 964 q 256 878 256 917 m 542 878 q 532 821 542 852 q 505 760 523 790 q 462 701 488 729 q 405 653 437 673 l 376 676 q 400 709 390 690 q 418 747 411 728 q 429 784 425 766 q 433 816 433 802 q 414 869 433 846 q 356 894 395 892 l 345 924 q 370 943 350 933 q 414 963 390 954 q 460 980 437 973 q 495 986 483 986 q 529 941 517 964 q 542 878 542 917 "},"ḕ":{"x_min":54,"x_max":588,"ha":642,"o":"m 336 580 q 271 566 301 580 q 219 527 242 552 q 181 468 196 503 q 160 393 166 434 l 451 393 q 471 398 466 393 q 477 417 477 403 q 471 463 477 435 q 451 517 466 490 q 408 561 436 543 q 336 580 381 580 m 588 377 q 555 352 575 363 q 513 332 535 340 l 156 332 q 170 231 156 279 q 210 147 184 183 q 273 89 236 111 q 357 68 310 68 q 398 70 378 68 q 441 82 418 73 q 492 110 464 92 q 558 160 520 129 q 574 146 567 155 q 584 132 580 137 q 504 52 538 82 q 439 6 469 22 q 379 -14 409 -9 q 315 -20 350 -20 q 216 2 263 -20 q 132 65 168 24 q 75 164 96 106 q 54 294 54 222 q 64 383 54 339 q 93 467 74 428 q 140 539 113 506 q 204 597 168 573 q 237 617 219 607 q 276 634 256 627 q 317 646 297 642 q 355 651 337 651 q 434 638 399 651 q 494 605 469 626 q 538 557 520 585 q 567 499 556 530 q 583 437 578 469 q 588 377 588 405 m 581 868 q 577 851 580 861 q 569 831 573 841 q 561 812 565 822 q 555 797 558 803 l 138 797 l 123 813 q 128 830 124 821 q 135 850 131 840 q 143 869 139 859 q 151 885 147 878 l 566 885 l 581 868 m 423 975 q 405 962 414 967 q 385 954 396 957 l 146 1210 l 161 1237 q 181 1242 168 1239 q 209 1247 194 1244 q 238 1251 223 1250 q 260 1254 252 1253 l 423 975 "},"ö":{"x_min":54,"x_max":645,"ha":699,"o":"m 540 308 q 522 410 540 362 q 476 495 504 458 q 413 554 448 532 q 343 576 378 576 q 256 556 291 576 q 199 502 220 536 q 168 421 178 468 q 159 320 159 375 q 178 219 159 267 q 226 134 197 170 q 289 76 254 97 q 355 55 324 55 q 438 72 403 55 q 495 124 473 90 q 529 203 518 157 q 540 308 540 250 m 645 329 q 633 240 645 283 q 601 158 621 196 q 552 86 581 119 q 489 30 524 53 q 416 -6 455 6 q 336 -20 378 -20 q 220 4 272 -20 q 131 71 168 28 q 74 173 94 114 q 54 301 54 232 q 65 389 54 346 q 96 471 76 432 q 144 543 116 510 q 207 600 172 576 q 281 637 241 623 q 363 651 320 651 q 478 626 426 651 q 567 559 530 602 q 624 457 604 516 q 645 329 645 398 m 566 854 q 560 818 566 835 q 543 789 553 801 q 518 769 532 776 q 487 762 504 762 q 443 778 456 762 q 430 826 430 795 q 436 862 430 845 q 453 892 442 879 q 478 911 464 904 q 508 919 492 919 q 566 854 566 919 m 295 854 q 289 818 295 835 q 272 789 282 801 q 247 769 261 776 q 216 762 233 762 q 172 778 185 762 q 159 826 159 795 q 165 862 159 845 q 182 892 171 879 q 207 911 193 904 q 237 919 221 919 q 295 854 295 919 "},"ẉ":{"x_min":13.5625,"x_max":966.46875,"ha":981,"o":"m 966 601 q 933 592 945 597 q 913 583 921 588 q 903 573 906 579 q 898 559 900 567 l 748 40 q 732 14 744 25 q 706 -2 720 4 q 678 -13 692 -9 q 655 -20 664 -17 l 494 439 l 355 40 q 338 14 349 24 q 314 -3 327 3 q 287 -14 300 -10 q 265 -20 274 -17 l 87 559 q 13 601 81 586 l 13 631 l 275 631 l 275 601 q 223 594 242 598 q 197 583 205 589 q 188 572 189 578 q 190 559 188 565 l 318 129 l 484 631 l 531 631 l 708 129 l 825 559 q 811 584 829 575 q 746 601 792 594 l 746 631 l 966 631 l 966 601 m 563 -189 q 557 -225 563 -208 q 540 -254 551 -242 q 515 -274 530 -267 q 484 -282 501 -282 q 440 -265 453 -282 q 427 -217 427 -248 q 433 -181 427 -198 q 450 -151 439 -164 q 475 -132 461 -139 q 505 -125 489 -125 q 563 -189 563 -125 "},"Ȧ":{"x_min":0,"x_max":812.515625,"ha":827,"o":"m 514 363 l 394 711 l 278 363 l 514 363 m 258 302 l 183 75 q 201 44 176 54 q 282 29 226 35 l 282 0 l 0 0 l 0 29 q 73 46 46 37 q 107 75 100 54 l 359 838 q 398 869 375 855 q 438 893 421 883 l 723 75 q 733 58 727 65 q 749 45 739 50 q 775 35 759 40 q 812 29 790 31 l 812 0 l 526 0 l 526 29 q 599 42 579 32 q 612 75 619 52 l 535 302 l 258 302 m 474 1045 q 468 1009 474 1026 q 451 980 462 992 q 426 960 441 967 q 395 953 412 953 q 351 969 365 953 q 338 1018 338 986 q 344 1053 338 1036 q 361 1083 350 1070 q 386 1102 372 1095 q 416 1110 400 1110 q 474 1045 474 1110 "},"ć":{"x_min":54,"x_max":569.71875,"ha":607,"o":"m 569 129 q 492 47 525 76 q 430 2 458 17 q 374 -16 401 -12 q 315 -20 347 -20 q 218 2 265 -20 q 134 65 171 24 q 76 166 98 106 q 54 301 54 226 q 80 438 54 374 q 154 548 107 501 q 263 623 200 596 q 400 651 326 651 q 445 647 422 651 q 490 636 469 643 q 530 619 512 629 q 559 597 548 609 q 557 574 560 588 q 548 542 554 559 q 534 510 541 525 q 520 485 527 495 l 495 492 q 478 519 490 504 q 446 546 465 533 q 400 567 427 559 q 339 576 373 576 q 270 560 303 576 q 211 512 237 544 q 171 433 186 480 q 156 322 156 385 q 173 217 156 264 q 219 137 190 170 q 285 85 248 103 q 364 68 323 68 q 399 69 383 68 q 435 80 415 71 q 479 106 454 89 q 543 156 505 124 l 569 129 m 303 710 q 281 717 290 712 q 264 729 271 722 l 423 1010 q 444 1007 431 1009 q 472 1003 457 1005 q 500 999 486 1001 q 521 994 514 996 l 537 967 l 303 710 "},"þ":{"x_min":37.046875,"x_max":682,"ha":736,"o":"m 590 276 q 576 397 590 343 q 539 488 562 450 q 485 546 516 526 q 422 566 455 566 q 390 558 410 566 q 345 533 370 551 q 292 486 320 515 q 234 413 263 456 l 234 144 q 333 82 286 103 q 427 61 381 61 q 496 79 466 61 q 547 128 526 97 q 579 197 568 158 q 590 276 590 235 m 682 333 q 671 253 682 294 q 641 172 660 211 q 596 97 622 133 q 537 36 570 62 q 467 -4 504 10 q 388 -20 429 -20 q 361 -16 377 -20 q 324 -4 344 -12 q 280 17 303 4 q 234 50 257 30 l 234 -254 q 259 -276 234 -265 q 349 -296 285 -287 l 349 -326 l 37 -326 l 37 -296 q 106 -276 81 -285 q 132 -254 132 -266 l 132 878 q 127 926 132 909 q 113 951 123 943 q 84 963 102 960 q 37 969 65 966 l 37 996 q 126 1017 85 1006 q 208 1051 168 1029 l 234 1027 l 233 496 q 302 567 268 538 q 366 615 336 596 q 422 642 396 634 q 468 651 448 651 q 553 629 514 651 q 621 566 593 607 q 666 466 650 525 q 682 333 682 407 "},"]":{"x_min":27.4375,"x_max":332,"ha":428,"o":"m 51 -227 l 28 -207 q 35 -174 30 -191 q 45 -149 41 -157 l 237 -149 l 237 1007 l 51 1007 l 27 1024 q 35 1056 29 1039 q 45 1085 41 1073 l 332 1085 l 332 -227 l 51 -227 "},"Ǒ":{"x_min":47,"x_max":772,"ha":834,"o":"m 667 426 q 658 519 667 473 q 634 606 650 565 q 596 682 618 647 q 544 742 573 716 q 482 782 516 767 q 409 797 448 797 q 301 771 349 797 q 220 698 253 746 q 169 584 187 651 q 152 434 152 517 q 172 290 152 358 q 228 171 193 223 q 310 90 263 120 q 409 61 357 61 q 513 84 465 61 q 594 153 560 107 q 647 268 628 200 q 667 426 667 337 m 772 439 q 741 263 772 346 q 658 117 710 180 q 536 17 605 54 q 389 -20 467 -20 q 244 15 308 -20 q 136 112 180 51 q 70 251 93 172 q 47 415 47 329 q 76 590 47 507 q 158 737 106 674 q 279 837 209 800 q 429 875 349 875 q 577 838 513 875 q 684 740 640 801 q 749 600 727 679 q 772 439 772 521 m 453 943 l 381 943 l 202 1185 q 210 1196 206 1191 q 216 1204 213 1201 q 223 1210 219 1208 q 232 1217 227 1213 l 419 1046 l 602 1217 q 618 1204 613 1210 q 631 1185 623 1198 l 453 943 "},"ẁ":{"x_min":13.5625,"x_max":966.46875,"ha":981,"o":"m 966 601 q 933 592 945 597 q 913 583 921 588 q 903 573 906 579 q 898 559 900 567 l 748 40 q 732 14 744 25 q 706 -2 720 4 q 678 -13 692 -9 q 655 -20 664 -17 l 494 439 l 355 40 q 338 14 349 24 q 314 -3 327 3 q 287 -14 300 -10 q 265 -20 274 -17 l 87 559 q 13 601 81 586 l 13 631 l 275 631 l 275 601 q 223 594 242 598 q 197 583 205 589 q 188 572 189 578 q 190 559 188 565 l 318 129 l 484 631 l 531 631 l 708 129 l 825 559 q 811 584 829 575 q 746 601 792 594 l 746 631 l 966 631 l 966 601 m 585 731 q 568 718 577 722 q 548 710 559 713 l 309 965 l 324 993 q 344 998 330 995 q 372 1003 357 1000 q 400 1007 386 1005 q 423 1010 415 1009 l 585 731 "},"Ȟ":{"x_min":33.65625,"x_max":861.34375,"ha":908,"o":"m 33 0 l 33 29 q 105 49 79 38 q 132 70 132 61 l 132 783 q 107 804 132 791 q 33 825 82 816 l 33 855 l 339 855 l 339 825 q 267 804 293 816 q 241 783 241 793 l 241 478 l 654 478 l 654 783 q 629 804 654 791 q 555 825 604 816 l 555 855 l 861 855 l 861 825 q 789 804 815 816 q 763 783 763 793 l 763 70 q 787 50 763 62 q 861 29 812 38 l 861 0 l 555 0 l 555 29 q 627 49 601 38 q 654 70 654 61 l 654 417 l 241 417 l 241 70 q 265 50 241 62 q 339 29 289 38 l 339 0 l 33 0 m 484 943 l 411 943 l 232 1151 q 240 1162 237 1157 q 247 1170 244 1167 q 253 1176 250 1174 q 263 1183 257 1179 l 449 1039 l 632 1183 q 649 1170 644 1176 q 661 1151 653 1164 l 484 943 "},"ệ":{"x_min":54,"x_max":588,"ha":642,"o":"m 336 580 q 271 566 301 580 q 219 527 242 552 q 181 468 196 503 q 160 393 166 434 l 451 393 q 471 398 466 393 q 477 417 477 403 q 471 463 477 435 q 451 517 466 490 q 408 561 436 543 q 336 580 381 580 m 588 377 q 555 352 575 363 q 513 332 535 340 l 156 332 q 170 231 156 279 q 210 147 184 183 q 273 89 236 111 q 357 68 310 68 q 398 70 378 68 q 441 82 418 73 q 492 110 464 92 q 558 160 520 129 q 574 146 567 155 q 584 132 580 137 q 504 52 538 82 q 439 6 469 22 q 379 -14 409 -9 q 315 -20 350 -20 q 216 2 263 -20 q 132 65 168 24 q 75 164 96 106 q 54 294 54 222 q 64 383 54 339 q 93 467 74 428 q 140 539 113 506 q 204 597 168 573 q 237 617 219 607 q 276 634 256 627 q 317 646 297 642 q 355 651 337 651 q 434 638 399 651 q 494 605 469 626 q 538 557 520 585 q 567 499 556 530 q 583 437 578 469 q 588 377 588 405 m 407 -189 q 401 -225 407 -208 q 384 -254 395 -242 q 359 -274 374 -267 q 328 -282 345 -282 q 284 -265 297 -282 q 271 -217 271 -248 q 277 -181 271 -198 q 294 -151 283 -164 q 319 -132 305 -139 q 349 -125 333 -125 q 407 -189 407 -125 m 560 740 q 547 721 552 727 q 531 710 542 715 l 345 891 l 161 710 q 152 715 155 712 q 145 721 148 718 q 139 729 142 724 q 130 740 135 734 l 309 998 l 382 998 l 560 740 "},"ĭ":{"x_min":-27.125,"x_max":413.71875,"ha":376,"o":"m 47 0 l 47 29 q 117 49 93 38 q 142 70 142 61 l 142 454 q 140 510 142 488 q 130 543 139 531 q 102 560 121 555 q 47 569 83 566 l 47 596 q 91 606 68 600 q 137 619 114 612 q 182 634 161 626 q 220 651 203 642 l 244 651 l 244 70 q 266 50 244 62 q 338 29 289 38 l 338 0 l 47 0 m 413 922 q 367 829 393 867 q 314 768 342 792 q 255 735 286 745 q 194 725 225 725 q 130 735 161 725 q 70 768 99 745 q 17 829 42 792 q -27 922 -6 867 q -10 941 -18 934 q 8 953 -2 947 q 47 887 25 914 q 94 845 69 861 q 144 822 118 829 q 191 815 169 815 q 241 822 215 815 q 292 845 267 829 q 339 887 317 861 q 377 953 361 914 q 397 941 389 947 q 413 922 405 934 "},"8":{"x_min":64,"x_max":588,"ha":652,"o":"m 186 644 q 200 592 186 614 q 239 553 215 570 q 295 521 264 535 q 361 491 327 506 q 431 563 410 527 q 452 636 452 599 q 441 697 452 671 q 411 740 430 723 q 365 765 393 757 q 305 774 338 774 q 252 762 274 774 q 215 732 230 750 q 193 690 201 713 q 186 644 186 667 m 479 210 q 463 286 479 254 q 421 341 447 318 q 362 381 395 364 q 294 414 329 398 q 239 367 262 390 q 201 321 216 345 q 180 271 187 297 q 173 214 173 244 q 184 148 173 178 q 217 95 195 117 q 269 60 239 73 q 339 48 300 48 q 403 62 376 48 q 446 99 429 76 q 471 151 463 122 q 479 210 479 180 m 588 239 q 565 139 588 186 q 504 56 543 92 q 414 0 465 21 q 306 -20 363 -20 q 202 -2 247 -20 q 127 45 158 15 q 79 113 95 74 q 64 193 64 151 q 76 264 64 230 q 112 329 89 298 q 168 387 135 360 q 242 437 201 414 q 187 466 213 450 q 141 504 161 483 q 110 554 121 526 q 99 620 99 582 q 117 707 99 667 q 168 776 136 747 q 245 821 201 805 q 340 838 289 838 q 431 824 391 838 q 498 787 470 810 q 539 730 525 763 q 554 657 554 696 q 543 603 554 629 q 514 554 533 578 q 471 509 496 531 q 415 466 445 488 q 480 430 449 450 q 535 383 512 410 q 573 321 559 356 q 588 239 588 285 "},"Ữ":{"x_min":33.65625,"x_max":950.125,"ha":950,"o":"m 950 944 q 941 904 950 927 q 912 856 933 881 q 855 802 891 830 q 767 749 820 775 l 767 355 q 745 196 767 266 q 682 79 723 127 q 583 5 642 30 q 451 -20 525 -20 q 323 0 381 -20 q 221 58 264 18 q 155 158 179 98 q 132 301 132 218 l 132 783 q 107 804 132 791 q 33 825 82 816 l 33 855 l 339 855 l 339 825 q 267 804 293 816 q 241 783 241 793 l 241 335 q 256 218 241 270 q 301 131 271 167 q 376 76 332 95 q 478 58 420 58 q 564 81 526 58 q 627 142 601 104 q 665 229 652 180 q 679 327 679 277 l 679 783 q 654 804 679 791 q 580 825 629 816 l 580 855 l 821 855 q 833 889 833 873 q 823 926 833 909 q 794 959 813 944 l 914 1014 q 940 981 930 999 q 950 944 950 963 m 690 1103 q 661 1047 678 1075 q 623 998 644 1020 q 578 963 602 977 q 527 950 554 950 q 482 961 503 950 q 440 988 461 973 q 400 1015 420 1003 q 360 1027 380 1027 q 311 1005 333 1027 q 263 945 288 982 l 227 958 q 256 1013 240 986 q 294 1063 273 1041 q 339 1098 315 1084 q 389 1112 363 1112 q 438 1100 415 1112 q 482 1073 461 1088 q 520 1046 502 1058 q 555 1035 539 1035 q 605 1056 581 1035 q 653 1118 630 1078 l 690 1103 "},"R":{"x_min":27.5625,"x_max":771.921875,"ha":779,"o":"m 33 0 l 33 29 q 105 49 79 38 q 132 70 132 61 l 132 806 q 83 799 108 803 q 33 792 58 795 l 27 834 q 91 849 59 842 q 159 862 124 856 q 233 871 195 868 q 317 875 272 875 q 454 859 396 875 q 551 815 512 843 q 609 750 590 788 q 628 669 628 712 q 614 580 628 620 q 574 510 600 541 q 514 458 549 480 q 436 423 478 436 l 642 93 q 664 70 652 78 q 690 56 676 61 q 723 52 705 52 q 764 53 741 51 l 771 24 q 686 0 727 9 q 620 -10 646 -10 q 581 1 600 -10 q 553 27 563 12 l 348 408 q 331 406 339 406 l 312 406 q 277 408 295 406 q 241 414 259 410 l 241 70 q 265 50 241 62 q 339 29 289 38 l 339 0 l 33 0 m 293 818 q 241 816 267 818 l 241 468 q 272 464 259 465 q 301 464 286 464 q 465 511 408 464 q 523 648 523 558 q 509 716 523 685 q 468 770 496 748 q 396 805 440 792 q 293 818 353 818 "},"Ḇ":{"x_min":27.5625,"x_max":689,"ha":764,"o":"m 280 818 q 261 817 270 818 q 241 817 251 817 l 241 492 l 264 492 q 389 507 341 492 q 463 546 437 522 q 499 599 490 569 q 509 658 509 629 q 497 721 509 692 q 460 772 486 750 q 389 805 433 793 q 280 818 346 818 m 352 441 q 292 437 320 441 q 241 430 265 434 l 241 70 q 247 59 241 64 q 273 53 258 55 q 304 49 288 51 q 335 47 319 48 q 364 47 350 47 q 452 59 413 47 q 520 94 491 72 q 563 148 548 116 q 578 218 578 180 q 564 294 578 255 q 524 366 551 334 q 454 420 496 399 q 352 441 411 441 m 689 241 q 666 137 689 183 q 602 57 643 90 q 504 7 561 25 q 378 -10 447 -10 q 343 -9 364 -10 q 298 -8 322 -9 q 250 -7 275 -7 q 201 -5 224 -6 q 83 0 144 -2 l 33 0 l 33 29 q 105 49 79 38 q 132 70 132 61 l 132 807 q 81 800 106 803 q 33 792 56 796 l 27 834 q 88 848 54 841 q 162 861 123 856 q 241 871 201 867 q 318 875 281 875 q 440 862 385 875 q 534 826 495 849 q 593 768 572 802 q 614 692 614 734 q 579 566 614 619 q 484 491 544 514 q 565 460 528 482 q 630 405 602 437 q 673 330 657 372 q 689 241 689 288 m 587 -155 q 582 -172 585 -162 q 575 -192 579 -182 q 567 -211 571 -201 q 560 -227 563 -220 l 143 -227 l 128 -210 q 133 -193 130 -202 q 141 -173 137 -183 q 149 -154 145 -164 q 156 -139 153 -145 l 572 -139 l 587 -155 "},"Ż":{"x_min":40.015625,"x_max":672.125,"ha":726,"o":"m 672 198 q 669 150 670 177 q 667 97 668 124 q 665 45 666 70 q 663 0 664 19 l 59 0 l 40 30 l 522 787 l 210 787 q 187 779 200 787 q 162 755 174 772 q 139 714 149 739 q 120 653 128 688 l 82 661 l 101 865 q 135 859 120 861 q 165 855 150 856 q 195 855 179 855 l 648 855 l 665 825 l 187 68 l 541 68 q 567 74 556 68 q 589 96 579 80 q 611 139 600 112 q 634 208 621 166 l 672 198 m 444 1045 q 438 1009 444 1026 q 421 980 432 992 q 397 960 411 967 q 365 953 382 953 q 321 969 335 953 q 308 1018 308 986 q 314 1053 308 1036 q 331 1083 320 1070 q 356 1102 342 1095 q 386 1110 370 1110 q 444 1045 444 1110 "},"ḝ":{"x_min":54,"x_max":587,"ha":641,"o":"m 451 -155 q 439 -203 451 -180 q 401 -245 427 -226 q 337 -278 376 -264 q 241 -301 297 -292 l 226 -267 q 286 -252 262 -261 q 327 -232 311 -243 q 349 -209 342 -221 q 357 -186 357 -197 q 339 -154 357 -163 q 279 -141 321 -145 q 286 -122 281 -139 q 300 -77 291 -108 q 319 -20 308 -55 l 315 -20 q 215 2 262 -20 q 132 65 168 24 q 75 164 96 106 q 54 294 54 222 q 64 383 54 339 q 93 467 74 428 q 140 539 113 506 q 203 597 168 573 q 237 617 218 607 q 276 634 256 627 q 316 646 296 642 q 355 651 336 651 q 433 638 399 651 q 494 605 468 626 q 537 557 519 585 q 566 499 555 530 q 582 437 577 469 q 587 377 587 405 q 554 352 574 363 q 512 332 534 340 l 156 332 q 170 231 156 279 q 210 147 184 183 q 273 89 236 111 q 356 68 310 68 q 397 70 377 68 q 440 82 417 73 q 492 110 463 92 q 558 160 520 129 q 573 146 566 155 q 583 132 579 137 q 503 52 537 82 q 439 6 469 22 q 379 -15 408 -10 q 374 -16 376 -15 l 356 -70 q 390 -80 373 -74 q 421 -97 408 -87 q 442 -121 434 -107 q 451 -155 451 -136 m 336 580 q 271 566 301 580 q 219 527 242 552 q 181 468 196 503 q 160 393 166 434 l 450 393 q 470 398 465 393 q 476 417 476 403 q 470 463 476 435 q 450 517 465 490 q 407 561 435 543 q 336 580 380 580 m 566 922 q 520 829 545 867 q 466 768 495 792 q 408 735 438 745 q 347 725 377 725 q 282 735 314 725 q 223 768 251 745 q 170 829 195 792 q 125 922 145 867 q 141 941 133 934 q 161 953 149 947 q 200 887 178 914 q 246 845 222 861 q 296 822 271 829 q 344 815 322 815 q 394 822 368 815 q 445 845 420 829 q 492 887 470 861 q 530 953 514 914 q 550 941 541 947 q 566 922 558 934 "},"õ":{"x_min":54,"x_max":645,"ha":699,"o":"m 540 308 q 522 410 540 362 q 476 495 504 458 q 413 554 448 532 q 343 576 378 576 q 256 556 291 576 q 199 502 220 536 q 168 421 178 468 q 159 320 159 375 q 178 219 159 267 q 226 134 197 170 q 289 76 254 97 q 355 55 324 55 q 438 72 403 55 q 495 124 473 90 q 529 203 518 157 q 540 308 540 250 m 645 329 q 633 240 645 283 q 601 158 621 196 q 552 86 581 119 q 489 30 524 53 q 416 -6 455 6 q 336 -20 378 -20 q 220 4 272 -20 q 131 71 168 28 q 74 173 94 114 q 54 301 54 232 q 65 389 54 346 q 96 471 76 432 q 144 543 116 510 q 207 600 172 576 q 281 637 241 623 q 363 651 320 651 q 478 626 426 651 q 567 559 530 602 q 624 457 604 516 q 645 329 645 398 m 594 912 q 564 857 581 884 q 527 808 548 830 q 482 773 506 787 q 431 760 457 760 q 386 771 407 760 q 344 798 364 783 q 304 825 324 813 q 264 837 284 837 q 215 814 237 837 q 167 755 192 792 l 131 768 q 160 823 143 796 q 198 873 177 851 q 243 908 219 894 q 293 922 267 922 q 342 910 319 922 q 385 883 365 898 q 424 856 406 868 q 459 845 442 845 q 509 866 484 845 q 557 928 534 888 l 594 912 "},"ẘ":{"x_min":13.5625,"x_max":966.46875,"ha":981,"o":"m 966 601 q 933 592 945 597 q 913 583 921 588 q 903 573 906 579 q 898 559 900 567 l 748 40 q 732 14 744 25 q 706 -2 720 4 q 678 -13 692 -9 q 655 -20 664 -17 l 494 439 l 355 40 q 338 14 349 24 q 314 -3 327 3 q 287 -14 300 -10 q 265 -20 274 -17 l 87 559 q 13 601 81 586 l 13 631 l 275 631 l 275 601 q 223 594 242 598 q 197 583 205 589 q 188 572 189 578 q 190 559 188 565 l 318 129 l 484 631 l 531 631 l 708 129 l 825 559 q 811 584 829 575 q 746 601 792 594 l 746 631 l 966 631 l 966 601 m 573 843 q 569 874 573 859 q 558 900 565 889 q 540 918 550 911 q 515 925 529 925 q 488 919 501 925 q 465 903 475 913 q 450 877 456 892 q 443 844 443 862 q 448 814 443 828 q 459 788 452 799 q 477 770 466 777 q 502 764 488 764 q 528 769 515 764 q 551 784 541 774 q 567 808 561 794 q 573 843 573 823 m 634 871 q 621 807 634 836 q 587 757 608 778 q 539 723 565 735 q 487 712 513 712 q 445 720 464 712 q 412 742 426 728 q 390 775 398 756 q 382 816 382 794 q 396 880 382 851 q 430 931 409 910 q 477 965 451 953 q 529 977 503 977 q 570 968 551 977 q 604 945 590 960 q 626 911 618 930 q 634 871 634 892 "},"ẫ":{"x_min":54,"x_max":628.765625,"ha":638,"o":"m 238 68 q 325 88 279 68 q 423 154 371 109 l 423 329 q 328 311 365 320 q 267 293 291 302 q 229 274 243 284 q 204 252 215 264 q 175 210 186 234 q 165 155 165 187 q 173 111 165 128 q 192 84 181 94 q 217 71 204 74 q 238 68 229 68 m 628 55 q 533 -2 571 15 q 476 -20 495 -20 q 439 11 454 -20 q 423 97 424 42 q 361 44 392 66 q 302 7 331 22 q 246 -13 272 -6 q 198 -20 220 -20 q 148 -11 174 -20 q 101 13 122 -3 q 67 59 81 31 q 54 126 54 87 q 72 212 54 177 q 115 272 90 246 q 152 302 131 288 q 207 330 172 317 q 293 356 241 344 q 423 380 344 368 l 423 475 q 417 518 423 498 q 399 553 412 538 q 364 575 386 568 q 309 583 342 583 q 266 575 287 582 q 229 556 245 568 q 205 527 214 544 q 198 490 196 511 q 184 476 199 484 q 150 462 170 469 q 110 453 130 456 q 83 452 91 450 l 73 478 q 121 543 89 512 q 194 598 153 574 q 280 636 235 622 q 369 651 326 651 q 484 612 444 651 q 525 503 525 573 l 525 120 q 532 80 525 92 q 552 68 539 68 q 576 71 561 68 q 618 86 591 74 l 628 55 m 539 740 q 526 721 531 727 q 510 710 522 715 l 324 891 l 141 710 q 131 715 135 712 q 125 721 128 718 q 118 729 122 724 q 110 740 115 734 l 289 998 l 362 998 l 539 740 m 556 1217 q 527 1162 544 1189 q 490 1113 510 1135 q 444 1078 469 1092 q 394 1065 420 1065 q 348 1077 370 1065 q 307 1103 327 1089 q 266 1130 286 1118 q 227 1142 246 1142 q 177 1120 200 1142 q 130 1060 155 1098 l 94 1073 q 123 1129 106 1101 q 160 1178 139 1156 q 205 1213 181 1200 q 256 1227 229 1227 q 305 1215 282 1227 q 348 1188 328 1203 q 387 1162 368 1174 q 421 1150 405 1150 q 472 1171 447 1150 q 520 1233 497 1193 l 556 1217 "},"Ṡ":{"x_min":79.515625,"x_max":600,"ha":661,"o":"m 600 255 q 591 193 600 225 q 567 130 583 161 q 525 72 550 99 q 467 24 501 45 q 391 -7 433 4 q 298 -20 349 -20 q 249 -15 276 -20 q 195 -2 223 -10 q 140 18 167 6 q 89 46 112 30 q 81 69 84 48 q 79 116 79 89 q 81 172 79 144 q 89 219 83 201 l 116 216 q 155 147 132 176 q 207 98 179 117 q 268 70 235 79 q 336 61 301 61 q 397 73 366 61 q 452 107 428 86 q 492 158 476 129 q 508 219 508 187 q 489 290 508 261 q 441 343 471 320 q 374 385 412 366 q 297 421 336 403 q 219 460 257 440 q 152 508 181 480 q 104 570 122 535 q 86 655 86 606 q 92 701 86 676 q 111 750 98 725 q 146 797 125 774 q 198 837 168 820 q 267 864 228 854 q 356 875 307 875 q 417 870 387 875 q 475 857 448 865 q 523 837 502 849 q 557 812 545 826 q 558 796 562 808 q 544 770 553 784 q 524 743 535 756 q 505 722 513 729 l 480 726 q 440 763 461 748 q 398 789 420 779 q 356 802 377 798 q 316 807 335 807 q 251 795 278 807 q 207 766 224 783 q 182 728 190 749 q 174 687 174 706 q 192 631 174 655 q 240 585 210 606 q 308 546 270 565 q 387 508 346 528 q 465 465 427 488 q 533 412 503 442 q 581 344 563 382 q 600 255 600 306 m 407 1045 q 401 1009 407 1026 q 384 980 395 992 q 359 960 374 967 q 328 953 345 953 q 284 969 297 953 q 271 1018 271 986 q 277 1053 271 1036 q 294 1083 283 1070 q 319 1102 305 1095 q 349 1110 333 1110 q 407 1045 407 1110 "},"ǝ":{"x_min":47,"x_max":577,"ha":631,"o":"m 301 51 q 422 103 379 51 q 474 258 465 156 l 201 258 q 168 242 180 258 q 156 199 156 226 q 168 140 156 167 q 202 93 181 113 q 249 62 223 73 q 301 51 275 51 m 577 329 q 550 180 577 249 q 477 61 523 111 q 390 0 438 19 q 282 -20 343 -20 q 190 -4 233 -20 q 115 40 147 11 q 65 106 83 68 q 47 189 47 144 q 53 239 47 216 q 71 276 59 261 q 115 298 91 287 q 163 319 139 309 l 475 319 q 456 419 473 374 q 412 494 440 463 q 347 542 385 525 q 269 559 310 559 q 231 556 250 559 q 190 545 212 553 q 140 522 167 537 q 78 481 113 506 q 62 495 69 485 q 52 510 56 505 q 128 581 93 554 q 195 624 163 609 q 256 645 226 640 q 317 651 286 651 q 414 628 367 651 q 497 565 460 606 q 555 464 533 524 q 577 329 577 404 "},"˙":{"x_min":68,"x_max":204,"ha":271,"o":"m 204 854 q 197 818 204 835 q 181 789 191 801 q 156 769 170 776 q 125 762 142 762 q 81 778 94 762 q 68 826 68 795 q 74 862 68 845 q 91 892 80 879 q 115 911 102 904 q 146 919 129 919 q 204 854 204 919 "},"ê":{"x_min":54,"x_max":588,"ha":642,"o":"m 336 580 q 271 566 301 580 q 219 527 242 552 q 181 468 196 503 q 160 393 166 434 l 451 393 q 471 398 466 393 q 477 417 477 403 q 471 463 477 435 q 451 517 466 490 q 408 561 436 543 q 336 580 381 580 m 588 377 q 555 352 575 363 q 513 332 535 340 l 156 332 q 170 231 156 279 q 210 147 184 183 q 273 89 236 111 q 357 68 310 68 q 398 70 378 68 q 441 82 418 73 q 492 110 464 92 q 558 160 520 129 q 574 146 567 155 q 584 132 580 137 q 504 52 538 82 q 439 6 469 22 q 379 -14 409 -9 q 315 -20 350 -20 q 216 2 263 -20 q 132 65 168 24 q 75 164 96 106 q 54 294 54 222 q 64 383 54 339 q 93 467 74 428 q 140 539 113 506 q 204 597 168 573 q 237 617 219 607 q 276 634 256 627 q 317 646 297 642 q 355 651 337 651 q 434 638 399 651 q 494 605 469 626 q 538 557 520 585 q 567 499 556 530 q 583 437 578 469 q 588 377 588 405 m 560 740 q 547 721 552 727 q 531 710 542 715 l 345 891 l 161 710 q 152 715 155 712 q 145 721 148 718 q 139 729 142 724 q 130 740 135 734 l 309 998 l 382 998 l 560 740 "},"„":{"x_min":59.875,"x_max":542,"ha":624,"o":"m 256 41 q 246 -15 256 15 q 220 -76 237 -46 q 177 -135 202 -107 q 119 -184 152 -162 l 89 -160 q 114 -127 103 -146 q 132 -89 124 -108 q 142 -52 139 -70 q 146 -20 146 -34 q 127 32 146 9 q 70 57 109 55 l 59 87 q 85 106 65 96 q 128 126 105 117 q 174 143 152 136 q 209 149 197 149 q 243 104 231 127 q 256 41 256 80 m 542 41 q 532 -15 542 15 q 505 -76 523 -46 q 462 -135 488 -107 q 405 -184 437 -162 l 376 -160 q 400 -127 390 -146 q 418 -89 411 -108 q 429 -52 425 -70 q 433 -20 433 -34 q 414 32 433 9 q 356 57 395 55 l 345 87 q 370 106 350 96 q 414 126 390 117 q 460 143 437 136 q 495 149 483 149 q 529 104 517 127 q 542 41 542 80 "},"Â":{"x_min":0,"x_max":812.515625,"ha":827,"o":"m 514 363 l 394 711 l 278 363 l 514 363 m 258 302 l 183 75 q 201 44 176 54 q 282 29 226 35 l 282 0 l 0 0 l 0 29 q 73 46 46 37 q 107 75 100 54 l 359 838 q 398 869 375 855 q 438 893 421 883 l 723 75 q 733 58 727 65 q 749 45 739 50 q 775 35 759 40 q 812 29 790 31 l 812 0 l 526 0 l 526 29 q 599 42 579 32 q 612 75 619 52 l 535 302 l 258 302 m 620 957 q 607 938 612 944 q 591 927 602 932 l 405 1068 l 221 927 q 212 932 216 929 q 205 938 208 935 q 199 946 202 941 q 191 957 196 951 l 370 1167 l 442 1167 l 620 957 "},"´":{"x_min":147.171875,"x_max":419.8125,"ha":443,"o":"m 185 710 q 164 717 173 712 q 147 729 155 722 l 305 1010 q 327 1007 314 1009 q 355 1003 341 1005 q 383 998 370 1001 q 404 994 396 996 l 419 967 l 185 710 "},"Ɛ":{"x_min":54,"x_max":653.34375,"ha":707,"o":"m 653 145 q 572 67 611 98 q 491 16 533 35 q 406 -11 450 -3 q 310 -20 361 -20 q 199 0 247 -20 q 119 52 152 20 q 70 120 87 83 q 54 192 54 158 q 67 268 54 231 q 103 336 81 305 q 154 392 125 368 q 215 430 183 416 q 113 499 150 453 q 77 613 77 546 q 109 725 77 672 q 203 815 142 778 q 295 858 247 842 q 399 875 344 875 q 534 857 472 875 q 640 804 596 840 q 613 761 629 781 q 579 722 597 741 l 550 727 q 508 759 528 745 q 465 782 488 772 q 418 795 443 791 q 363 800 393 800 q 291 787 325 800 q 230 753 256 774 q 187 701 203 731 q 172 635 172 671 q 182 581 172 608 q 222 532 193 554 q 301 495 251 510 q 428 478 351 481 l 428 427 q 308 402 358 422 q 225 356 258 383 q 178 296 193 328 q 163 233 163 263 q 178 166 163 196 q 222 113 194 135 q 287 77 250 90 q 368 65 325 65 q 429 68 401 65 q 485 84 457 72 q 547 117 514 96 q 624 175 580 139 l 653 145 "},"ỏ":{"x_min":54,"x_max":645,"ha":699,"o":"m 540 308 q 522 410 540 362 q 476 495 504 458 q 413 554 448 532 q 343 576 378 576 q 256 556 291 576 q 199 502 220 536 q 168 421 178 468 q 159 320 159 375 q 178 219 159 267 q 226 134 197 170 q 289 76 254 97 q 355 55 324 55 q 438 72 403 55 q 495 124 473 90 q 529 203 518 157 q 540 308 540 250 m 645 329 q 633 240 645 283 q 601 158 621 196 q 552 86 581 119 q 489 30 524 53 q 416 -6 455 6 q 336 -20 378 -20 q 220 4 272 -20 q 131 71 168 28 q 74 173 94 114 q 54 301 54 232 q 65 389 54 346 q 96 471 76 432 q 144 543 116 510 q 207 600 172 576 q 281 637 241 623 q 363 651 320 651 q 478 626 426 651 q 567 559 530 602 q 624 457 604 516 q 645 329 645 398 m 477 904 q 464 871 477 886 q 435 843 452 856 q 402 817 418 829 q 378 793 386 806 q 377 767 371 780 q 412 736 384 753 q 392 728 403 730 q 371 726 381 727 q 326 753 340 740 q 308 776 311 765 q 311 797 305 787 q 329 815 318 806 q 355 833 341 824 q 382 851 369 842 q 402 871 394 861 q 411 894 411 882 q 398 933 411 920 q 365 946 385 946 q 347 942 355 946 q 332 932 338 938 q 323 918 326 926 q 319 903 319 911 q 321 896 319 900 q 325 889 323 893 q 311 885 319 887 q 293 880 302 882 q 273 877 283 878 q 257 874 264 875 l 250 882 l 250 891 q 263 922 250 907 q 295 950 275 938 q 340 971 315 963 q 388 979 364 979 q 454 958 431 979 q 477 904 477 938 "},"ʃ":{"x_min":-176.328125,"x_max":485.5,"ha":342,"o":"m 265 44 q 254 -70 265 -21 q 224 -156 243 -119 q 181 -222 206 -194 q 130 -271 157 -249 q 89 -297 111 -285 q 43 -319 67 -310 q -4 -333 19 -328 q -48 -339 -27 -339 q -92 -331 -69 -339 q -133 -315 -114 -324 q -164 -295 -151 -305 q -176 -280 -176 -285 q -166 -263 -176 -274 q -143 -241 -156 -253 q -114 -219 -129 -230 q -90 -204 -100 -209 q -65 -222 -79 -214 q -37 -235 -52 -230 q -8 -243 -23 -240 q 18 -247 5 -247 q 73 -233 48 -247 q 116 -193 98 -220 q 145 -127 134 -167 q 156 -33 156 -87 q 150 84 156 20 q 137 216 145 148 q 119 353 128 284 q 101 486 110 422 q 88 605 93 550 q 83 699 83 659 q 91 806 83 761 q 115 884 100 851 q 152 942 130 917 q 202 988 174 966 q 242 1015 220 1003 q 285 1034 263 1026 q 325 1046 306 1042 q 358 1051 345 1051 q 401 1042 379 1051 q 442 1024 423 1034 q 473 1002 461 1013 q 485 985 485 991 q 475 969 485 980 q 452 947 465 958 q 424 925 438 935 q 399 910 409 915 q 366 935 383 924 q 334 952 349 945 q 306 962 319 959 q 284 966 292 966 q 249 953 266 966 q 220 917 233 940 q 200 857 208 893 q 192 776 192 822 q 197 661 192 724 q 210 529 202 597 q 228 392 219 461 q 246 258 237 322 q 259 139 254 194 q 265 44 265 84 "},"Ĉ":{"x_min":48,"x_max":690.84375,"ha":745,"o":"m 690 143 q 607 65 647 96 q 531 15 568 34 q 458 -11 494 -3 q 387 -20 422 -20 q 263 8 324 -20 q 155 90 203 36 q 77 221 106 144 q 48 397 48 299 q 80 594 48 506 q 169 744 113 682 q 300 841 226 807 q 458 875 375 875 q 587 855 532 875 q 677 806 642 835 q 675 793 682 803 q 659 770 669 783 q 636 744 648 757 q 616 723 625 731 l 593 727 q 511 779 558 759 q 401 800 463 800 q 351 791 378 800 q 296 764 323 783 q 242 716 268 746 q 196 645 216 687 q 164 548 176 603 q 153 422 153 492 q 179 264 153 332 q 246 151 205 196 q 337 83 287 106 q 436 61 388 61 q 532 86 473 61 q 665 173 591 111 q 672 167 669 172 q 679 158 676 163 q 686 149 683 153 q 690 143 688 145 m 630 957 q 617 938 622 944 q 601 927 613 932 l 415 1068 l 231 927 q 222 932 226 929 q 216 938 219 935 q 209 946 212 941 q 201 957 206 951 l 380 1167 l 453 1167 l 630 957 "},"Ɋ":{"x_min":45,"x_max":985,"ha":834,"o":"m 369 72 q 426 85 396 72 q 487 120 456 99 q 548 170 518 142 q 606 225 578 197 l 606 671 q 533 753 579 724 q 429 783 488 783 q 367 772 399 783 q 303 742 334 762 q 243 693 271 722 q 193 624 214 663 q 159 537 172 585 q 147 432 147 489 q 166 289 147 355 q 217 174 185 223 q 288 99 248 126 q 369 72 328 72 m 606 152 q 542 79 574 112 q 478 25 511 47 q 409 -8 445 3 q 331 -20 372 -20 q 268 -7 301 -20 q 204 29 236 5 q 143 90 172 54 q 92 174 114 127 q 57 279 70 222 q 45 405 45 337 q 57 506 45 458 q 89 595 69 554 q 133 672 108 637 q 185 735 158 707 q 235 783 211 763 q 280 816 260 803 q 327 841 303 830 q 375 859 352 851 q 418 871 398 867 q 455 875 439 875 q 496 872 476 875 q 538 861 517 869 q 582 837 559 852 q 630 796 605 821 q 652 813 641 804 q 674 833 664 823 q 693 854 684 844 q 711 874 703 865 l 740 848 q 727 792 732 823 q 718 731 722 766 q 715 654 715 695 l 715 -72 q 717 -162 715 -124 q 727 -226 719 -201 q 750 -263 735 -251 q 794 -275 766 -275 q 822 -269 809 -275 q 845 -254 835 -264 q 861 -233 855 -245 q 867 -207 867 -221 q 860 -179 867 -194 q 872 -166 860 -173 q 901 -150 884 -158 q 938 -138 919 -143 q 972 -133 957 -133 l 985 -159 q 963 -224 985 -192 q 907 -282 941 -256 q 829 -323 872 -307 q 743 -339 786 -339 q 672 -323 699 -339 q 631 -278 646 -307 q 611 -207 616 -249 q 606 -113 606 -166 l 606 152 "},"Ờ":{"x_min":48,"x_max":828,"ha":834,"o":"m 667 426 q 658 519 667 473 q 634 606 650 565 q 596 682 618 647 q 544 742 573 716 q 482 782 516 767 q 410 797 448 797 q 301 771 349 797 q 221 698 254 746 q 170 584 188 651 q 153 434 153 517 q 173 290 153 358 q 229 171 194 223 q 310 90 264 120 q 410 61 357 61 q 513 84 466 61 q 594 153 560 107 q 648 268 629 200 q 667 426 667 337 m 828 944 q 820 906 828 927 q 794 861 812 885 q 745 812 776 837 q 667 761 714 786 q 745 614 719 698 q 772 439 772 529 q 741 263 772 346 q 658 117 710 180 q 536 17 605 54 q 390 -20 467 -20 q 245 15 309 -20 q 137 112 181 51 q 71 251 94 172 q 48 415 48 329 q 77 590 48 507 q 159 737 107 674 q 280 837 210 800 q 429 875 349 875 q 542 853 492 875 q 634 796 593 832 q 693 846 675 821 q 711 889 711 871 q 700 926 711 908 q 671 959 690 944 l 792 1014 q 818 981 808 999 q 828 944 828 963 m 537 957 q 522 938 527 944 q 506 927 517 931 l 188 1092 l 193 1122 q 209 1134 198 1128 q 231 1148 219 1141 q 255 1162 244 1156 q 274 1173 267 1168 l 537 957 "},"Ω":{"x_min":54.984375,"x_max":798,"ha":879,"o":"m 76 0 l 54 18 q 57 55 55 34 q 61 99 58 77 q 67 145 63 122 q 76 190 71 168 l 106 190 q 117 140 111 161 q 129 103 122 118 q 147 82 136 89 q 171 75 157 75 l 320 75 q 200 185 247 132 q 125 290 153 239 q 86 394 97 342 q 75 501 75 446 q 86 590 75 545 q 119 677 97 635 q 173 755 141 719 q 248 817 205 790 q 342 859 290 844 q 455 875 394 875 q 592 849 530 875 q 699 778 654 824 q 768 665 743 731 q 794 517 794 599 q 777 402 794 456 q 728 295 761 348 q 646 188 695 242 q 534 75 598 134 l 690 75 q 713 81 704 75 q 730 101 722 87 q 746 138 738 115 q 767 193 754 160 l 798 180 q 794 136 796 160 q 788 88 791 112 q 782 40 785 64 q 775 0 778 17 l 475 0 l 475 74 q 545 166 514 126 q 599 242 576 207 q 639 307 623 276 q 666 368 655 337 q 680 430 676 398 q 685 501 685 462 q 669 619 685 563 q 621 719 653 675 q 542 788 589 762 q 433 814 495 814 q 350 798 387 814 q 286 757 313 782 q 239 699 258 731 q 207 632 219 666 q 189 566 195 598 q 184 508 184 533 q 186 434 184 468 q 197 370 189 400 q 219 308 205 339 q 257 242 234 277 q 313 166 280 207 q 391 74 346 126 l 391 0 l 76 0 "},"ȧ":{"x_min":54,"x_max":628.765625,"ha":638,"o":"m 238 68 q 325 88 279 68 q 423 154 371 109 l 423 329 q 328 311 365 320 q 267 293 291 302 q 229 274 243 284 q 204 252 215 264 q 175 210 186 234 q 165 155 165 187 q 173 111 165 128 q 192 84 181 94 q 217 71 204 74 q 238 68 229 68 m 628 55 q 533 -2 571 15 q 476 -20 495 -20 q 439 11 454 -20 q 423 97 424 42 q 361 44 392 66 q 302 7 331 22 q 246 -13 272 -6 q 198 -20 220 -20 q 148 -11 174 -20 q 101 13 122 -3 q 67 59 81 31 q 54 126 54 87 q 72 212 54 177 q 115 272 90 246 q 152 302 131 288 q 207 330 172 317 q 293 356 241 344 q 423 380 344 368 l 423 475 q 417 518 423 498 q 399 553 412 538 q 364 575 386 568 q 309 583 342 583 q 266 575 287 582 q 229 556 245 568 q 205 527 214 544 q 198 490 196 511 q 184 476 199 484 q 150 462 170 469 q 110 453 130 456 q 83 452 91 450 l 73 478 q 121 543 89 512 q 194 598 153 574 q 280 636 235 622 q 369 651 326 651 q 484 612 444 651 q 525 503 525 573 l 525 120 q 532 80 525 92 q 552 68 539 68 q 576 71 561 68 q 618 86 591 74 l 628 55 m 393 854 q 387 818 393 835 q 371 789 381 801 q 346 769 360 776 q 314 762 331 762 q 271 778 284 762 q 257 826 257 795 q 263 862 257 845 q 280 892 270 879 q 305 911 291 904 q 336 919 319 919 q 393 854 393 919 "},"Ö":{"x_min":47,"x_max":772,"ha":834,"o":"m 667 426 q 658 519 667 473 q 634 606 650 565 q 596 682 618 647 q 544 742 573 716 q 482 782 516 767 q 409 797 448 797 q 301 771 349 797 q 220 698 253 746 q 169 584 187 651 q 152 434 152 517 q 172 290 152 358 q 228 171 193 223 q 310 90 263 120 q 409 61 357 61 q 513 84 465 61 q 594 153 560 107 q 647 268 628 200 q 667 426 667 337 m 772 439 q 741 263 772 346 q 658 117 710 180 q 536 17 605 54 q 389 -20 467 -20 q 244 15 308 -20 q 136 112 180 51 q 70 251 93 172 q 47 415 47 329 q 76 590 47 507 q 158 737 106 674 q 279 837 209 800 q 429 875 349 875 q 577 838 513 875 q 684 740 640 801 q 749 600 727 679 q 772 439 772 521 m 620 1045 q 614 1009 620 1026 q 597 980 608 992 q 572 960 587 967 q 541 953 558 953 q 497 969 510 953 q 484 1018 484 986 q 490 1053 484 1036 q 507 1083 496 1070 q 532 1102 518 1095 q 562 1110 546 1110 q 620 1045 620 1110 m 349 1045 q 343 1009 349 1026 q 326 980 337 992 q 301 960 316 967 q 270 953 287 953 q 226 969 239 953 q 213 1018 213 986 q 219 1053 213 1036 q 236 1083 225 1070 q 261 1102 247 1095 q 291 1110 275 1110 q 349 1045 349 1110 "},"ḏ":{"x_min":54,"x_max":712.796875,"ha":722,"o":"m 712 57 q 657 21 681 36 q 615 -2 633 7 q 584 -15 597 -11 q 561 -20 571 -20 q 525 10 539 -20 q 506 114 510 41 q 454 58 480 83 q 402 16 429 33 q 346 -10 375 -1 q 281 -20 316 -20 q 203 2 243 -20 q 130 65 163 24 q 75 166 96 106 q 54 301 54 226 q 64 381 54 339 q 94 461 75 422 q 142 534 114 499 q 206 595 171 568 q 283 636 241 621 q 373 651 325 651 q 436 643 405 651 q 505 608 468 635 l 505 863 q 502 923 505 901 q 491 957 500 945 q 462 973 481 968 q 406 980 442 977 l 406 1006 q 506 1026 462 1014 q 585 1051 550 1039 l 607 1030 l 607 172 q 608 131 607 148 q 611 103 609 114 q 615 84 613 91 q 622 72 618 76 q 645 67 628 64 q 703 86 663 70 l 712 57 m 505 177 l 505 494 q 441 554 482 533 q 352 576 401 576 q 273 560 309 576 q 211 512 237 544 q 170 433 185 480 q 156 322 156 385 q 172 217 156 264 q 214 137 189 170 q 271 85 240 103 q 330 68 302 68 q 375 77 353 68 q 419 102 397 86 q 462 137 441 117 q 505 177 484 156 m 585 -155 q 580 -172 583 -162 q 573 -192 577 -182 q 565 -211 569 -201 q 558 -227 561 -220 l 141 -227 l 126 -210 q 131 -193 128 -202 q 139 -173 134 -183 q 147 -154 143 -164 q 154 -139 151 -145 l 570 -139 l 585 -155 "},"z":{"x_min":51.546875,"x_max":562.25,"ha":614,"o":"m 562 168 q 561 122 562 146 q 559 74 560 97 q 557 31 558 51 q 554 0 556 12 l 69 0 l 51 30 l 427 570 l 193 570 q 171 565 182 570 q 149 550 160 561 q 129 519 139 539 q 113 468 120 499 l 80 476 l 92 642 q 120 635 107 637 q 145 632 132 633 q 174 631 158 631 l 545 631 l 560 601 l 183 61 l 469 61 q 500 87 486 61 q 530 174 514 113 l 562 168 "},"Ḅ":{"x_min":27.5625,"x_max":689,"ha":764,"o":"m 280 818 q 261 817 270 818 q 241 817 251 817 l 241 492 l 264 492 q 389 507 341 492 q 463 546 437 522 q 499 599 490 569 q 509 658 509 629 q 497 721 509 692 q 460 772 486 750 q 389 805 433 793 q 280 818 346 818 m 352 441 q 292 437 320 441 q 241 430 265 434 l 241 70 q 247 59 241 64 q 273 53 258 55 q 304 49 288 51 q 335 47 319 48 q 364 47 350 47 q 452 59 413 47 q 520 94 491 72 q 563 148 548 116 q 578 218 578 180 q 564 294 578 255 q 524 366 551 334 q 454 420 496 399 q 352 441 411 441 m 689 241 q 666 137 689 183 q 602 57 643 90 q 504 7 561 25 q 378 -10 447 -10 q 343 -9 364 -10 q 298 -8 322 -9 q 250 -7 275 -7 q 201 -5 224 -6 q 83 0 144 -2 l 33 0 l 33 29 q 105 49 79 38 q 132 70 132 61 l 132 807 q 81 800 106 803 q 33 792 56 796 l 27 834 q 88 848 54 841 q 162 861 123 856 q 241 871 201 867 q 318 875 281 875 q 440 862 385 875 q 534 826 495 849 q 593 768 572 802 q 614 692 614 734 q 579 566 614 619 q 484 491 544 514 q 565 460 528 482 q 630 405 602 437 q 673 330 657 372 q 689 241 689 288 m 426 -189 q 420 -225 426 -208 q 403 -254 414 -242 q 378 -274 393 -267 q 347 -282 364 -282 q 303 -265 316 -282 q 290 -217 290 -248 q 296 -181 290 -198 q 313 -151 302 -164 q 338 -132 324 -139 q 368 -125 352 -125 q 426 -189 426 -125 "},"™":{"x_min":39.984375,"x_max":735.3125,"ha":776,"o":"m 117 547 l 117 563 q 149 573 141 568 q 158 581 158 577 l 158 827 l 83 827 q 75 825 79 827 q 69 819 72 823 q 62 806 66 814 q 52 783 58 797 l 39 787 q 40 802 39 793 q 42 821 41 811 q 45 841 44 831 q 48 855 47 850 l 314 855 l 322 848 q 321 833 321 842 q 319 815 320 824 q 317 797 318 805 q 314 783 316 789 l 302 783 q 293 815 297 804 q 278 827 289 827 l 207 827 l 207 581 q 214 573 207 578 q 247 563 221 568 l 247 547 l 117 547 m 729 838 q 698 832 715 838 l 700 578 q 708 571 700 575 q 735 563 717 566 l 735 547 l 616 547 l 616 563 q 643 571 633 566 q 654 578 654 575 l 651 787 l 542 547 l 523 547 l 413 786 l 411 578 q 419 571 411 575 q 445 563 427 566 l 445 547 l 340 547 l 340 563 q 366 571 358 566 q 375 578 375 575 l 377 831 q 359 836 368 835 q 343 838 350 838 l 343 855 l 421 855 q 428 851 426 855 q 437 833 431 847 l 538 621 l 636 833 q 644 851 642 848 q 653 855 647 855 l 729 855 l 729 838 "},"ặ":{"x_min":54,"x_max":628.765625,"ha":638,"o":"m 238 68 q 325 88 279 68 q 423 154 371 109 l 423 329 q 328 311 365 320 q 267 293 291 302 q 229 274 243 284 q 204 252 215 264 q 175 210 186 234 q 165 155 165 187 q 173 111 165 128 q 192 84 181 94 q 217 71 204 74 q 238 68 229 68 m 628 55 q 533 -2 571 15 q 476 -20 495 -20 q 439 11 454 -20 q 423 97 424 42 q 361 44 392 66 q 302 7 331 22 q 246 -13 272 -6 q 198 -20 220 -20 q 148 -11 174 -20 q 101 13 122 -3 q 67 59 81 31 q 54 126 54 87 q 72 212 54 177 q 115 272 90 246 q 152 302 131 288 q 207 330 172 317 q 293 356 241 344 q 423 380 344 368 l 423 475 q 417 518 423 498 q 399 553 412 538 q 364 575 386 568 q 309 583 342 583 q 266 575 287 582 q 229 556 245 568 q 205 527 214 544 q 198 490 196 511 q 184 476 199 484 q 150 462 170 469 q 110 453 130 456 q 83 452 91 450 l 73 478 q 121 543 89 512 q 194 598 153 574 q 280 636 235 622 q 369 651 326 651 q 484 612 444 651 q 525 503 525 573 l 525 120 q 532 80 525 92 q 552 68 539 68 q 576 71 561 68 q 618 86 591 74 l 628 55 m 380 -189 q 374 -225 380 -208 q 357 -254 368 -242 q 332 -274 346 -267 q 301 -282 318 -282 q 257 -265 270 -282 q 244 -217 244 -248 q 250 -181 244 -198 q 267 -151 256 -164 q 292 -132 278 -139 q 322 -125 306 -125 q 380 -189 380 -125 m 545 922 q 500 829 525 867 q 446 768 474 792 q 387 735 418 745 q 326 725 357 725 q 262 735 293 725 q 203 768 231 745 q 150 829 174 792 q 105 922 125 867 q 121 941 113 934 q 141 953 129 947 q 180 887 158 914 q 226 845 202 861 q 276 822 250 829 q 324 815 301 815 q 374 822 347 815 q 424 845 400 829 q 471 887 449 861 q 510 953 493 914 q 529 941 521 947 q 545 922 537 934 "},"Ř":{"x_min":27.5625,"x_max":771.921875,"ha":779,"o":"m 33 0 l 33 29 q 105 49 79 38 q 132 70 132 61 l 132 806 q 83 799 108 803 q 33 792 58 795 l 27 834 q 91 849 59 842 q 159 862 124 856 q 233 871 195 868 q 317 875 272 875 q 454 859 396 875 q 551 815 512 843 q 609 750 590 788 q 628 669 628 712 q 614 580 628 620 q 574 510 600 541 q 514 458 549 480 q 436 423 478 436 l 642 93 q 664 70 652 78 q 690 56 676 61 q 723 52 705 52 q 764 53 741 51 l 771 24 q 686 0 727 9 q 620 -10 646 -10 q 581 1 600 -10 q 553 27 563 12 l 348 408 q 331 406 339 406 l 312 406 q 277 408 295 406 q 241 414 259 410 l 241 70 q 265 50 241 62 q 339 29 289 38 l 339 0 l 33 0 m 293 818 q 241 816 267 818 l 241 468 q 272 464 259 465 q 301 464 286 464 q 465 511 408 464 q 523 648 523 558 q 509 716 523 685 q 468 770 496 748 q 396 805 440 792 q 293 818 353 818 m 389 943 l 316 943 l 137 1151 q 145 1162 142 1157 q 152 1170 149 1167 q 159 1176 155 1174 q 168 1183 162 1179 l 354 1039 l 537 1183 q 554 1170 549 1176 q 567 1151 558 1164 l 389 943 "},"Ň":{"x_min":33.65625,"x_max":867.34375,"ha":901,"o":"m 33 0 l 33 29 q 107 48 83 35 q 132 70 132 61 l 132 779 q 84 811 109 800 q 33 825 60 821 l 33 855 l 177 855 q 194 853 187 855 q 207 846 200 851 q 221 830 214 840 q 242 802 229 819 l 688 187 l 688 783 q 665 805 688 791 q 589 825 643 818 l 589 855 l 867 855 l 867 825 q 793 806 818 819 q 769 783 769 793 l 769 -20 q 716 -6 735 -15 q 689 14 697 3 l 213 673 l 213 70 q 235 49 213 62 q 311 29 258 36 l 311 0 l 33 0 m 487 943 l 415 943 l 236 1151 q 244 1162 240 1157 q 250 1170 247 1167 q 257 1176 253 1174 q 266 1183 261 1179 l 453 1039 l 636 1183 q 652 1170 647 1176 q 665 1151 657 1164 l 487 943 "},"ừ":{"x_min":27.515625,"x_max":851,"ha":851,"o":"m 851 707 q 840 662 851 688 q 803 608 830 637 q 733 549 777 579 q 621 491 688 519 l 621 172 q 624 104 621 130 q 636 70 627 77 q 664 68 644 65 q 718 86 683 71 l 725 55 q 676 25 699 39 q 634 1 653 11 q 599 -14 614 -8 q 576 -20 584 -20 q 537 11 552 -20 q 519 112 523 43 q 441 44 476 70 q 377 4 406 18 q 323 -14 347 -9 q 276 -20 298 -20 q 215 -11 244 -20 q 163 20 186 -2 q 128 84 141 44 q 115 189 115 125 l 115 482 q 112 532 115 514 q 102 559 110 550 q 76 572 93 568 q 27 579 58 575 l 27 606 q 73 613 51 609 q 114 622 94 617 q 155 635 134 627 q 197 651 175 642 l 217 624 l 217 226 q 224 147 217 179 q 244 96 231 115 q 277 69 257 77 q 320 61 296 61 q 365 67 342 61 q 412 87 388 73 q 462 123 436 101 q 519 177 489 145 l 519 482 q 515 531 519 513 q 502 559 512 549 q 473 574 492 570 q 424 579 455 578 l 424 606 q 517 625 472 612 q 600 651 562 638 l 621 625 l 620 538 q 672 568 650 553 q 707 599 693 584 q 727 627 721 614 q 734 652 734 641 q 723 689 734 671 q 694 722 713 707 l 815 777 q 841 744 831 762 q 851 707 851 726 m 446 731 q 429 718 438 722 q 408 710 420 713 l 170 965 l 185 993 q 205 998 191 995 q 232 1003 218 1000 q 261 1007 247 1005 q 284 1010 276 1009 l 446 731 "},"Ợ":{"x_min":48,"x_max":828,"ha":834,"o":"m 667 426 q 658 519 667 473 q 634 606 650 565 q 596 682 618 647 q 544 742 573 716 q 482 782 516 767 q 410 797 448 797 q 301 771 349 797 q 221 698 254 746 q 170 584 188 651 q 153 434 153 517 q 173 290 153 358 q 229 171 194 223 q 310 90 264 120 q 410 61 357 61 q 513 84 466 61 q 594 153 560 107 q 648 268 629 200 q 667 426 667 337 m 828 944 q 820 906 828 927 q 794 861 812 885 q 745 812 776 837 q 667 761 714 786 q 745 614 719 698 q 772 439 772 529 q 741 263 772 346 q 658 117 710 180 q 536 17 605 54 q 390 -20 467 -20 q 245 15 309 -20 q 137 112 181 51 q 71 251 94 172 q 48 415 48 329 q 77 590 48 507 q 159 737 107 674 q 280 837 210 800 q 429 875 349 875 q 542 853 492 875 q 634 796 593 832 q 693 846 675 821 q 711 889 711 871 q 700 926 711 908 q 671 959 690 944 l 792 1014 q 818 981 808 999 q 828 944 828 963 m 485 -189 q 479 -225 485 -208 q 462 -254 473 -242 q 437 -274 452 -267 q 406 -282 423 -282 q 362 -265 375 -282 q 349 -217 349 -248 q 355 -181 349 -198 q 372 -151 361 -164 q 397 -132 383 -139 q 427 -125 411 -125 q 485 -189 485 -125 "},"ƴ":{"x_min":-31.875,"x_max":936.625,"ha":685,"o":"m 275 601 q 232 595 248 598 q 206 586 215 591 q 196 574 197 581 q 198 555 194 566 l 365 123 l 537 599 q 603 733 567 680 q 678 818 640 786 q 755 862 717 849 q 826 875 793 875 q 867 871 847 875 q 902 863 887 868 q 927 852 917 858 q 936 839 936 845 q 929 823 936 835 q 910 797 921 811 q 884 770 898 783 q 857 748 870 756 q 831 761 843 756 q 809 767 819 765 q 789 769 798 769 l 773 769 q 730 757 752 769 q 687 724 708 745 q 646 670 666 702 q 612 598 627 639 l 366 -62 q 300 -196 337 -143 q 225 -281 264 -250 q 149 -326 187 -313 q 78 -339 111 -339 q 37 -335 57 -339 q 2 -327 17 -332 q -22 -316 -12 -322 q -31 -303 -31 -309 q -24 -287 -31 -299 q -5 -261 -16 -275 q 20 -233 6 -247 q 47 -212 33 -220 q 95 -231 73 -229 q 131 -234 116 -234 q 174 -222 152 -234 q 219 -188 197 -210 q 261 -134 241 -166 q 296 -61 280 -102 l 311 -19 l 88 555 q 65 584 82 574 q 13 601 47 594 l 13 631 l 275 631 l 275 601 "},"É":{"x_min":33.65625,"x_max":647.265625,"ha":689,"o":"m 647 165 q 633 63 641 107 q 619 0 624 19 l 33 0 l 33 29 q 105 49 79 38 q 132 70 132 61 l 132 783 q 107 804 132 791 q 33 825 82 816 l 33 855 l 580 855 l 603 838 q 599 799 601 820 q 592 757 596 778 q 583 717 588 736 q 575 685 579 698 l 544 685 q 539 737 543 716 q 527 771 534 758 q 511 788 521 783 q 489 794 501 794 l 241 794 l 241 499 l 515 499 l 533 480 q 520 459 527 470 q 503 438 512 448 q 486 418 495 427 q 470 404 478 410 q 448 421 460 414 q 421 433 437 428 q 385 439 406 437 q 336 442 365 442 l 241 442 l 241 104 q 245 86 241 94 q 265 72 250 78 q 307 64 280 67 q 379 61 334 61 l 466 61 q 520 64 498 61 q 559 79 542 67 q 589 114 576 91 q 618 177 603 137 l 647 165 m 250 927 q 234 938 239 931 q 220 957 229 944 l 482 1173 q 501 1162 489 1168 q 524 1148 512 1156 q 547 1134 537 1141 q 562 1122 557 1128 l 569 1092 l 250 927 "},"ṅ":{"x_min":37.046875,"x_max":745.953125,"ha":766,"o":"m 454 0 l 454 29 q 525 51 502 42 q 549 70 549 61 l 549 429 q 544 496 549 470 q 529 537 539 522 q 502 557 519 552 q 462 563 486 563 q 415 552 441 563 q 360 520 389 542 q 298 461 330 497 q 234 372 266 425 l 234 70 q 259 49 234 60 q 328 29 284 38 l 328 0 l 37 0 l 37 29 q 106 49 81 40 q 132 70 132 59 l 132 482 q 129 524 132 508 q 118 548 127 540 q 90 561 109 557 q 37 570 71 565 l 37 597 q 122 618 83 604 q 199 651 161 632 l 223 627 l 231 458 q 296 539 260 503 q 369 599 332 575 q 440 637 406 624 q 501 651 474 651 q 557 642 530 651 q 605 615 584 633 q 638 568 625 596 q 651 502 651 540 l 651 70 q 671 51 651 61 q 745 29 692 42 l 745 0 l 454 0 m 459 854 q 453 818 459 835 q 436 789 447 801 q 412 769 426 776 q 380 762 397 762 q 336 778 350 762 q 323 826 323 795 q 329 862 323 845 q 346 892 335 879 q 371 911 357 904 q 401 919 385 919 q 459 854 459 919 "},"³":{"x_min":25.5,"x_max":397,"ha":456,"o":"m 397 575 q 383 510 397 540 q 344 457 370 480 q 282 421 319 434 q 199 408 245 408 q 112 423 156 408 q 25 475 68 439 l 41 502 q 81 480 62 489 q 117 465 100 470 q 151 458 134 460 q 186 456 168 456 q 275 482 241 456 q 309 561 309 509 q 298 613 309 592 q 271 646 288 633 q 234 664 254 659 q 194 670 214 670 l 184 670 q 178 670 181 670 q 172 669 176 669 q 161 667 169 668 l 155 698 q 223 721 197 709 q 261 748 248 734 q 278 776 274 761 q 282 802 282 790 q 277 830 282 816 q 263 854 273 843 q 238 871 254 865 q 201 878 223 878 q 147 861 166 878 q 134 816 129 844 q 97 805 119 808 q 55 800 75 801 l 42 812 q 57 849 42 829 q 98 884 73 868 q 158 912 124 901 q 229 923 191 923 q 292 913 265 923 q 335 887 318 903 q 361 851 353 871 q 370 810 370 830 q 363 779 370 794 q 343 749 356 763 q 312 723 330 735 q 270 704 293 711 q 320 690 297 701 q 361 662 344 679 q 387 622 377 644 q 397 575 397 600 "},"Ṧ":{"x_min":79.515625,"x_max":600,"ha":661,"o":"m 600 255 q 591 193 600 225 q 567 130 583 161 q 525 72 550 99 q 467 24 501 45 q 391 -7 433 4 q 298 -20 349 -20 q 249 -15 276 -20 q 195 -2 223 -10 q 140 18 167 6 q 89 46 112 30 q 81 69 84 48 q 79 116 79 89 q 81 172 79 144 q 89 219 83 201 l 116 216 q 155 147 132 176 q 207 98 179 117 q 268 70 235 79 q 336 61 301 61 q 397 73 366 61 q 452 107 428 86 q 492 158 476 129 q 508 219 508 187 q 489 290 508 261 q 441 343 471 320 q 374 385 412 366 q 297 421 336 403 q 219 460 257 440 q 152 508 181 480 q 104 570 122 535 q 86 655 86 606 q 92 701 86 676 q 111 750 98 725 q 146 797 125 774 q 198 837 168 820 q 267 864 228 854 q 356 875 307 875 q 417 870 387 875 q 475 857 448 865 q 523 837 502 849 q 557 812 545 826 q 558 796 562 808 q 544 770 553 784 q 524 743 535 756 q 505 722 513 729 l 480 726 q 440 763 461 748 q 398 789 420 779 q 356 802 377 798 q 316 807 335 807 q 251 795 278 807 q 207 766 224 783 q 182 728 190 749 q 174 687 174 706 q 192 631 174 655 q 240 585 210 606 q 308 546 270 565 q 387 508 346 528 q 465 465 427 488 q 533 412 503 442 q 581 344 563 382 q 600 255 600 306 m 375 943 l 303 943 l 124 1151 q 132 1162 128 1157 q 138 1170 135 1167 q 145 1176 141 1174 q 154 1183 149 1179 l 341 1039 l 524 1183 q 540 1170 535 1176 q 553 1151 545 1164 l 375 943 m 407 1262 q 401 1226 407 1243 q 384 1197 395 1209 q 359 1177 374 1184 q 328 1170 345 1170 q 284 1186 297 1170 q 271 1235 271 1203 q 277 1270 271 1253 q 294 1300 283 1287 q 319 1319 305 1312 q 349 1327 333 1327 q 407 1262 407 1327 "},"ṗ":{"x_min":37.046875,"x_max":682,"ha":736,"o":"m 590 288 q 576 398 590 347 q 539 486 562 449 q 485 544 516 523 q 422 566 455 566 q 390 558 410 566 q 345 533 370 551 q 292 486 320 515 q 234 413 263 456 l 234 144 q 290 106 264 121 q 339 83 316 91 q 382 71 362 74 q 421 68 402 68 q 488 82 457 68 q 541 124 519 96 q 577 193 564 152 q 590 288 590 234 m 682 333 q 671 253 682 294 q 643 172 661 211 q 601 97 626 133 q 548 36 577 62 q 487 -4 519 10 q 422 -20 455 -20 q 332 2 382 -20 q 234 66 282 24 l 234 -254 q 259 -276 234 -265 q 348 -296 284 -287 l 348 -326 l 37 -326 l 37 -296 q 106 -276 81 -286 q 132 -254 132 -266 l 132 481 q 129 522 132 506 q 116 549 126 539 q 88 563 106 558 q 37 569 69 567 l 37 596 q 81 606 60 601 q 121 619 102 612 q 160 633 141 625 q 200 651 180 641 l 223 627 l 230 492 q 298 563 263 533 q 363 612 332 593 q 421 641 394 632 q 468 651 448 651 q 553 629 514 651 q 621 566 593 607 q 666 466 650 525 q 682 333 682 407 m 427 854 q 420 818 427 835 q 404 789 414 801 q 379 769 393 776 q 348 762 365 762 q 304 778 317 762 q 291 826 291 795 q 297 862 291 845 q 314 892 303 879 q 339 911 325 904 q 369 919 352 919 q 427 854 427 919 "},"[":{"x_min":95,"x_max":400.25,"ha":428,"o":"m 400 -168 q 391 -198 396 -182 q 380 -227 386 -215 l 95 -227 l 95 1085 l 376 1085 l 398 1067 q 390 1032 395 1050 q 380 1007 384 1015 l 190 1007 l 190 -149 l 376 -149 l 400 -168 "},"Ǹ":{"x_min":33.65625,"x_max":867.34375,"ha":901,"o":"m 33 0 l 33 29 q 107 48 83 35 q 132 70 132 61 l 132 779 q 84 811 109 800 q 33 825 60 821 l 33 855 l 177 855 q 194 853 187 855 q 207 846 200 851 q 221 830 214 840 q 242 802 229 819 l 688 187 l 688 783 q 665 805 688 791 q 589 825 643 818 l 589 855 l 867 855 l 867 825 q 793 806 818 819 q 769 783 769 793 l 769 -20 q 716 -6 735 -15 q 689 14 697 3 l 213 673 l 213 70 q 235 49 213 62 q 311 29 258 36 l 311 0 l 33 0 m 571 957 q 556 938 561 944 q 540 927 551 931 l 222 1092 l 227 1122 q 243 1134 232 1128 q 265 1148 253 1141 q 289 1162 278 1156 q 308 1173 301 1168 l 571 957 "},"Ḗ":{"x_min":33.65625,"x_max":647.265625,"ha":689,"o":"m 647 165 q 633 63 641 107 q 619 0 624 19 l 33 0 l 33 29 q 105 49 79 38 q 132 70 132 61 l 132 783 q 107 804 132 791 q 33 825 82 816 l 33 855 l 580 855 l 603 838 q 599 799 601 820 q 592 757 596 778 q 583 717 588 736 q 575 685 579 698 l 544 685 q 539 737 543 716 q 527 771 534 758 q 511 788 521 783 q 489 794 501 794 l 241 794 l 241 499 l 515 499 l 533 480 q 520 459 527 470 q 503 438 512 448 q 486 418 495 427 q 470 404 478 410 q 448 421 460 414 q 421 433 437 428 q 385 439 406 437 q 336 442 365 442 l 241 442 l 241 104 q 245 86 241 94 q 265 72 250 78 q 307 64 280 67 q 379 61 334 61 l 466 61 q 520 64 498 61 q 559 79 542 67 q 589 114 576 91 q 618 177 603 137 l 647 165 m 576 1058 q 571 1041 575 1051 q 564 1021 568 1031 q 556 1002 560 1012 q 550 987 552 993 l 132 987 l 118 1003 q 122 1020 119 1011 q 130 1040 126 1030 q 138 1059 134 1049 q 145 1075 142 1068 l 561 1075 l 576 1058 m 250 1144 q 234 1155 239 1148 q 220 1174 229 1161 l 482 1390 q 501 1379 489 1385 q 524 1365 512 1373 q 547 1352 537 1358 q 562 1339 557 1345 l 569 1309 l 250 1144 "},"∏":{"x_min":32.984375,"x_max":828.015625,"ha":875,"o":"m 32 0 l 32 29 q 105 49 79 38 q 132 70 132 61 l 132 783 q 106 804 132 791 q 32 825 81 816 l 32 855 l 828 855 l 828 825 q 755 804 781 816 q 729 783 729 793 l 729 70 q 753 50 729 62 q 828 29 778 38 l 828 0 l 521 0 l 521 29 q 593 49 567 38 q 620 70 620 61 l 620 751 q 610 767 620 759 q 584 782 601 775 q 540 793 566 789 q 481 798 514 798 l 368 798 q 313 792 337 797 q 273 782 289 788 q 249 767 257 775 q 241 751 241 759 l 241 70 q 265 50 241 62 q 339 29 289 38 l 339 0 l 32 0 "},"Ḥ":{"x_min":33.65625,"x_max":861.34375,"ha":908,"o":"m 33 0 l 33 29 q 105 49 79 38 q 132 70 132 61 l 132 783 q 107 804 132 791 q 33 825 82 816 l 33 855 l 339 855 l 339 825 q 267 804 293 816 q 241 783 241 793 l 241 478 l 654 478 l 654 783 q 629 804 654 791 q 555 825 604 816 l 555 855 l 861 855 l 861 825 q 789 804 815 816 q 763 783 763 793 l 763 70 q 787 50 763 62 q 861 29 812 38 l 861 0 l 555 0 l 555 29 q 627 49 601 38 q 654 70 654 61 l 654 417 l 241 417 l 241 70 q 265 50 241 62 q 339 29 289 38 l 339 0 l 33 0 m 515 -189 q 509 -225 515 -208 q 493 -254 503 -242 q 468 -274 482 -267 q 437 -282 454 -282 q 393 -265 406 -282 q 379 -217 379 -248 q 386 -181 379 -198 q 403 -151 392 -164 q 427 -132 413 -139 q 458 -125 441 -125 q 515 -189 515 -125 "},"ḥ":{"x_min":37.046875,"x_max":745.953125,"ha":766,"o":"m 454 0 l 454 29 q 525 51 502 42 q 549 70 549 61 l 549 429 q 543 496 549 470 q 528 537 538 522 q 500 557 517 552 q 462 563 484 563 q 411 550 438 563 q 353 514 383 538 q 293 455 324 491 q 234 372 263 419 l 234 70 q 259 49 234 60 q 328 29 284 38 l 328 0 l 37 0 l 37 29 q 106 49 81 40 q 132 70 132 58 l 132 880 q 129 924 132 908 q 117 949 127 940 q 88 961 107 958 q 37 969 69 965 l 37 996 q 88 1007 65 1002 q 132 1019 112 1013 q 170 1033 152 1025 q 208 1051 189 1040 l 234 1027 l 233 463 q 298 541 262 507 q 370 600 334 576 q 440 638 406 625 q 501 651 474 651 q 557 642 530 651 q 605 615 584 633 q 638 568 625 596 q 651 502 651 540 l 651 70 q 671 51 651 61 q 745 29 692 42 l 745 0 l 454 0 m 459 -189 q 453 -225 459 -208 q 436 -254 447 -242 q 412 -274 426 -267 q 380 -282 397 -282 q 336 -265 350 -282 q 323 -217 323 -248 q 329 -181 323 -198 q 346 -151 335 -164 q 371 -132 357 -139 q 401 -125 385 -125 q 459 -189 459 -125 "},"ˋ":{"x_min":0,"x_max":276.703125,"ha":277,"o":"m 276 731 q 259 718 267 722 q 238 710 250 713 l 0 965 l 14 993 q 34 998 21 995 q 62 1003 48 1000 q 91 1007 77 1005 q 113 1010 105 1009 l 276 731 "},"ğ":{"x_min":20,"x_max":670.8125,"ha":678,"o":"m 468 406 q 456 474 468 442 q 420 531 444 507 q 362 569 397 555 q 282 583 327 583 q 244 574 265 583 q 205 548 224 565 q 175 505 187 531 q 163 446 163 479 q 174 378 163 410 q 208 322 185 346 q 265 284 230 298 q 348 271 300 271 q 389 279 368 271 q 428 305 411 287 q 456 347 445 322 q 468 406 468 372 m 351 -2 q 303 3 325 0 q 263 10 282 6 q 186 -36 214 -15 q 143 -74 157 -57 q 125 -104 129 -90 q 122 -128 122 -118 q 140 -182 122 -157 q 191 -226 159 -208 q 265 -256 223 -245 q 353 -268 307 -268 q 436 -255 399 -268 q 500 -222 473 -243 q 541 -171 526 -200 q 556 -106 556 -141 q 547 -71 556 -87 q 515 -42 538 -55 q 452 -19 492 -29 q 351 -2 412 -9 m 563 434 q 539 339 563 382 q 478 265 516 296 q 392 217 440 234 q 294 200 343 200 l 291 200 q 246 154 259 172 q 234 132 234 136 q 241 116 234 124 q 268 102 248 109 q 321 87 287 94 q 408 74 355 80 q 530 50 482 66 q 607 12 578 33 q 646 -33 635 -8 q 658 -81 658 -57 q 643 -152 658 -118 q 605 -214 629 -185 q 547 -265 580 -242 q 476 -305 514 -288 q 397 -330 438 -321 q 316 -339 356 -339 q 250 -334 284 -339 q 183 -320 216 -330 q 120 -296 150 -311 q 68 -261 91 -282 q 33 -214 46 -240 q 20 -155 20 -188 q 26 -118 20 -137 q 52 -76 32 -98 q 107 -28 72 -54 q 201 28 142 -2 q 140 63 157 44 q 123 103 123 83 q 126 118 123 109 q 140 140 129 127 q 170 170 150 153 q 220 209 189 187 q 158 236 186 218 q 110 280 130 254 q 79 337 90 305 q 68 408 68 370 q 90 502 68 457 q 149 579 112 546 q 232 631 185 612 q 329 651 279 651 q 405 639 369 651 q 470 606 440 627 q 533 615 505 610 q 585 627 562 621 q 625 639 607 633 q 657 651 643 645 l 670 630 q 655 595 662 611 q 632 562 647 579 q 581 555 606 558 q 525 551 556 552 q 553 496 543 525 q 563 434 563 467 m 559 922 q 513 829 539 867 q 460 768 488 792 q 401 735 432 745 q 340 725 370 725 q 276 735 307 725 q 216 768 244 745 q 163 829 188 792 q 118 922 139 867 q 134 941 126 934 q 154 953 143 947 q 193 887 171 914 q 240 845 215 861 q 289 822 264 829 q 337 815 315 815 q 387 822 361 815 q 438 845 413 829 q 485 887 463 861 q 523 953 507 914 q 543 941 535 947 q 559 922 551 934 "},"Ở":{"x_min":48,"x_max":828,"ha":834,"o":"m 667 426 q 658 519 667 473 q 634 606 650 565 q 596 682 618 647 q 544 742 573 716 q 482 782 516 767 q 410 797 448 797 q 301 771 349 797 q 221 698 254 746 q 170 584 188 651 q 153 434 153 517 q 173 290 153 358 q 229 171 194 223 q 310 90 264 120 q 410 61 357 61 q 513 84 466 61 q 594 153 560 107 q 648 268 629 200 q 667 426 667 337 m 828 944 q 820 906 828 927 q 794 861 812 885 q 745 812 776 837 q 667 761 714 786 q 745 614 719 698 q 772 439 772 529 q 741 263 772 346 q 658 117 710 180 q 536 17 605 54 q 390 -20 467 -20 q 245 15 309 -20 q 137 112 181 51 q 71 251 94 172 q 48 415 48 329 q 77 590 48 507 q 159 737 107 674 q 280 837 210 800 q 429 875 349 875 q 542 853 492 875 q 634 796 593 832 q 693 846 675 821 q 711 889 711 871 q 700 926 711 908 q 671 959 690 944 l 792 1014 q 818 981 808 999 q 828 944 828 963 m 531 1121 q 518 1088 531 1103 q 489 1060 506 1073 q 456 1034 472 1046 q 433 1010 440 1023 q 432 984 425 997 q 467 953 438 970 q 446 945 457 947 q 425 943 435 944 q 380 970 394 957 q 362 993 365 982 q 366 1014 359 1004 q 384 1032 372 1023 q 409 1050 395 1041 q 436 1068 424 1059 q 456 1088 448 1078 q 465 1111 465 1099 q 452 1150 465 1137 q 420 1163 439 1163 q 401 1159 409 1163 q 386 1149 393 1155 q 377 1135 380 1143 q 374 1120 374 1128 q 375 1113 374 1117 q 379 1106 377 1110 q 365 1102 374 1104 q 347 1097 357 1099 q 328 1094 337 1095 q 311 1091 318 1092 l 304 1099 l 304 1108 q 317 1139 304 1124 q 350 1167 330 1155 q 394 1188 370 1180 q 442 1196 418 1196 q 508 1175 485 1196 q 531 1121 531 1155 "},"Ṙ":{"x_min":27.5625,"x_max":771.921875,"ha":779,"o":"m 33 0 l 33 29 q 105 49 79 38 q 132 70 132 61 l 132 806 q 83 799 108 803 q 33 792 58 795 l 27 834 q 91 849 59 842 q 159 862 124 856 q 233 871 195 868 q 317 875 272 875 q 454 859 396 875 q 551 815 512 843 q 609 750 590 788 q 628 669 628 712 q 614 580 628 620 q 574 510 600 541 q 514 458 549 480 q 436 423 478 436 l 642 93 q 664 70 652 78 q 690 56 676 61 q 723 52 705 52 q 764 53 741 51 l 771 24 q 686 0 727 9 q 620 -10 646 -10 q 581 1 600 -10 q 553 27 563 12 l 348 408 q 331 406 339 406 l 312 406 q 277 408 295 406 q 241 414 259 410 l 241 70 q 265 50 241 62 q 339 29 289 38 l 339 0 l 33 0 m 293 818 q 241 816 267 818 l 241 468 q 272 464 259 465 q 301 464 286 464 q 465 511 408 464 q 523 648 523 558 q 509 716 523 685 q 468 770 496 748 q 396 805 440 792 q 293 818 353 818 m 420 1045 q 414 1009 420 1026 q 398 980 408 992 q 373 960 387 967 q 342 953 359 953 q 298 969 311 953 q 284 1018 284 986 q 291 1053 284 1036 q 308 1083 297 1070 q 332 1102 318 1095 q 363 1110 346 1110 q 420 1045 420 1110 "},"ª":{"x_min":33,"x_max":348.484375,"ha":355,"o":"m 348 520 q 296 491 317 499 q 264 482 275 482 q 245 495 255 482 q 231 538 235 509 q 166 495 198 508 q 112 482 135 482 q 84 486 98 482 q 59 499 70 490 q 40 523 47 508 q 33 559 33 537 q 65 633 33 601 q 166 685 97 666 l 229 701 l 229 712 q 226 749 229 733 q 218 776 224 765 q 200 793 212 787 q 170 799 188 799 q 149 794 160 799 q 130 781 138 789 q 118 760 122 772 q 120 734 115 748 q 112 727 121 731 q 90 720 102 723 q 66 715 78 717 q 49 715 54 714 l 44 729 q 65 769 47 750 q 108 804 84 789 q 159 829 133 820 q 202 838 184 838 q 243 831 226 838 q 271 808 260 824 q 286 767 281 792 q 291 704 291 741 l 291 571 q 293 543 291 552 q 301 530 296 535 q 314 529 304 528 q 344 537 325 530 l 348 520 m 34 397 l 34 447 l 328 447 l 328 397 l 34 397 m 229 569 l 229 672 l 199 665 q 150 647 169 657 q 119 626 130 637 q 103 602 107 615 q 99 575 99 589 q 102 552 99 560 q 111 538 106 543 q 123 531 117 533 q 134 529 129 529 q 179 538 155 529 q 229 569 203 548 "},"T":{"x_min":6.34375,"x_max":734.5625,"ha":765,"o":"m 207 0 l 207 29 q 260 42 238 35 q 294 55 281 48 q 313 67 307 61 q 319 78 319 73 l 319 794 l 116 794 q 97 790 106 794 q 80 774 89 786 q 61 738 72 762 q 35 675 50 714 l 6 688 q 15 773 9 728 q 28 855 21 819 l 714 855 l 734 838 q 727 762 733 803 q 714 678 722 721 l 683 678 q 671 731 676 709 q 659 767 666 753 q 644 787 653 781 q 620 794 634 794 l 428 794 l 428 78 q 452 55 428 69 q 539 29 476 42 l 539 0 l 207 0 "},"š":{"x_min":54.25,"x_max":483.578125,"ha":536,"o":"m 474 192 q 460 109 474 144 q 425 51 446 75 q 377 13 403 28 q 325 -7 350 0 q 276 -17 299 -15 q 241 -20 254 -20 q 163 -7 208 -20 q 72 29 117 4 q 65 51 67 31 q 64 97 63 71 q 68 150 65 123 q 77 192 72 176 l 106 185 q 120 131 107 156 q 157 88 134 106 q 209 58 179 69 q 275 48 239 48 q 319 55 299 48 q 354 77 340 63 q 377 111 369 91 q 386 154 386 130 q 371 202 386 181 q 333 240 356 223 q 279 273 309 258 q 218 304 249 288 q 163 335 189 319 q 116 371 137 351 q 83 417 96 392 q 71 474 71 442 q 87 549 71 516 q 132 604 104 582 q 196 639 160 627 q 271 651 233 651 q 317 647 292 651 q 367 636 343 643 q 414 620 392 629 q 449 598 435 611 q 450 580 453 594 q 440 549 447 566 q 426 517 434 532 q 415 497 419 502 l 389 502 q 321 570 356 551 q 254 590 287 590 q 214 582 231 590 q 184 563 196 575 q 165 537 171 551 q 159 508 159 522 q 171 469 159 486 q 205 437 184 452 q 253 408 226 421 q 308 379 280 394 q 367 347 337 364 q 420 308 396 330 q 459 258 444 286 q 474 192 474 230 m 305 726 l 233 726 l 54 968 q 62 979 59 974 q 68 987 65 984 q 75 993 71 991 q 84 1000 79 996 l 271 829 l 454 1000 q 470 987 465 993 q 483 968 475 981 l 305 726 "},"":{"x_min":40.6875,"x_max":418.46875,"ha":459,"o":"m 418 247 q 408 215 415 232 q 398 186 402 198 l 57 186 l 40 204 q 49 234 44 217 q 61 264 55 250 l 401 264 l 418 247 m 418 422 q 408 391 415 409 l 398 363 l 57 363 l 40 380 q 49 410 44 393 q 61 440 55 427 l 401 440 l 418 422 "},"Þ":{"x_min":32.984375,"x_max":666,"ha":726,"o":"m 32 0 l 32 29 q 105 49 79 38 q 132 70 132 61 l 132 783 q 106 804 132 791 q 32 825 81 816 l 32 855 l 359 855 l 359 825 q 302 814 325 819 q 265 803 278 808 q 246 793 251 798 q 241 783 241 788 l 241 688 q 346 692 283 692 q 478 676 419 692 q 578 630 537 660 q 643 555 620 599 q 666 451 666 510 q 652 366 666 405 q 617 297 639 327 q 566 245 595 267 q 507 208 538 223 q 445 187 476 194 q 388 180 414 180 q 329 185 357 180 q 279 202 302 190 l 263 250 q 318 234 292 237 q 368 231 344 231 q 433 243 399 231 q 495 279 467 255 q 542 339 524 303 q 561 424 561 376 q 541 520 561 480 q 486 585 521 560 q 405 623 451 611 q 307 635 359 635 q 241 633 273 635 l 241 70 q 246 61 241 66 q 265 51 251 56 q 301 40 278 46 q 359 29 324 35 l 359 0 l 32 0 "},"j":{"x_min":-149.234375,"x_max":261,"ha":359,"o":"m 241 67 q 231 -65 241 -10 q 203 -158 221 -119 q 162 -223 186 -196 q 111 -271 139 -249 q 73 -297 93 -285 q 32 -319 52 -310 q -5 -333 12 -328 q -36 -339 -23 -339 q -77 -333 -57 -339 q -113 -321 -97 -328 q -139 -305 -129 -313 q -149 -291 -149 -297 q -139 -275 -149 -285 q -116 -253 -129 -264 q -87 -231 -102 -241 q -63 -216 -73 -221 q -18 -241 -41 -235 q 30 -247 4 -247 q 69 -234 50 -247 q 104 -190 88 -221 q 129 -106 120 -159 q 139 29 139 -52 l 139 454 q 137 510 139 489 q 126 542 135 531 q 98 560 117 554 q 44 569 79 565 l 44 596 q 94 607 72 601 q 136 620 116 613 q 175 634 156 626 q 215 651 194 642 l 241 651 l 241 67 m 261 854 q 254 818 261 835 q 238 789 248 801 q 213 769 227 776 q 183 762 199 762 q 138 778 152 762 q 125 826 125 795 q 131 862 125 845 q 148 892 137 879 q 172 911 158 904 q 203 919 187 919 q 261 854 261 919 "},"1":{"x_min":93.84375,"x_max":569.546875,"ha":652,"o":"m 114 0 l 114 35 q 203 49 167 42 q 259 65 238 57 q 289 81 280 73 q 298 96 298 89 l 298 637 q 295 679 298 664 q 285 703 293 694 q 270 710 281 707 q 237 712 258 713 q 184 707 216 711 q 108 694 152 703 l 93 728 q 161 751 122 736 q 240 781 200 765 q 316 815 280 798 q 374 844 352 831 l 400 820 l 400 96 q 407 82 400 90 q 433 66 414 74 q 485 50 452 58 q 569 35 518 42 l 569 0 l 114 0 "},"ɣ":{"x_min":13.796875,"x_max":670.875,"ha":685,"o":"m 334 28 q 296 -50 311 -17 q 272 -106 281 -83 q 260 -144 263 -128 q 257 -170 257 -159 q 264 -217 257 -198 q 283 -247 271 -236 q 308 -263 294 -259 q 336 -268 322 -268 q 361 -261 349 -268 q 384 -245 374 -255 q 401 -220 395 -234 q 408 -191 408 -206 q 405 -155 408 -172 q 396 -119 403 -139 q 379 -72 390 -99 q 350 -5 368 -46 l 334 28 m 670 601 q 637 592 650 597 q 617 583 625 588 q 605 571 609 578 q 596 555 601 565 l 394 149 l 430 72 q 463 0 449 32 q 485 -56 476 -30 q 498 -107 494 -82 q 502 -159 502 -131 q 491 -215 502 -184 q 460 -274 481 -246 q 406 -320 438 -301 q 327 -339 373 -339 q 271 -328 297 -339 q 224 -298 244 -317 q 193 -252 205 -279 q 182 -192 182 -225 q 184 -157 182 -175 q 194 -116 187 -138 q 214 -63 202 -93 q 247 6 227 -33 l 297 108 l 89 555 q 64 583 81 573 q 13 601 47 594 l 13 631 l 275 631 l 275 601 q 233 594 249 598 q 209 585 217 590 q 200 573 200 580 q 204 555 199 565 l 356 230 l 515 555 q 518 572 520 565 q 509 584 517 579 q 485 594 501 590 q 444 601 469 597 l 444 631 l 670 631 l 670 601 "},"ɩ":{"x_min":33.375,"x_max":405.984375,"ha":392,"o":"m 405 91 q 341 37 371 59 q 287 3 312 15 q 244 -14 263 -9 q 212 -20 225 -20 q 170 -10 186 -20 q 145 18 154 -1 q 132 67 135 37 q 129 137 129 97 l 129 454 q 127 510 129 489 q 117 543 126 531 q 89 560 109 555 q 33 569 70 566 l 33 596 q 78 606 54 600 q 124 619 101 612 q 169 634 148 626 q 207 651 190 642 l 231 651 l 231 205 q 233 133 231 159 q 240 93 235 106 q 256 75 246 79 q 281 72 265 72 q 319 83 288 72 q 395 126 351 95 l 405 91 "},"Ǜ":{"x_min":33.65625,"x_max":864.34375,"ha":908,"o":"m 864 825 q 792 804 818 816 q 766 783 766 793 l 766 355 q 744 197 766 266 q 681 79 722 127 q 582 5 641 30 q 451 -20 524 -20 q 322 0 381 -20 q 221 58 264 18 q 155 158 179 98 q 132 301 132 218 l 132 783 q 107 804 132 791 q 33 825 82 816 l 33 855 l 339 855 l 339 825 q 267 804 293 816 q 241 783 241 793 l 241 335 q 256 218 241 270 q 301 131 271 167 q 375 76 331 95 q 478 58 419 58 q 563 81 526 58 q 626 142 600 104 q 664 229 651 180 q 678 327 678 277 l 678 783 q 653 804 678 791 q 579 825 628 816 l 579 855 l 864 855 l 864 825 m 662 1045 q 656 1009 662 1026 q 639 980 650 992 q 614 960 629 967 q 583 953 600 953 q 539 969 552 953 q 526 1018 526 986 q 532 1053 526 1036 q 549 1083 538 1070 q 574 1102 560 1095 q 604 1110 588 1110 q 662 1045 662 1110 m 391 1045 q 385 1009 391 1026 q 368 980 379 992 q 343 960 358 967 q 312 953 329 953 q 268 969 281 953 q 255 1018 255 986 q 261 1053 255 1036 q 278 1083 267 1070 q 303 1102 289 1095 q 333 1110 317 1110 q 391 1045 391 1110 m 579 1174 q 564 1155 569 1161 q 548 1144 559 1148 l 230 1309 l 236 1339 q 251 1352 240 1345 q 274 1365 261 1358 q 297 1379 286 1373 q 316 1390 309 1385 l 579 1174 "},"ǒ":{"x_min":54,"x_max":645,"ha":699,"o":"m 540 308 q 522 410 540 362 q 476 495 504 458 q 413 554 448 532 q 343 576 378 576 q 256 556 291 576 q 199 502 220 536 q 168 421 178 468 q 159 320 159 375 q 178 219 159 267 q 226 134 197 170 q 289 76 254 97 q 355 55 324 55 q 438 72 403 55 q 495 124 473 90 q 529 203 518 157 q 540 308 540 250 m 645 329 q 633 240 645 283 q 601 158 621 196 q 552 86 581 119 q 489 30 524 53 q 416 -6 455 6 q 336 -20 378 -20 q 220 4 272 -20 q 131 71 168 28 q 74 173 94 114 q 54 301 54 232 q 65 389 54 346 q 96 471 76 432 q 144 543 116 510 q 207 600 172 576 q 281 637 241 623 q 363 651 320 651 q 478 626 426 651 q 567 559 530 602 q 624 457 604 516 q 645 329 645 398 m 399 726 l 326 726 l 147 968 q 155 979 152 974 q 162 987 159 984 q 169 993 165 991 q 178 1000 172 996 l 364 829 l 548 1000 q 564 987 559 993 q 577 968 569 981 l 399 726 "},"ĉ":{"x_min":54,"x_max":569.71875,"ha":607,"o":"m 569 129 q 492 47 525 76 q 430 2 458 17 q 374 -16 401 -12 q 315 -20 347 -20 q 218 2 265 -20 q 134 65 171 24 q 76 166 98 106 q 54 301 54 226 q 80 438 54 374 q 154 548 107 501 q 263 623 200 596 q 400 651 326 651 q 445 647 422 651 q 490 636 469 643 q 530 619 512 629 q 559 597 548 609 q 557 574 560 588 q 548 542 554 559 q 534 510 541 525 q 520 485 527 495 l 495 492 q 478 519 490 504 q 446 546 465 533 q 400 567 427 559 q 339 576 373 576 q 270 560 303 576 q 211 512 237 544 q 171 433 186 480 q 156 322 156 385 q 173 217 156 264 q 219 137 190 170 q 285 85 248 103 q 364 68 323 68 q 399 69 383 68 q 435 80 415 71 q 479 106 454 89 q 543 156 505 124 l 569 129 m 546 740 q 533 721 538 727 q 517 710 529 715 l 331 891 l 147 710 q 138 715 142 712 q 131 721 134 718 q 125 729 128 724 q 117 740 122 734 l 296 998 l 368 998 l 546 740 "},"Ɔ":{"x_min":41,"x_max":691,"ha":745,"o":"m 691 460 q 662 264 691 352 q 581 113 633 176 q 459 14 530 49 q 305 -20 389 -20 q 189 -1 239 -20 q 106 48 140 17 q 57 114 73 78 q 41 186 41 151 q 49 241 41 214 q 81 293 58 267 q 113 308 96 301 q 146 322 129 315 q 178 334 163 328 q 205 343 192 339 l 220 310 q 189 287 201 298 q 170 263 177 276 q 161 236 163 251 q 159 203 159 222 q 171 152 159 178 q 207 106 184 127 q 263 71 230 85 q 336 58 296 58 q 429 77 384 58 q 509 140 474 96 q 564 256 543 184 q 586 434 586 329 q 559 592 586 525 q 492 706 533 660 q 400 774 450 751 q 301 797 350 797 q 260 792 282 797 q 209 778 237 788 q 146 749 180 767 q 71 702 112 731 q 64 708 68 704 q 57 717 60 712 q 51 726 53 722 q 47 733 48 731 q 132 806 92 778 q 209 849 172 834 q 280 869 246 864 q 348 875 313 875 q 473 847 412 875 q 583 766 535 819 q 661 635 631 712 q 691 460 691 558 "},"ī":{"x_min":25.09375,"x_max":375.0625,"ha":376,"o":"m 47 0 l 47 29 q 117 49 93 38 q 142 70 142 61 l 142 454 q 140 510 142 488 q 130 543 139 531 q 102 560 121 555 q 47 569 83 566 l 47 596 q 91 606 68 600 q 137 619 114 612 q 182 634 161 626 q 220 651 203 642 l 244 651 l 244 70 q 266 50 244 62 q 338 29 289 38 l 338 0 l 47 0 m 375 868 q 370 851 373 861 q 362 831 366 841 q 355 812 358 822 q 348 797 351 803 l 40 797 l 25 813 q 29 830 26 821 q 37 850 33 840 q 45 869 41 859 q 52 885 49 878 l 360 885 l 375 868 "},"Ď":{"x_min":27.5625,"x_max":761,"ha":823,"o":"m 307 818 q 241 816 273 818 l 241 104 q 248 80 241 89 q 284 62 257 68 q 364 57 311 57 q 460 79 411 57 q 551 148 510 102 q 619 265 593 195 q 646 432 646 336 q 623 593 646 522 q 558 715 601 665 q 451 791 515 765 q 307 818 388 818 m 761 458 q 743 306 761 373 q 697 188 726 240 q 629 102 668 137 q 548 43 591 66 q 462 10 506 21 q 378 0 418 0 l 33 0 l 33 29 q 105 49 79 38 q 132 70 132 61 l 132 805 q 80 799 104 802 q 33 792 56 795 l 27 834 q 96 849 57 842 q 178 863 135 857 q 266 871 222 868 q 350 875 310 875 q 521 846 445 875 q 650 765 596 818 q 732 634 703 711 q 761 458 761 556 m 409 943 l 337 943 l 158 1151 q 166 1162 162 1157 q 172 1170 169 1167 q 179 1176 175 1174 q 188 1183 183 1179 l 375 1039 l 558 1183 q 574 1170 569 1176 q 587 1151 579 1164 l 409 943 "},"&":{"x_min":54,"x_max":912.4375,"ha":926,"o":"m 301 766 q 312 684 301 727 q 344 596 324 641 q 420 648 390 622 q 466 699 449 674 q 488 748 482 724 q 495 794 495 771 q 488 839 495 818 q 470 876 482 860 q 440 901 458 892 q 399 911 422 911 q 356 898 374 911 q 325 865 337 885 q 307 819 313 845 q 301 766 301 792 m 357 57 q 463 75 415 57 q 550 124 511 93 q 480 200 516 159 q 410 286 444 241 q 344 379 376 331 q 288 476 313 427 q 229 419 253 446 q 191 363 206 391 q 170 308 176 336 q 164 253 164 281 q 180 168 164 205 q 223 107 196 132 q 285 69 250 82 q 357 57 320 57 m 912 507 q 878 472 895 486 q 845 447 862 458 q 817 458 833 453 q 785 466 801 462 q 755 472 770 470 q 728 475 740 474 q 740 452 736 462 q 747 429 744 441 q 750 402 749 417 q 751 368 751 388 q 729 266 751 320 q 670 162 708 213 q 756 86 717 117 q 812 57 782 64 q 881 60 841 50 l 887 30 q 787 -7 828 5 q 732 -20 747 -20 q 680 7 717 -20 q 594 81 643 34 q 476 8 541 36 q 337 -20 411 -20 q 222 -3 274 -20 q 132 45 169 13 q 74 126 95 78 q 54 239 54 175 q 67 316 54 277 q 106 394 81 355 q 170 470 132 433 q 257 542 208 507 q 226 637 238 590 q 215 728 215 683 q 233 830 215 783 q 282 911 251 876 q 352 964 312 945 q 434 984 392 984 q 507 970 478 984 q 555 933 537 956 q 581 879 573 909 q 589 816 589 849 q 544 683 589 745 q 419 571 500 621 q 395 555 406 562 q 372 539 383 547 q 425 451 396 495 q 488 364 455 407 q 556 282 521 322 q 625 206 591 241 q 657 275 646 240 q 669 340 669 309 q 659 393 669 368 q 634 437 650 419 q 599 467 619 456 q 560 478 580 478 l 545 497 q 567 516 553 506 q 595 532 582 526 l 896 532 l 912 507 "},"ṻ":{"x_min":27.515625,"x_max":725.4375,"ha":736,"o":"m 725 55 q 677 25 700 39 q 634 1 654 11 q 599 -14 614 -8 q 576 -20 584 -20 q 538 11 553 -20 q 519 112 523 43 q 441 44 476 70 q 377 4 406 18 q 323 -14 347 -9 q 276 -20 298 -20 q 215 -11 244 -20 q 163 21 186 -2 q 128 85 141 44 q 115 189 115 125 l 115 482 q 112 532 115 514 q 102 559 110 550 q 76 572 93 568 q 27 579 58 575 l 27 606 q 73 613 51 608 q 114 622 94 617 q 155 635 134 627 q 197 651 175 642 l 217 624 l 217 226 q 224 147 217 179 q 244 96 231 115 q 277 69 257 77 q 320 61 296 61 q 365 67 342 61 q 412 87 388 73 q 462 123 436 101 q 519 177 489 145 l 519 482 q 515 530 519 512 q 502 559 512 549 q 473 573 492 569 q 424 579 455 577 l 424 606 q 517 625 472 612 q 600 651 562 638 l 621 624 l 621 172 q 624 104 621 130 q 636 70 627 77 q 664 68 644 65 q 718 86 684 71 l 725 55 m 605 868 q 600 851 604 861 q 593 831 597 841 q 585 812 589 822 q 579 797 581 803 l 162 797 l 147 813 q 151 830 148 821 q 159 850 155 840 q 167 869 163 859 q 174 885 171 878 l 590 885 l 605 868 m 572 1098 q 566 1063 572 1079 q 550 1033 560 1046 q 525 1013 539 1021 q 494 1006 511 1006 q 450 1023 463 1006 q 436 1071 436 1040 q 443 1106 436 1090 q 460 1136 449 1123 q 484 1156 470 1148 q 515 1163 498 1163 q 572 1098 572 1163 m 301 1098 q 295 1063 301 1079 q 279 1033 289 1046 q 254 1013 268 1021 q 223 1006 240 1006 q 179 1023 192 1006 q 165 1071 165 1040 q 172 1106 165 1090 q 189 1136 178 1123 q 213 1156 199 1148 q 244 1163 227 1163 q 301 1098 301 1163 "},"G":{"x_min":47,"x_max":777.203125,"ha":810,"o":"m 707 805 q 705 792 711 802 q 688 770 699 782 q 663 746 677 757 q 641 726 650 734 l 619 730 q 573 765 596 751 q 523 786 549 778 q 467 796 497 793 q 405 800 438 800 q 362 792 388 800 q 309 767 337 784 q 253 721 281 749 q 202 652 225 693 q 165 556 179 611 q 152 431 152 502 q 177 267 152 337 q 243 152 202 197 q 334 83 283 106 q 437 61 385 61 q 528 70 487 61 q 604 98 570 80 l 604 328 q 597 343 604 336 q 575 357 591 350 q 532 370 559 364 q 464 384 505 377 l 464 413 l 777 413 l 777 384 q 722 359 738 375 q 706 328 706 344 l 706 104 q 615 38 655 63 q 542 1 576 14 q 479 -15 509 -11 q 419 -20 449 -20 q 284 5 350 -20 q 164 82 217 30 q 79 212 112 134 q 47 394 47 289 q 82 596 47 507 q 180 747 118 685 q 324 842 241 809 q 499 875 406 875 q 549 870 522 875 q 603 856 575 865 q 658 834 631 847 q 707 805 685 821 "},"`":{"x_min":20.34375,"x_max":297.0625,"ha":443,"o":"m 297 731 q 280 719 290 725 q 259 710 270 713 l 20 965 l 35 993 q 55 997 42 995 q 83 1002 68 999 q 111 1007 97 1005 q 134 1010 126 1009 l 297 731 "},"ỗ":{"x_min":54,"x_max":645,"ha":699,"o":"m 540 308 q 522 410 540 362 q 476 495 504 458 q 413 554 448 532 q 343 576 378 576 q 256 556 291 576 q 199 502 220 536 q 168 421 178 468 q 159 320 159 375 q 178 219 159 267 q 226 134 197 170 q 289 76 254 97 q 355 55 324 55 q 438 72 403 55 q 495 124 473 90 q 529 203 518 157 q 540 308 540 250 m 645 329 q 633 240 645 283 q 601 158 621 196 q 552 86 581 119 q 489 30 524 53 q 416 -6 455 6 q 336 -20 378 -20 q 220 4 272 -20 q 131 71 168 28 q 74 173 94 114 q 54 301 54 232 q 65 389 54 346 q 96 471 76 432 q 144 543 116 510 q 207 600 172 576 q 281 637 241 623 q 363 651 320 651 q 478 626 426 651 q 567 559 530 602 q 624 457 604 516 q 645 329 645 398 m 577 740 q 564 721 569 727 q 548 710 559 715 l 362 891 l 178 710 q 169 715 172 712 q 162 721 165 718 q 155 729 159 724 q 147 740 152 734 l 326 998 l 399 998 l 577 740 m 594 1217 q 564 1162 581 1189 q 527 1113 548 1135 q 482 1078 506 1092 q 431 1065 457 1065 q 386 1077 407 1065 q 344 1103 364 1089 q 304 1130 324 1118 q 264 1142 284 1142 q 215 1120 237 1142 q 167 1060 192 1098 l 131 1073 q 160 1129 143 1101 q 198 1178 177 1156 q 243 1213 219 1200 q 293 1227 267 1227 q 342 1215 319 1227 q 385 1188 365 1203 q 424 1162 406 1174 q 459 1150 442 1150 q 509 1171 484 1150 q 557 1233 534 1193 l 594 1217 "},"Ễ":{"x_min":33.65625,"x_max":647.265625,"ha":689,"o":"m 647 165 q 633 63 641 107 q 619 0 624 19 l 33 0 l 33 29 q 105 49 79 38 q 132 70 132 61 l 132 783 q 107 804 132 791 q 33 825 82 816 l 33 855 l 580 855 l 603 838 q 599 799 601 820 q 592 757 596 778 q 583 717 588 736 q 575 685 579 698 l 544 685 q 539 737 543 716 q 527 771 534 758 q 511 788 521 783 q 489 794 501 794 l 241 794 l 241 499 l 515 499 l 533 480 q 520 459 527 470 q 503 438 512 448 q 486 418 495 427 q 470 404 478 410 q 448 421 460 414 q 421 433 437 428 q 385 439 406 437 q 336 442 365 442 l 241 442 l 241 104 q 245 86 241 94 q 265 72 250 78 q 307 64 280 67 q 379 61 334 61 l 466 61 q 520 64 498 61 q 559 79 542 67 q 589 114 576 91 q 618 177 603 137 l 647 165 m 554 957 q 541 938 546 944 q 525 927 537 932 l 339 1068 l 156 927 q 146 932 150 929 q 140 938 143 935 q 133 946 137 941 q 125 957 130 951 l 304 1167 l 377 1167 l 554 957 m 571 1374 q 542 1319 559 1346 q 504 1270 525 1292 q 459 1234 484 1248 q 408 1221 435 1221 q 363 1233 385 1221 q 322 1259 342 1245 q 281 1286 301 1274 q 242 1298 261 1298 q 192 1276 215 1298 q 145 1216 170 1254 l 109 1229 q 138 1285 121 1257 q 175 1334 154 1312 q 220 1369 196 1356 q 271 1383 244 1383 q 320 1371 297 1383 q 363 1344 343 1359 q 402 1318 383 1330 q 436 1306 420 1306 q 487 1327 462 1306 q 535 1389 512 1349 l 571 1374 "},"ằ":{"x_min":54,"x_max":628.765625,"ha":638,"o":"m 238 68 q 325 88 279 68 q 423 154 371 109 l 423 329 q 328 311 365 320 q 267 293 291 302 q 229 274 243 284 q 204 252 215 264 q 175 210 186 234 q 165 155 165 187 q 173 111 165 128 q 192 84 181 94 q 217 71 204 74 q 238 68 229 68 m 628 55 q 533 -2 571 15 q 476 -20 495 -20 q 439 11 454 -20 q 423 97 424 42 q 361 44 392 66 q 302 7 331 22 q 246 -13 272 -6 q 198 -20 220 -20 q 148 -11 174 -20 q 101 13 122 -3 q 67 59 81 31 q 54 126 54 87 q 72 212 54 177 q 115 272 90 246 q 152 302 131 288 q 207 330 172 317 q 293 356 241 344 q 423 380 344 368 l 423 475 q 417 518 423 498 q 399 553 412 538 q 364 575 386 568 q 309 583 342 583 q 266 575 287 582 q 229 556 245 568 q 205 527 214 544 q 198 490 196 511 q 184 476 199 484 q 150 462 170 469 q 110 453 130 456 q 83 452 91 450 l 73 478 q 121 543 89 512 q 194 598 153 574 q 280 636 235 622 q 369 651 326 651 q 484 612 444 651 q 525 503 525 573 l 525 120 q 532 80 525 92 q 552 68 539 68 q 576 71 561 68 q 618 86 591 74 l 628 55 m 545 922 q 500 829 525 867 q 446 768 474 792 q 387 735 418 745 q 326 725 357 725 q 262 735 293 725 q 203 768 231 745 q 150 829 174 792 q 105 922 125 867 q 121 941 113 934 q 141 953 129 947 q 180 887 158 914 q 226 845 202 861 q 276 822 250 829 q 324 815 301 815 q 374 822 347 815 q 424 845 400 829 q 471 887 449 861 q 510 953 493 914 q 529 941 521 947 q 545 922 537 934 m 402 948 q 385 935 394 939 q 364 927 376 930 l 126 1182 l 141 1210 q 161 1215 147 1212 q 188 1220 174 1217 q 217 1224 203 1222 q 240 1227 231 1226 l 402 948 "},"ŏ":{"x_min":54,"x_max":645,"ha":699,"o":"m 540 308 q 522 410 540 362 q 476 495 504 458 q 413 554 448 532 q 343 576 378 576 q 256 556 291 576 q 199 502 220 536 q 168 421 178 468 q 159 320 159 375 q 178 219 159 267 q 226 134 197 170 q 289 76 254 97 q 355 55 324 55 q 438 72 403 55 q 495 124 473 90 q 529 203 518 157 q 540 308 540 250 m 645 329 q 633 240 645 283 q 601 158 621 196 q 552 86 581 119 q 489 30 524 53 q 416 -6 455 6 q 336 -20 378 -20 q 220 4 272 -20 q 131 71 168 28 q 74 173 94 114 q 54 301 54 232 q 65 389 54 346 q 96 471 76 432 q 144 543 116 510 q 207 600 172 576 q 281 637 241 623 q 363 651 320 651 q 478 626 426 651 q 567 559 530 602 q 624 457 604 516 q 645 329 645 398 m 583 922 q 537 829 562 867 q 483 768 512 792 q 425 735 455 745 q 364 725 394 725 q 299 735 330 725 q 240 768 268 745 q 187 829 212 792 q 142 922 162 867 q 158 941 150 934 q 178 953 166 947 q 217 887 195 914 q 263 845 239 861 q 313 822 288 829 q 361 815 339 815 q 411 822 385 815 q 462 845 437 829 q 509 887 486 861 q 547 953 531 914 q 567 941 558 947 q 583 922 575 934 "},"Ả":{"x_min":0,"x_max":812.515625,"ha":827,"o":"m 514 363 l 394 711 l 278 363 l 514 363 m 258 302 l 183 75 q 201 44 176 54 q 282 29 226 35 l 282 0 l 0 0 l 0 29 q 73 46 46 37 q 107 75 100 54 l 359 838 q 398 869 375 855 q 438 893 421 883 l 723 75 q 733 58 727 65 q 749 45 739 50 q 775 35 759 40 q 812 29 790 31 l 812 0 l 526 0 l 526 29 q 599 42 579 32 q 612 75 619 52 l 535 302 l 258 302 m 520 1121 q 508 1088 520 1103 q 478 1060 495 1073 q 445 1034 461 1046 q 422 1010 429 1023 q 421 984 414 997 q 456 953 427 970 q 435 945 446 947 q 414 943 424 944 q 369 970 384 957 q 351 993 354 982 q 355 1014 348 1004 q 373 1032 361 1023 q 398 1050 384 1041 q 425 1068 413 1059 q 446 1088 437 1078 q 454 1111 454 1099 q 441 1150 454 1137 q 409 1163 428 1163 q 390 1159 399 1163 q 376 1149 382 1155 q 366 1135 370 1143 q 363 1120 363 1128 q 364 1113 363 1117 q 368 1106 366 1110 q 354 1102 363 1104 q 336 1097 346 1099 q 317 1094 326 1095 q 301 1091 307 1092 l 293 1099 l 293 1108 q 306 1139 293 1124 q 339 1167 319 1155 q 383 1188 359 1180 q 431 1196 408 1196 q 497 1175 474 1196 q 520 1121 520 1155 "},"ý":{"x_min":-31.875,"x_max":670.765625,"ha":685,"o":"m 670 601 q 637 593 650 597 q 616 583 624 588 q 603 572 608 578 q 596 555 599 565 l 369 -55 q 306 -184 341 -130 q 233 -272 271 -237 q 158 -322 196 -306 q 86 -339 120 -339 q 38 -335 60 -339 q 1 -327 16 -332 q -23 -315 -14 -322 q -31 -303 -31 -309 q -23 -286 -31 -298 q -3 -259 -15 -274 q 22 -231 8 -245 q 47 -211 36 -218 q 112 -231 80 -230 q 169 -223 144 -233 q 198 -204 181 -219 q 230 -168 214 -189 q 263 -118 247 -146 q 291 -62 279 -91 l 311 -15 l 88 555 q 65 584 82 574 q 13 601 47 594 l 13 631 l 275 631 l 275 601 q 232 595 248 598 q 206 586 215 591 q 196 574 197 581 q 198 555 194 566 l 365 123 l 522 555 q 523 573 525 565 q 511 585 520 580 q 485 594 502 590 q 444 601 469 597 l 444 631 l 670 631 l 670 601 m 330 710 q 308 717 318 712 q 291 729 299 722 l 450 1010 q 471 1007 458 1009 q 499 1003 484 1005 q 527 999 514 1001 q 548 994 541 996 l 564 967 l 330 710 "},"º":{"x_min":33,"x_max":358,"ha":392,"o":"m 294 656 q 285 710 294 684 q 261 755 276 736 q 226 786 246 774 q 184 798 206 798 q 148 787 164 798 q 120 759 132 777 q 103 716 109 740 q 97 662 97 691 q 106 608 97 634 q 131 563 115 582 q 166 532 146 544 q 206 521 185 521 q 240 531 224 521 q 268 559 256 541 q 287 602 280 578 q 294 656 294 627 m 41 397 l 41 447 l 350 447 l 350 397 l 41 397 m 358 666 q 342 598 358 632 q 303 539 327 565 q 247 497 278 513 q 184 482 216 482 q 122 494 150 482 q 74 530 94 507 q 43 584 54 553 q 33 653 33 615 q 46 721 33 688 q 83 780 60 755 q 139 822 107 806 q 206 838 170 838 q 267 825 239 838 q 315 789 294 812 q 346 735 335 766 q 358 666 358 703 "},"∞":{"x_min":54,"x_max":864,"ha":918,"o":"m 232 288 q 272 291 255 288 q 308 303 290 294 q 349 329 327 312 q 401 374 371 346 q 371 412 388 392 q 333 447 354 432 q 286 473 312 463 q 229 483 260 483 q 177 474 197 483 q 147 450 158 464 q 132 420 136 436 q 129 391 129 404 q 135 360 129 377 q 154 326 141 342 q 187 299 167 310 q 232 288 206 288 m 685 494 q 644 489 663 494 q 605 475 625 485 q 564 449 586 465 q 513 407 542 432 q 544 369 527 389 q 584 335 562 350 q 632 309 605 319 q 688 300 658 300 q 740 309 720 300 q 770 333 759 318 q 785 363 781 347 q 789 391 789 379 q 782 423 789 405 q 763 456 776 440 q 730 483 750 472 q 685 494 711 494 m 278 573 q 342 562 313 573 q 398 533 372 551 q 444 493 423 515 q 482 448 465 471 q 554 507 522 484 q 615 546 586 531 q 669 566 643 560 q 722 573 695 573 q 774 561 748 573 q 819 528 799 549 q 851 480 839 508 q 864 419 864 452 q 845 343 864 380 q 796 276 827 305 q 724 228 764 246 q 639 210 684 210 q 574 220 604 210 q 518 249 544 231 q 470 289 492 266 q 431 333 448 311 q 355 270 387 294 q 297 233 324 246 q 247 214 271 219 q 195 210 222 210 q 143 221 169 210 q 98 254 118 233 q 66 302 78 274 q 54 363 54 330 q 72 439 54 402 q 121 506 90 477 q 193 554 153 536 q 278 573 233 573 "},"ź":{"x_min":51.546875,"x_max":562.25,"ha":614,"o":"m 562 168 q 561 122 562 146 q 559 74 560 97 q 557 31 558 51 q 554 0 556 12 l 69 0 l 51 30 l 427 570 l 193 570 q 171 565 182 570 q 149 550 160 561 q 129 519 139 539 q 113 468 120 499 l 80 476 l 92 642 q 120 635 107 637 q 145 632 132 633 q 174 631 158 631 l 545 631 l 560 601 l 183 61 l 469 61 q 500 87 486 61 q 530 174 514 113 l 562 168 m 296 710 q 274 717 284 712 q 257 729 265 722 l 416 1010 q 437 1007 424 1009 q 465 1003 451 1005 q 493 999 480 1001 q 514 994 507 996 l 530 967 l 296 710 "},"Ư":{"x_min":33.65625,"x_max":950.125,"ha":950,"o":"m 950 944 q 941 904 950 927 q 912 856 933 881 q 855 802 891 830 q 767 749 820 775 l 767 355 q 745 196 767 266 q 682 79 723 127 q 583 5 642 30 q 451 -20 525 -20 q 323 0 381 -20 q 221 58 264 18 q 155 158 179 98 q 132 301 132 218 l 132 783 q 107 804 132 791 q 33 825 82 816 l 33 855 l 339 855 l 339 825 q 267 804 293 816 q 241 783 241 793 l 241 335 q 256 218 241 270 q 301 131 271 167 q 376 76 332 95 q 478 58 420 58 q 564 81 526 58 q 627 142 601 104 q 665 229 652 180 q 679 327 679 277 l 679 783 q 654 804 679 791 q 580 825 629 816 l 580 855 l 821 855 q 833 889 833 873 q 823 926 833 909 q 794 959 813 944 l 914 1014 q 940 981 930 999 q 950 944 950 963 "},"͟":{"x_min":-442.875,"x_max":442.875,"ha":0,"o":"m 442 -420 q 438 -437 441 -427 q 430 -457 434 -447 q 422 -476 426 -466 q 416 -492 419 -485 l -427 -492 l -442 -475 q -438 -458 -441 -467 q -430 -438 -434 -448 q -422 -419 -426 -429 q -415 -404 -418 -410 l 427 -404 l 442 -420 "},"ń":{"x_min":37.046875,"x_max":745.953125,"ha":766,"o":"m 454 0 l 454 29 q 525 51 502 42 q 549 70 549 61 l 549 429 q 544 496 549 470 q 529 537 539 522 q 502 557 519 552 q 462 563 486 563 q 415 552 441 563 q 360 520 389 542 q 298 461 330 497 q 234 372 266 425 l 234 70 q 259 49 234 60 q 328 29 284 38 l 328 0 l 37 0 l 37 29 q 106 49 81 40 q 132 70 132 59 l 132 482 q 129 524 132 508 q 118 548 127 540 q 90 561 109 557 q 37 570 71 565 l 37 597 q 122 618 83 604 q 199 651 161 632 l 223 627 l 231 458 q 296 539 260 503 q 369 599 332 575 q 440 637 406 624 q 501 651 474 651 q 557 642 530 651 q 605 615 584 633 q 638 568 625 596 q 651 502 651 540 l 651 70 q 671 51 651 61 q 745 29 692 42 l 745 0 l 454 0 m 362 710 q 340 717 349 712 q 323 729 330 722 l 482 1010 q 503 1007 490 1009 q 531 1003 516 1005 q 559 999 545 1001 q 580 994 573 996 l 596 967 l 362 710 "},"Ḵ":{"x_min":33.65625,"x_max":796.46875,"ha":803,"o":"m 33 0 l 33 29 q 105 49 79 38 q 132 70 132 61 l 132 783 q 107 804 132 791 q 33 825 82 816 l 33 855 l 339 855 l 339 825 q 267 804 293 816 q 241 783 241 793 l 241 438 l 518 765 q 538 794 534 783 q 535 811 542 805 q 511 820 528 817 q 468 825 494 823 l 468 855 l 753 855 l 753 825 q 714 820 731 823 q 683 813 697 817 q 659 802 670 808 q 637 783 647 795 l 340 455 l 668 85 q 694 64 680 72 q 724 54 708 57 q 757 51 740 51 q 791 53 774 51 l 796 24 q 716 0 756 11 q 643 -10 675 -10 q 608 -3 623 -10 q 579 19 593 2 l 241 433 l 241 70 q 265 50 241 62 q 339 29 289 38 l 339 0 l 33 0 m 644 -155 q 639 -172 642 -162 q 632 -192 636 -182 q 624 -211 628 -201 q 617 -227 620 -220 l 200 -227 l 185 -210 q 190 -193 187 -202 q 198 -173 193 -183 q 206 -154 202 -164 q 213 -139 210 -145 l 629 -139 l 644 -155 "},"":{"x_min":13.5625,"x_max":874.90625,"ha":903,"o":"m 13 29 q 85 46 59 37 q 118 73 111 54 l 378 814 q 397 840 383 829 q 425 857 410 850 q 456 868 441 864 q 480 875 471 872 l 778 73 q 808 45 785 56 q 874 29 832 34 l 874 0 l 579 0 l 579 29 q 654 43 634 33 q 666 72 674 52 l 427 716 l 199 73 q 216 45 191 54 q 295 29 240 35 l 295 0 l 13 0 l 13 29 "},"ḹ":{"x_min":-29.171875,"x_max":429.3125,"ha":376,"o":"m 40 0 l 40 29 q 89 38 69 33 q 120 49 108 44 q 136 59 131 54 q 142 70 142 65 l 142 878 q 137 926 142 909 q 123 951 133 943 q 93 963 112 960 q 47 969 75 966 l 47 996 q 136 1017 95 1006 q 219 1051 177 1029 l 244 1027 l 244 70 q 267 49 244 60 q 345 29 290 38 l 345 0 l 40 0 m 261 -189 q 255 -225 261 -208 q 238 -254 249 -242 q 213 -274 228 -267 q 182 -282 199 -282 q 138 -265 152 -282 q 125 -217 125 -248 q 131 -181 125 -198 q 148 -151 137 -164 q 173 -132 159 -139 q 203 -125 187 -125 q 261 -189 261 -125 m 429 1275 q 424 1258 427 1268 q 417 1238 421 1248 q 409 1219 413 1229 q 402 1204 405 1210 l -14 1204 l -29 1220 q -24 1237 -27 1228 q -16 1257 -21 1247 q -8 1276 -12 1267 q -1 1292 -4 1285 l 414 1292 l 429 1275 "},"¤":{"x_min":107.296875,"x_max":545.015625,"ha":652,"o":"m 245 488 q 220 450 228 471 q 212 407 212 429 q 220 364 212 385 q 245 327 228 344 q 284 302 262 310 q 326 294 305 294 q 369 302 348 294 q 407 327 390 310 q 432 365 424 344 q 441 408 441 386 q 432 450 441 429 q 407 488 424 471 q 369 513 390 505 q 326 522 348 522 q 284 513 305 522 q 245 488 262 505 m 500 190 l 428 261 q 379 237 405 245 q 326 230 353 230 q 273 237 299 230 q 224 261 247 245 l 151 189 l 128 190 q 117 210 122 199 q 107 232 112 221 l 180 305 q 155 353 163 327 q 148 406 148 379 q 155 460 148 434 q 180 510 163 487 l 107 583 l 109 605 q 129 616 118 611 q 151 627 140 622 l 223 553 q 272 578 246 570 q 326 587 299 587 q 379 578 353 587 q 428 553 405 570 l 500 626 l 523 626 l 543 581 l 471 510 q 496 460 487 487 q 505 406 505 434 q 496 353 505 379 q 472 304 488 327 l 544 233 l 545 210 l 500 190 "},"Ǣ":{"x_min":0.0625,"x_max":1042.296875,"ha":1082,"o":"m 525 779 q 518 789 525 786 q 503 792 512 793 q 485 785 494 791 q 472 767 476 779 l 365 499 l 525 499 l 525 779 m 1042 165 q 1027 63 1036 106 q 1013 0 1018 19 l 428 0 l 428 29 q 499 49 474 38 q 525 70 525 61 l 525 442 l 342 442 l 193 75 q 205 45 184 55 q 282 29 226 35 l 282 0 l 0 0 l 0 29 q 72 46 46 37 q 107 75 98 55 l 387 768 q 384 788 392 780 q 360 802 377 795 q 317 814 343 808 q 258 825 291 819 l 258 855 l 975 855 l 996 838 q 992 799 994 820 q 986 757 990 778 q 977 717 982 736 q 968 685 973 698 l 937 685 q 932 737 936 716 q 921 771 928 758 q 904 788 914 783 q 882 794 895 794 l 634 794 l 634 499 l 908 499 l 927 480 q 913 459 920 470 q 897 438 905 448 q 880 418 889 427 q 864 404 872 410 q 842 421 854 414 q 815 433 831 428 q 779 439 800 437 q 729 442 758 442 l 634 442 l 634 104 q 639 86 634 94 q 659 72 644 78 q 702 64 674 67 q 774 61 729 61 l 861 61 q 915 64 893 61 q 953 79 937 67 q 983 114 970 91 q 1011 177 997 137 l 1042 165 m 862 1058 q 857 1041 861 1051 q 850 1021 854 1031 q 842 1002 846 1012 q 836 987 838 993 l 419 987 l 404 1003 q 408 1020 405 1011 q 416 1040 412 1030 q 424 1059 420 1049 q 432 1075 428 1068 l 847 1075 l 862 1058 "},"Ɨ":{"x_min":32.75,"x_max":370.296875,"ha":414,"o":"m 353 417 l 255 417 l 255 70 q 279 50 255 62 q 353 29 304 38 l 353 0 l 47 0 l 47 29 q 119 49 93 38 q 146 70 146 61 l 146 417 l 47 417 l 32 433 q 39 455 36 443 q 47 478 43 467 l 146 478 l 146 783 q 121 804 146 791 q 47 825 96 816 l 47 855 l 353 855 l 353 825 q 281 804 307 816 q 255 783 255 793 l 255 478 l 353 478 l 370 462 l 353 417 "},"Ĝ":{"x_min":47,"x_max":777.203125,"ha":810,"o":"m 707 805 q 705 792 711 802 q 688 770 699 782 q 663 746 677 757 q 641 726 650 734 l 619 730 q 573 765 596 751 q 523 786 549 778 q 467 796 497 793 q 405 800 438 800 q 362 792 388 800 q 309 767 337 784 q 253 721 281 749 q 202 652 225 693 q 165 556 179 611 q 152 431 152 502 q 177 267 152 337 q 243 152 202 197 q 334 83 283 106 q 437 61 385 61 q 528 70 487 61 q 604 98 570 80 l 604 328 q 597 343 604 336 q 575 357 591 350 q 532 370 559 364 q 464 384 505 377 l 464 413 l 777 413 l 777 384 q 722 359 738 375 q 706 328 706 344 l 706 104 q 615 38 655 63 q 542 1 576 14 q 479 -15 509 -11 q 419 -20 449 -20 q 284 5 350 -20 q 164 82 217 30 q 79 212 112 134 q 47 394 47 289 q 82 596 47 507 q 180 747 118 685 q 324 842 241 809 q 499 875 406 875 q 549 870 522 875 q 603 856 575 865 q 658 834 631 847 q 707 805 685 821 m 648 957 q 635 938 640 944 q 619 927 630 932 l 433 1068 l 249 927 q 240 932 244 929 q 233 938 236 935 q 227 946 230 941 q 219 957 223 951 l 398 1167 l 470 1167 l 648 957 "},"p":{"x_min":37.046875,"x_max":682,"ha":736,"o":"m 590 288 q 576 398 590 347 q 539 486 562 449 q 485 544 516 523 q 422 566 455 566 q 390 558 410 566 q 345 533 370 551 q 292 486 320 515 q 234 413 263 456 l 234 144 q 290 106 264 121 q 339 83 316 91 q 382 71 362 74 q 421 68 402 68 q 488 82 457 68 q 541 124 519 96 q 577 193 564 152 q 590 288 590 234 m 682 333 q 671 253 682 294 q 643 172 661 211 q 601 97 626 133 q 548 36 577 62 q 487 -4 519 10 q 422 -20 455 -20 q 332 2 382 -20 q 234 66 282 24 l 234 -254 q 259 -276 234 -265 q 348 -296 284 -287 l 348 -326 l 37 -326 l 37 -296 q 106 -276 81 -286 q 132 -254 132 -266 l 132 481 q 129 522 132 506 q 116 549 126 539 q 88 563 106 558 q 37 569 69 567 l 37 596 q 81 606 60 601 q 121 619 102 612 q 160 633 141 625 q 200 651 180 641 l 223 627 l 230 492 q 298 563 263 533 q 363 612 332 593 q 421 641 394 632 q 468 651 448 651 q 553 629 514 651 q 621 566 593 607 q 666 466 650 525 q 682 333 682 407 "},"S":{"x_min":79.515625,"x_max":600,"ha":661,"o":"m 600 255 q 591 193 600 225 q 567 130 583 161 q 525 72 550 99 q 467 24 501 45 q 391 -7 433 4 q 298 -20 349 -20 q 249 -15 276 -20 q 195 -2 223 -10 q 140 18 167 6 q 89 46 112 30 q 81 69 84 48 q 79 116 79 89 q 81 172 79 144 q 89 219 83 201 l 116 216 q 155 147 132 176 q 207 98 179 117 q 268 70 235 79 q 336 61 301 61 q 397 73 366 61 q 452 107 428 86 q 492 158 476 129 q 508 219 508 187 q 489 290 508 261 q 441 343 471 320 q 374 385 412 366 q 297 421 336 403 q 219 460 257 440 q 152 508 181 480 q 104 570 122 535 q 86 655 86 606 q 92 701 86 676 q 111 750 98 725 q 146 797 125 774 q 198 837 168 820 q 267 864 228 854 q 356 875 307 875 q 417 870 387 875 q 475 857 448 865 q 523 837 502 849 q 557 812 545 826 q 558 796 562 808 q 544 770 553 784 q 524 743 535 756 q 505 722 513 729 l 480 726 q 440 763 461 748 q 398 789 420 779 q 356 802 377 798 q 316 807 335 807 q 251 795 278 807 q 207 766 224 783 q 182 728 190 749 q 174 687 174 706 q 192 631 174 655 q 240 585 210 606 q 308 546 270 565 q 387 508 346 528 q 465 465 427 488 q 533 412 503 442 q 581 344 563 382 q 600 255 600 306 "},"ễ":{"x_min":54,"x_max":588,"ha":642,"o":"m 336 580 q 271 566 301 580 q 219 527 242 552 q 181 468 196 503 q 160 393 166 434 l 451 393 q 471 398 466 393 q 477 417 477 403 q 471 463 477 435 q 451 517 466 490 q 408 561 436 543 q 336 580 381 580 m 588 377 q 555 352 575 363 q 513 332 535 340 l 156 332 q 170 231 156 279 q 210 147 184 183 q 273 89 236 111 q 357 68 310 68 q 398 70 378 68 q 441 82 418 73 q 492 110 464 92 q 558 160 520 129 q 574 146 567 155 q 584 132 580 137 q 504 52 538 82 q 439 6 469 22 q 379 -14 409 -9 q 315 -20 350 -20 q 216 2 263 -20 q 132 65 168 24 q 75 164 96 106 q 54 294 54 222 q 64 383 54 339 q 93 467 74 428 q 140 539 113 506 q 204 597 168 573 q 237 617 219 607 q 276 634 256 627 q 317 646 297 642 q 355 651 337 651 q 434 638 399 651 q 494 605 469 626 q 538 557 520 585 q 567 499 556 530 q 583 437 578 469 q 588 377 588 405 m 560 740 q 547 721 552 727 q 531 710 542 715 l 345 891 l 161 710 q 152 715 155 712 q 145 721 148 718 q 139 729 142 724 q 130 740 135 734 l 309 998 l 382 998 l 560 740 m 577 1217 q 548 1162 564 1189 q 510 1113 531 1135 q 465 1078 489 1092 q 414 1065 440 1065 q 369 1077 390 1065 q 327 1103 347 1089 q 287 1130 307 1118 q 247 1142 267 1142 q 198 1120 220 1142 q 150 1060 175 1098 l 114 1073 q 143 1129 126 1101 q 181 1178 160 1156 q 226 1213 202 1200 q 276 1227 250 1227 q 325 1215 302 1227 q 368 1188 348 1203 q 407 1162 389 1174 q 442 1150 425 1150 q 492 1171 467 1150 q 540 1233 517 1193 l 577 1217 "},"/":{"x_min":33.234375,"x_max":616.5,"ha":652,"o":"m 143 -192 q 125 -202 136 -197 q 102 -211 114 -207 q 78 -220 90 -216 q 58 -227 66 -224 l 33 -210 l 508 1051 q 549 1071 526 1063 q 591 1085 571 1079 l 616 1070 l 143 -192 "},"ⱡ":{"x_min":47.5625,"x_max":396.4375,"ha":444,"o":"m 381 434 l 273 434 l 273 70 q 296 49 273 60 q 374 29 319 38 l 374 0 l 69 0 l 69 29 q 118 38 98 33 q 149 49 137 44 q 165 59 160 54 q 171 70 171 65 l 171 434 l 62 434 l 47 448 q 54 471 50 459 q 62 495 57 484 l 171 495 l 171 570 l 62 570 l 47 584 q 54 607 50 595 q 62 631 57 620 l 171 631 l 171 878 q 166 926 171 909 q 152 951 162 943 q 122 963 141 960 q 76 969 104 966 l 76 996 q 165 1017 124 1006 q 248 1051 206 1029 l 273 1027 l 273 631 l 381 631 l 396 614 l 381 570 l 273 570 l 273 495 l 381 495 l 396 478 l 381 434 "},"Ọ":{"x_min":47,"x_max":772,"ha":834,"o":"m 667 426 q 658 519 667 473 q 634 606 650 565 q 596 682 618 647 q 544 742 573 716 q 482 782 516 767 q 409 797 448 797 q 301 771 349 797 q 220 698 253 746 q 169 584 187 651 q 152 434 152 517 q 172 290 152 358 q 228 171 193 223 q 310 90 263 120 q 409 61 357 61 q 513 84 465 61 q 594 153 560 107 q 647 268 628 200 q 667 426 667 337 m 772 439 q 741 263 772 346 q 658 117 710 180 q 536 17 605 54 q 389 -20 467 -20 q 244 15 308 -20 q 136 112 180 51 q 70 251 93 172 q 47 415 47 329 q 76 590 47 507 q 158 737 106 674 q 279 837 209 800 q 429 875 349 875 q 577 838 513 875 q 684 740 640 801 q 749 600 727 679 q 772 439 772 521 m 485 -189 q 479 -225 485 -208 q 462 -254 473 -242 q 437 -274 452 -267 q 406 -282 423 -282 q 362 -265 375 -282 q 349 -217 349 -248 q 355 -181 349 -198 q 372 -151 361 -164 q 397 -132 383 -139 q 427 -125 411 -125 q 485 -189 485 -125 "},"̨":{"x_min":-478,"x_max":-220.4375,"ha":0,"o":"m -220 -202 q -254 -238 -234 -221 q -293 -270 -273 -256 q -334 -292 -314 -284 q -371 -301 -354 -301 q -410 -296 -391 -301 q -444 -282 -429 -292 q -468 -252 -459 -271 q -478 -202 -478 -233 q -424 -83 -478 -141 q -268 29 -371 -25 l -238 16 q -316 -42 -286 -13 q -362 -95 -346 -70 q -384 -141 -379 -120 q -390 -179 -390 -162 q -373 -216 -390 -204 q -331 -228 -357 -228 q -289 -215 -314 -228 q -236 -177 -265 -203 l -220 -202 "},"̋":{"x_min":-488.328125,"x_max":-75.96875,"ha":0,"o":"m -449 710 q -467 716 -461 712 q -488 728 -474 720 l -368 1010 q -349 1006 -360 1008 q -327 1002 -338 1005 q -305 998 -316 1000 q -288 993 -295 995 l -273 965 l -449 710 m -252 710 q -271 716 -265 712 q -290 728 -278 720 l -171 1010 q -152 1006 -163 1008 q -130 1002 -141 1005 q -108 998 -119 1000 q -90 993 -98 995 l -75 965 l -252 710 "},"y":{"x_min":-31.875,"x_max":670.765625,"ha":685,"o":"m 670 601 q 637 593 650 597 q 616 583 624 588 q 603 572 608 578 q 596 555 599 565 l 369 -55 q 306 -184 341 -130 q 233 -272 271 -237 q 158 -322 196 -306 q 86 -339 120 -339 q 38 -335 60 -339 q 1 -327 16 -332 q -23 -315 -14 -322 q -31 -303 -31 -309 q -23 -286 -31 -298 q -3 -259 -15 -274 q 22 -231 8 -245 q 47 -211 36 -218 q 112 -231 80 -230 q 169 -223 144 -233 q 198 -204 181 -219 q 230 -168 214 -189 q 263 -118 247 -146 q 291 -62 279 -91 l 311 -15 l 88 555 q 65 584 82 574 q 13 601 47 594 l 13 631 l 275 631 l 275 601 q 232 595 248 598 q 206 586 215 591 q 196 574 197 581 q 198 555 194 566 l 365 123 l 522 555 q 523 573 525 565 q 511 585 520 580 q 485 594 502 590 q 444 601 469 597 l 444 631 l 670 631 l 670 601 "},"Π":{"x_min":32.984375,"x_max":828.015625,"ha":875,"o":"m 32 0 l 32 29 q 105 49 79 38 q 132 70 132 61 l 132 783 q 106 804 132 791 q 32 825 81 816 l 32 855 l 828 855 l 828 825 q 755 804 781 816 q 729 783 729 793 l 729 70 q 753 50 729 62 q 828 29 778 38 l 828 0 l 521 0 l 521 29 q 593 49 567 38 q 620 70 620 61 l 620 751 q 610 767 620 759 q 584 782 601 775 q 540 793 566 789 q 481 798 514 798 l 368 798 q 313 792 337 797 q 273 782 289 788 q 249 767 257 775 q 241 751 241 759 l 241 70 q 265 50 241 62 q 339 29 289 38 l 339 0 l 32 0 "},"ˊ":{"x_min":0,"x_max":272.640625,"ha":273,"o":"m 38 710 q 16 717 26 712 q 0 729 7 722 l 158 1010 q 180 1007 166 1009 q 207 1003 193 1005 q 236 999 222 1001 q 257 994 249 996 l 272 967 l 38 710 "},"Ḧ":{"x_min":33.65625,"x_max":861.34375,"ha":908,"o":"m 33 0 l 33 29 q 105 49 79 38 q 132 70 132 61 l 132 783 q 107 804 132 791 q 33 825 82 816 l 33 855 l 339 855 l 339 825 q 267 804 293 816 q 241 783 241 793 l 241 478 l 654 478 l 654 783 q 629 804 654 791 q 555 825 604 816 l 555 855 l 861 855 l 861 825 q 789 804 815 816 q 763 783 763 793 l 763 70 q 787 50 763 62 q 861 29 812 38 l 861 0 l 555 0 l 555 29 q 627 49 601 38 q 654 70 654 61 l 654 417 l 241 417 l 241 70 q 265 50 241 62 q 339 29 289 38 l 339 0 l 33 0 m 650 1045 q 644 1009 650 1026 q 628 980 638 992 q 603 960 617 967 q 572 953 589 953 q 528 969 541 953 q 514 1018 514 986 q 521 1053 514 1036 q 538 1083 527 1070 q 562 1102 548 1095 q 593 1110 576 1110 q 650 1045 650 1110 m 379 1045 q 373 1009 379 1026 q 357 980 367 992 q 332 960 346 967 q 301 953 318 953 q 257 969 270 953 q 243 1018 243 986 q 250 1053 243 1036 q 267 1083 256 1070 q 291 1102 277 1095 q 322 1110 305 1110 q 379 1045 379 1110 "},"–":{"x_min":41.375,"x_max":610.40625,"ha":652,"o":"m 610 370 q 601 338 607 355 q 590 309 596 320 l 58 309 l 41 325 q 50 356 44 340 q 62 387 56 373 l 594 387 l 610 370 "},"ë":{"x_min":54,"x_max":588,"ha":642,"o":"m 336 580 q 271 566 301 580 q 219 527 242 552 q 181 468 196 503 q 160 393 166 434 l 451 393 q 471 398 466 393 q 477 417 477 403 q 471 463 477 435 q 451 517 466 490 q 408 561 436 543 q 336 580 381 580 m 588 377 q 555 352 575 363 q 513 332 535 340 l 156 332 q 170 231 156 279 q 210 147 184 183 q 273 89 236 111 q 357 68 310 68 q 398 70 378 68 q 441 82 418 73 q 492 110 464 92 q 558 160 520 129 q 574 146 567 155 q 584 132 580 137 q 504 52 538 82 q 439 6 469 22 q 379 -14 409 -9 q 315 -20 350 -20 q 216 2 263 -20 q 132 65 168 24 q 75 164 96 106 q 54 294 54 222 q 64 383 54 339 q 93 467 74 428 q 140 539 113 506 q 204 597 168 573 q 237 617 219 607 q 276 634 256 627 q 317 646 297 642 q 355 651 337 651 q 434 638 399 651 q 494 605 469 626 q 538 557 520 585 q 567 499 556 530 q 583 437 578 469 q 588 377 588 405 m 549 854 q 543 818 549 835 q 526 789 536 801 q 501 769 515 776 q 470 762 487 762 q 426 778 439 762 q 413 826 413 795 q 419 862 413 845 q 436 892 425 879 q 461 911 447 904 q 491 919 475 919 q 549 854 549 919 m 278 854 q 272 818 278 835 q 255 789 265 801 q 230 769 244 776 q 199 762 216 762 q 155 778 168 762 q 142 826 142 795 q 148 862 142 845 q 165 892 154 879 q 190 911 176 904 q 220 919 204 919 q 278 854 278 919 "},"ƒ":{"x_min":-169.578125,"x_max":537.734375,"ha":402,"o":"m 537 986 q 527 970 537 980 q 504 947 518 959 q 476 925 490 936 q 451 911 461 915 q 417 935 434 925 q 385 953 400 946 q 357 964 370 960 q 336 968 344 968 q 298 955 318 968 q 260 912 277 943 q 232 827 243 881 q 221 689 221 773 l 221 631 l 395 631 l 414 611 q 400 591 408 601 q 381 570 391 580 q 363 553 372 560 q 347 543 353 545 q 302 559 331 551 q 221 567 273 567 l 221 66 q 210 -68 221 -12 q 181 -163 199 -124 q 137 -228 162 -202 q 86 -275 113 -254 q 46 -302 67 -290 q 7 -322 26 -313 q -29 -334 -12 -330 q -59 -339 -46 -339 q -99 -333 -80 -339 q -134 -320 -119 -328 q -160 -304 -150 -312 q -169 -291 -169 -296 q -160 -275 -169 -286 q -137 -253 -150 -264 q -108 -231 -123 -241 q -84 -216 -94 -221 q -59 -232 -70 -226 q -36 -241 -47 -238 q -14 -245 -25 -244 q 9 -247 -3 -247 q 47 -235 28 -247 q 82 -192 67 -223 q 108 -107 98 -160 q 118 30 118 -53 l 118 567 l 27 567 l 13 586 l 66 631 l 118 631 l 118 652 q 129 786 118 731 q 158 878 140 841 q 202 941 177 916 q 254 988 227 967 q 293 1015 272 1003 q 336 1034 315 1026 q 376 1046 357 1042 q 408 1051 395 1051 q 451 1042 429 1051 q 493 1024 474 1034 q 525 1003 512 1013 q 537 986 537 992 "},"ȟ":{"x_min":37.046875,"x_max":745.953125,"ha":766,"o":"m 454 0 l 454 29 q 525 51 502 42 q 549 70 549 61 l 549 429 q 543 496 549 470 q 528 537 538 522 q 500 557 517 552 q 462 563 484 563 q 411 550 438 563 q 353 514 383 538 q 293 455 324 491 q 234 372 263 419 l 234 70 q 259 49 234 60 q 328 29 284 38 l 328 0 l 37 0 l 37 29 q 106 49 81 40 q 132 70 132 58 l 132 880 q 129 924 132 908 q 117 949 127 940 q 88 961 107 958 q 37 969 69 965 l 37 996 q 88 1007 65 1002 q 132 1019 112 1013 q 170 1033 152 1025 q 208 1051 189 1040 l 234 1027 l 233 463 q 298 541 262 507 q 370 600 334 576 q 440 638 406 625 q 501 651 474 651 q 557 642 530 651 q 605 615 584 633 q 638 568 625 596 q 651 502 651 540 l 651 70 q 671 51 651 61 q 745 29 692 42 l 745 0 l 454 0 m 427 1112 l 355 1112 l 176 1320 q 184 1332 181 1327 q 190 1340 187 1337 q 197 1346 193 1343 q 206 1352 201 1349 l 393 1209 l 576 1352 q 592 1340 588 1346 q 605 1320 597 1334 l 427 1112 "},"Ẏ":{"x_min":-0.390625,"x_max":797.6875,"ha":825,"o":"m 243 0 l 243 29 q 330 55 305 42 q 355 78 355 68 l 355 364 q 298 478 329 419 q 232 594 266 538 q 168 699 199 651 q 113 780 137 748 q 99 794 107 788 q 79 806 91 801 q 49 814 67 811 q 2 818 30 818 l 0 847 q 79 856 39 852 q 148 861 119 861 q 201 834 179 861 q 255 757 226 802 q 313 663 284 713 q 370 562 342 614 q 422 461 398 509 l 604 780 q 597 808 614 797 q 529 825 581 818 l 529 855 l 797 855 l 797 825 q 726 807 750 816 q 691 780 701 797 l 464 366 l 464 77 q 469 68 464 73 q 488 55 475 62 q 523 42 501 48 q 576 29 544 35 l 576 0 l 243 0 m 477 1045 q 471 1009 477 1026 q 455 980 465 992 q 430 960 444 967 q 399 953 416 953 q 355 969 368 953 q 341 1018 341 986 q 348 1053 341 1036 q 365 1083 354 1070 q 389 1102 375 1095 q 420 1110 403 1110 q 477 1045 477 1110 "},"J":{"x_min":-129.421875,"x_max":376.328125,"ha":424,"o":"m 376 825 q 304 804 330 816 q 278 783 278 793 l 278 139 q 266 4 278 58 q 236 -86 255 -49 q 193 -149 218 -124 q 142 -195 169 -173 q 102 -222 124 -210 q 57 -241 80 -233 q 15 -253 35 -249 q -17 -258 -4 -258 q -58 -251 -37 -258 q -94 -236 -78 -245 q -119 -219 -109 -228 q -129 -204 -129 -210 q -120 -188 -129 -198 q -99 -168 -111 -178 q -73 -148 -87 -158 q -50 -136 -60 -139 q -17 -156 -31 -148 q 8 -168 -3 -164 q 32 -173 21 -172 q 56 -175 43 -175 q 94 -163 74 -175 q 130 -122 114 -151 q 158 -41 147 -92 q 169 89 169 10 l 169 783 q 163 792 169 787 q 143 802 158 797 q 103 813 128 808 q 36 825 77 819 l 36 855 l 376 855 l 376 825 "},"ŷ":{"x_min":-31.875,"x_max":670.765625,"ha":685,"o":"m 670 601 q 637 593 650 597 q 616 583 624 588 q 603 572 608 578 q 596 555 599 565 l 369 -55 q 306 -184 341 -130 q 233 -272 271 -237 q 158 -322 196 -306 q 86 -339 120 -339 q 38 -335 60 -339 q 1 -327 16 -332 q -23 -315 -14 -322 q -31 -303 -31 -309 q -23 -286 -31 -298 q -3 -259 -15 -274 q 22 -231 8 -245 q 47 -211 36 -218 q 112 -231 80 -230 q 169 -223 144 -233 q 198 -204 181 -219 q 230 -168 214 -189 q 263 -118 247 -146 q 291 -62 279 -91 l 311 -15 l 88 555 q 65 584 82 574 q 13 601 47 594 l 13 631 l 275 631 l 275 601 q 232 595 248 598 q 206 586 215 591 q 196 574 197 581 q 198 555 194 566 l 365 123 l 522 555 q 523 573 525 565 q 511 585 520 580 q 485 594 502 590 q 444 601 469 597 l 444 631 l 670 631 l 670 601 m 573 740 q 560 721 565 727 q 544 710 556 715 l 358 891 l 174 710 q 165 715 169 712 q 159 721 162 718 q 152 729 155 724 q 144 740 149 734 l 323 998 l 396 998 l 573 740 "},"ŕ":{"x_min":37.046875,"x_max":528.015625,"ha":550,"o":"m 522 625 q 528 602 528 621 q 522 556 527 582 q 509 503 517 530 q 493 458 501 476 l 463 458 q 452 504 459 485 q 435 534 444 523 q 413 550 425 545 q 388 556 401 556 q 353 543 373 556 q 312 504 333 530 q 270 435 291 477 q 234 336 250 393 l 234 70 q 259 49 234 60 q 348 29 284 38 l 348 0 l 37 0 l 37 29 q 106 49 81 39 q 132 70 132 59 l 132 465 q 130 502 132 487 q 127 527 129 518 q 122 542 125 537 q 116 551 119 547 q 105 559 111 556 q 90 564 100 562 q 68 567 81 566 q 37 569 56 568 l 37 596 q 123 620 81 608 q 200 651 166 632 l 224 627 l 233 473 q 272 543 250 510 q 318 599 293 575 q 369 637 342 623 q 425 651 396 651 q 472 645 446 651 q 522 625 497 640 m 276 710 q 254 717 263 712 q 237 729 244 722 l 396 1010 q 417 1007 404 1009 q 445 1003 430 1005 q 473 999 459 1001 q 494 994 486 996 l 510 967 l 276 710 "},"ṝ":{"x_min":37.046875,"x_max":541.21875,"ha":550,"o":"m 522 625 q 528 602 528 621 q 522 556 527 582 q 509 503 517 530 q 493 458 501 476 l 463 458 q 452 504 459 485 q 435 534 444 523 q 413 550 425 545 q 388 556 401 556 q 353 543 373 556 q 312 504 333 530 q 270 435 291 477 q 234 336 250 393 l 234 70 q 259 49 234 60 q 348 29 284 38 l 348 0 l 37 0 l 37 29 q 106 49 81 39 q 132 70 132 59 l 132 465 q 130 502 132 487 q 127 527 129 518 q 122 542 125 537 q 116 551 119 547 q 105 559 111 556 q 90 564 100 562 q 68 567 81 566 q 37 569 56 568 l 37 596 q 123 620 81 608 q 200 651 166 632 l 224 627 l 233 473 q 272 543 250 510 q 318 599 293 575 q 369 637 342 623 q 425 651 396 651 q 472 645 446 651 q 522 625 497 640 m 251 -189 q 245 -225 251 -208 q 228 -254 239 -242 q 203 -274 218 -267 q 172 -282 189 -282 q 128 -265 141 -282 q 115 -217 115 -248 q 121 -181 115 -198 q 138 -151 127 -164 q 163 -132 149 -139 q 193 -125 177 -125 q 251 -189 251 -125 m 541 868 q 536 851 539 861 q 529 831 533 841 q 521 812 524 822 q 514 797 517 803 l 97 797 l 82 813 q 87 830 84 821 q 94 850 90 840 q 103 869 99 859 q 110 885 107 878 l 526 885 l 541 868 "},"˘":{"x_min":27.125,"x_max":467.96875,"ha":495,"o":"m 467 922 q 422 829 447 867 q 368 768 396 792 q 309 735 340 745 q 248 725 279 725 q 184 735 215 725 q 125 768 153 745 q 72 829 96 792 q 27 922 47 867 q 43 941 35 934 q 63 953 51 947 q 102 887 80 914 q 148 845 124 861 q 198 822 172 829 q 246 815 223 815 q 296 822 269 815 q 346 845 322 829 q 393 887 371 861 q 432 953 415 914 q 451 941 443 947 q 467 922 459 934 "},"ẋ":{"x_min":13.5625,"x_max":689.078125,"ha":699,"o":"m 416 0 l 416 29 q 448 33 433 30 q 471 41 463 35 q 480 59 480 48 q 466 88 480 70 l 332 271 l 204 88 q 193 59 191 70 q 208 41 196 48 q 237 33 219 35 q 270 29 254 30 l 270 0 l 13 0 l 13 29 q 59 39 40 33 q 91 54 78 45 q 114 72 105 62 q 130 92 123 82 l 295 322 l 136 540 q 118 563 127 553 q 97 581 109 574 q 66 594 84 589 q 21 602 48 599 l 21 631 l 305 631 l 305 602 q 269 596 284 599 q 246 586 254 592 q 239 569 238 579 q 252 542 240 558 l 362 391 l 466 542 q 480 569 478 558 q 474 586 481 580 q 452 596 467 593 q 416 602 437 599 l 416 631 l 674 631 l 674 602 q 589 581 619 597 q 541 540 559 566 l 399 340 l 580 92 q 598 72 588 82 q 620 54 607 62 q 649 38 632 45 q 689 29 666 31 l 689 0 l 416 0 m 419 854 q 413 818 419 835 q 396 789 407 801 q 372 769 386 776 q 340 762 357 762 q 296 778 310 762 q 283 826 283 795 q 289 862 283 845 q 306 892 295 879 q 331 911 317 904 q 361 919 345 919 q 419 854 419 919 "},"D":{"x_min":27.5625,"x_max":761,"ha":823,"o":"m 307 818 q 241 816 273 818 l 241 104 q 248 80 241 89 q 284 62 257 68 q 364 57 311 57 q 460 79 411 57 q 551 148 510 102 q 619 265 593 195 q 646 432 646 336 q 623 593 646 522 q 558 715 601 665 q 451 791 515 765 q 307 818 388 818 m 761 458 q 743 306 761 373 q 697 188 726 240 q 629 102 668 137 q 548 43 591 66 q 462 10 506 21 q 378 0 418 0 l 33 0 l 33 29 q 105 49 79 38 q 132 70 132 61 l 132 805 q 80 799 104 802 q 33 792 56 795 l 27 834 q 96 849 57 842 q 178 863 135 857 q 266 871 222 868 q 350 875 310 875 q 521 846 445 875 q 650 765 596 818 q 732 634 703 711 q 761 458 761 556 "},"ĺ":{"x_min":40.265625,"x_max":421.84375,"ha":376,"o":"m 40 0 l 40 29 q 89 38 69 33 q 120 49 108 44 q 136 59 131 54 q 142 70 142 65 l 142 878 q 137 926 142 909 q 123 951 133 943 q 93 963 112 960 q 47 969 75 966 l 47 996 q 136 1017 95 1006 q 219 1051 177 1029 l 244 1027 l 244 70 q 267 49 244 60 q 345 29 290 38 l 345 0 l 40 0 m 103 1144 q 87 1155 92 1148 q 73 1174 82 1161 l 335 1390 q 354 1379 342 1385 q 377 1365 365 1373 q 400 1352 389 1358 q 415 1339 410 1345 l 421 1309 l 103 1144 "},"ł":{"x_min":36.421875,"x_max":366.296875,"ha":390,"o":"m 47 0 l 47 29 q 96 38 76 33 q 127 49 115 44 q 143 59 138 54 q 149 70 149 65 l 149 459 l 52 391 l 36 402 q 39 417 37 411 q 42 428 40 422 q 46 442 43 433 q 55 465 49 450 l 149 530 l 149 878 q 144 926 149 909 q 130 951 140 943 q 100 963 119 960 q 54 969 82 966 l 54 996 q 143 1017 102 1006 q 226 1051 184 1029 l 251 1027 l 251 600 l 350 670 l 366 659 q 362 641 364 648 q 358 628 360 634 q 354 616 356 623 q 346 598 351 609 l 251 530 l 251 70 q 274 49 251 60 q 352 29 297 38 l 352 0 l 47 0 "},"":{"x_min":91.5625,"x_max":242.125,"ha":347,"o":"m 202 477 q 189 471 197 474 q 172 467 181 469 q 154 464 164 465 q 137 463 145 463 l 91 1031 q 115 1042 99 1036 q 149 1055 131 1048 q 182 1065 166 1061 q 206 1072 198 1070 l 242 1054 l 202 477 "},"$":{"x_min":59.6875,"x_max":585,"ha":652,"o":"m 153 649 q 163 604 153 624 q 193 569 174 585 q 238 541 212 554 q 293 517 263 529 l 293 756 q 227 745 253 755 q 183 720 200 735 q 160 686 167 705 q 153 649 153 668 m 493 219 q 482 276 493 251 q 452 319 471 300 q 407 352 433 337 q 354 378 382 366 l 354 76 q 406 92 381 80 q 450 122 431 103 q 481 165 469 141 q 493 219 493 190 m 354 -96 q 343 -105 347 -102 q 334 -110 339 -108 q 324 -114 330 -112 q 311 -118 319 -115 l 293 -103 l 293 -6 q 232 -1 260 -6 q 178 10 204 2 q 125 32 151 19 q 69 65 99 46 q 62 87 64 68 q 59 132 59 107 q 61 184 59 158 q 69 230 63 211 l 98 228 q 181 121 130 158 q 293 77 231 85 l 293 402 q 210 434 251 417 q 138 475 170 451 q 86 533 106 500 q 67 618 67 567 q 78 679 67 646 q 115 741 89 712 q 185 791 142 770 q 293 820 228 813 l 293 920 q 306 928 302 925 q 314 932 310 930 q 321 935 317 934 q 336 939 326 936 l 354 924 l 354 823 q 414 818 385 822 q 469 806 444 814 q 516 786 495 797 q 550 762 536 775 q 548 745 554 757 q 534 718 543 732 q 513 689 524 703 q 493 666 501 675 l 466 672 q 410 722 439 703 q 354 749 382 741 l 354 493 q 437 458 396 477 q 511 412 479 439 q 564 347 544 384 q 585 255 585 309 q 570 173 585 215 q 526 95 555 130 q 454 32 497 59 q 354 -2 411 6 l 354 -96 "},"w":{"x_min":13.5625,"x_max":966.46875,"ha":981,"o":"m 966 601 q 933 592 945 597 q 913 583 921 588 q 903 573 906 579 q 898 559 900 567 l 748 40 q 732 14 744 25 q 706 -2 720 4 q 678 -13 692 -9 q 655 -20 664 -17 l 494 439 l 355 40 q 338 14 349 24 q 314 -3 327 3 q 287 -14 300 -10 q 265 -20 274 -17 l 87 559 q 13 601 81 586 l 13 631 l 275 631 l 275 601 q 223 594 242 598 q 197 583 205 589 q 188 572 189 578 q 190 559 188 565 l 318 129 l 484 631 l 531 631 l 708 129 l 825 559 q 811 584 829 575 q 746 601 792 594 l 746 631 l 966 631 l 966 601 "},"":{"x_min":29.59375,"x_max":640.484375,"ha":661,"o":"m 640 165 q 626 63 635 106 q 612 0 618 19 l 33 0 l 33 29 q 105 49 79 38 q 132 70 132 61 l 132 364 l 44 364 l 29 380 q 36 402 32 391 q 44 425 40 414 l 132 425 l 132 783 q 107 804 132 791 q 33 825 82 816 l 33 855 l 339 855 l 339 825 q 267 804 293 816 q 241 783 241 793 l 241 425 l 403 425 l 420 409 l 403 364 l 241 364 l 241 111 q 246 89 241 98 q 266 74 252 80 q 305 64 281 67 q 367 61 329 61 l 464 61 q 516 64 495 61 q 554 79 538 67 q 583 114 570 91 q 611 177 597 137 l 640 165 "},"Ç":{"x_min":47,"x_max":690.40625,"ha":745,"o":"m 508 -155 q 496 -203 508 -180 q 458 -245 484 -226 q 394 -278 433 -264 q 298 -301 354 -292 l 283 -267 q 343 -252 319 -261 q 384 -232 368 -243 q 406 -209 399 -221 q 414 -187 414 -197 q 396 -154 414 -164 q 336 -141 378 -145 q 343 -122 338 -139 q 357 -77 348 -108 q 376 -20 365 -55 q 262 8 319 -17 q 154 90 202 36 q 76 221 106 143 q 47 397 47 299 q 79 594 47 506 q 168 744 112 682 q 299 841 225 807 q 457 875 374 875 q 586 855 531 875 q 676 806 641 835 q 674 793 681 803 q 658 770 668 783 q 635 744 647 757 q 615 723 624 731 l 592 727 q 510 779 557 759 q 400 800 462 800 q 350 791 377 800 q 295 764 322 783 q 241 716 267 746 q 195 645 215 687 q 163 548 175 603 q 152 422 152 492 q 178 264 152 332 q 245 151 204 196 q 337 83 286 106 q 436 61 387 61 q 531 86 472 61 q 665 173 590 111 q 672 167 668 172 q 679 158 676 163 q 685 149 682 153 q 690 143 688 145 q 607 65 647 96 q 530 14 567 33 q 457 -12 493 -4 q 430 -16 444 -14 l 413 -70 q 447 -81 430 -74 q 478 -97 465 -87 q 499 -122 491 -107 q 508 -155 508 -136 "},"Ŝ":{"x_min":79.515625,"x_max":600,"ha":661,"o":"m 600 255 q 591 193 600 225 q 567 130 583 161 q 525 72 550 99 q 467 24 501 45 q 391 -7 433 4 q 298 -20 349 -20 q 249 -15 276 -20 q 195 -2 223 -10 q 140 18 167 6 q 89 46 112 30 q 81 69 84 48 q 79 116 79 89 q 81 172 79 144 q 89 219 83 201 l 116 216 q 155 147 132 176 q 207 98 179 117 q 268 70 235 79 q 336 61 301 61 q 397 73 366 61 q 452 107 428 86 q 492 158 476 129 q 508 219 508 187 q 489 290 508 261 q 441 343 471 320 q 374 385 412 366 q 297 421 336 403 q 219 460 257 440 q 152 508 181 480 q 104 570 122 535 q 86 655 86 606 q 92 701 86 676 q 111 750 98 725 q 146 797 125 774 q 198 837 168 820 q 267 864 228 854 q 356 875 307 875 q 417 870 387 875 q 475 857 448 865 q 523 837 502 849 q 557 812 545 826 q 558 796 562 808 q 544 770 553 784 q 524 743 535 756 q 505 722 513 729 l 480 726 q 440 763 461 748 q 398 789 420 779 q 356 802 377 798 q 316 807 335 807 q 251 795 278 807 q 207 766 224 783 q 182 728 190 749 q 174 687 174 706 q 192 631 174 655 q 240 585 210 606 q 308 546 270 565 q 387 508 346 528 q 465 465 427 488 q 533 412 503 442 q 581 344 563 382 q 600 255 600 306 m 553 957 q 540 938 545 944 q 524 927 535 932 l 338 1068 l 154 927 q 145 932 149 929 q 138 938 141 935 q 132 946 135 941 q 124 957 128 951 l 303 1167 l 375 1167 l 553 957 "},"C":{"x_min":48,"x_max":690.84375,"ha":745,"o":"m 690 143 q 607 65 647 96 q 531 15 568 34 q 458 -11 494 -3 q 387 -20 422 -20 q 263 8 324 -20 q 155 90 203 36 q 77 221 106 144 q 48 397 48 299 q 80 594 48 506 q 169 744 113 682 q 300 841 226 807 q 458 875 375 875 q 587 855 532 875 q 677 806 642 835 q 675 793 682 803 q 659 770 669 783 q 636 744 648 757 q 616 723 625 731 l 593 727 q 511 779 558 759 q 401 800 463 800 q 351 791 378 800 q 296 764 323 783 q 242 716 268 746 q 196 645 216 687 q 164 548 176 603 q 153 422 153 492 q 179 264 153 332 q 246 151 205 196 q 337 83 287 106 q 436 61 388 61 q 532 86 473 61 q 665 173 591 111 q 672 167 669 172 q 679 158 676 163 q 686 149 683 153 q 690 143 688 145 "},"Ḯ":{"x_min":-3.640625,"x_max":428.625,"ha":414,"o":"m 47 0 l 47 29 q 119 49 93 38 q 146 70 146 61 l 146 783 q 121 804 146 791 q 47 825 96 816 l 47 855 l 353 855 l 353 825 q 281 804 307 816 q 255 783 255 793 l 255 70 q 279 50 255 62 q 353 29 304 38 l 353 0 l 47 0 m 403 1045 q 397 1009 403 1026 q 380 980 391 992 q 355 960 370 967 q 324 953 341 953 q 280 969 293 953 q 267 1018 267 986 q 273 1053 267 1036 q 290 1083 279 1070 q 315 1102 301 1095 q 345 1110 329 1110 q 403 1045 403 1110 m 132 1045 q 126 1009 132 1026 q 109 980 120 992 q 84 960 99 967 q 53 953 70 953 q 9 969 22 953 q -3 1018 -3 986 q 2 1053 -3 1036 q 19 1083 8 1070 q 44 1102 30 1095 q 74 1110 58 1110 q 132 1045 132 1110 m 110 1144 q 93 1155 99 1148 q 80 1174 88 1161 l 342 1390 q 360 1379 349 1385 q 384 1365 372 1373 q 406 1352 396 1358 q 422 1339 417 1345 l 428 1309 l 110 1144 "},"̉":{"x_min":-464,"x_max":-237,"ha":0,"o":"m -237 904 q -249 871 -237 886 q -279 843 -262 856 q -311 817 -295 829 q -335 793 -327 806 q -336 767 -342 780 q -301 736 -329 753 q -321 728 -311 730 q -343 726 -332 727 q -388 753 -373 740 q -405 776 -402 765 q -402 797 -408 787 q -384 815 -395 806 q -358 833 -372 824 q -332 851 -344 842 q -311 871 -319 861 q -303 894 -303 882 q -315 933 -303 920 q -348 946 -328 946 q -366 942 -358 946 q -381 932 -375 938 q -390 918 -387 926 q -394 903 -394 911 q -392 896 -394 900 q -388 889 -390 893 q -402 885 -394 887 q -421 880 -411 882 q -440 877 -430 878 q -456 874 -449 875 l -464 882 l -464 891 q -451 922 -464 907 q -418 950 -438 938 q -373 971 -398 963 q -325 979 -349 979 q -260 958 -283 979 q -237 904 -237 938 "},"ɫ":{"x_min":-0.40625,"x_max":462.40625,"ha":463,"o":"m 462 604 q 433 549 450 577 q 395 500 416 522 q 350 465 374 479 q 299 452 326 452 q 282 454 290 452 l 282 70 q 305 49 282 60 q 383 29 328 38 l 383 0 l 78 0 l 78 29 q 127 39 107 33 q 158 49 146 44 q 174 59 169 54 q 180 70 180 65 l 180 512 q 155 524 167 519 q 132 529 144 529 q 83 506 105 529 q 35 446 60 484 l 0 460 q 28 515 11 488 q 66 565 45 543 q 111 600 87 586 q 161 614 135 614 q 180 611 170 614 l 180 879 q 175 926 180 909 q 161 951 171 943 q 131 963 150 960 q 85 969 113 966 l 85 996 q 174 1017 133 1006 q 257 1051 215 1029 l 282 1027 l 282 555 q 305 542 294 547 q 327 537 316 537 q 377 558 353 537 q 425 620 402 580 l 462 604 "},"Ẻ":{"x_min":33.65625,"x_max":647.265625,"ha":689,"o":"m 647 165 q 633 63 641 107 q 619 0 624 19 l 33 0 l 33 29 q 105 49 79 38 q 132 70 132 61 l 132 783 q 107 804 132 791 q 33 825 82 816 l 33 855 l 580 855 l 603 838 q 599 799 601 820 q 592 757 596 778 q 583 717 588 736 q 575 685 579 698 l 544 685 q 539 737 543 716 q 527 771 534 758 q 511 788 521 783 q 489 794 501 794 l 241 794 l 241 499 l 515 499 l 533 480 q 520 459 527 470 q 503 438 512 448 q 486 418 495 427 q 470 404 478 410 q 448 421 460 414 q 421 433 437 428 q 385 439 406 437 q 336 442 365 442 l 241 442 l 241 104 q 245 86 241 94 q 265 72 250 78 q 307 64 280 67 q 379 61 334 61 l 466 61 q 520 64 498 61 q 559 79 542 67 q 589 114 576 91 q 618 177 603 137 l 647 165 m 454 1121 q 442 1088 454 1103 q 412 1060 429 1073 q 379 1034 395 1046 q 356 1010 363 1023 q 355 984 349 997 q 390 953 361 970 q 369 945 380 947 q 348 943 358 944 q 303 970 318 957 q 286 993 289 982 q 289 1014 282 1004 q 307 1032 295 1023 q 333 1050 318 1041 q 359 1068 347 1059 q 380 1088 371 1078 q 388 1111 388 1099 q 375 1150 388 1137 q 343 1163 363 1163 q 324 1159 333 1163 q 310 1149 316 1155 q 300 1135 304 1143 q 297 1120 297 1128 q 299 1113 297 1117 q 302 1106 300 1110 q 289 1102 297 1104 q 270 1097 280 1099 q 251 1094 260 1095 q 235 1091 241 1092 l 227 1099 l 227 1108 q 240 1139 227 1124 q 273 1167 253 1155 q 317 1188 293 1180 q 366 1196 342 1196 q 431 1175 408 1196 q 454 1121 454 1155 "},"È":{"x_min":33.65625,"x_max":647.265625,"ha":689,"o":"m 647 165 q 633 63 641 107 q 619 0 624 19 l 33 0 l 33 29 q 105 49 79 38 q 132 70 132 61 l 132 783 q 107 804 132 791 q 33 825 82 816 l 33 855 l 580 855 l 603 838 q 599 799 601 820 q 592 757 596 778 q 583 717 588 736 q 575 685 579 698 l 544 685 q 539 737 543 716 q 527 771 534 758 q 511 788 521 783 q 489 794 501 794 l 241 794 l 241 499 l 515 499 l 533 480 q 520 459 527 470 q 503 438 512 448 q 486 418 495 427 q 470 404 478 410 q 448 421 460 414 q 421 433 437 428 q 385 439 406 437 q 336 442 365 442 l 241 442 l 241 104 q 245 86 241 94 q 265 72 250 78 q 307 64 280 67 q 379 61 334 61 l 466 61 q 520 64 498 61 q 559 79 542 67 q 589 114 576 91 q 618 177 603 137 l 647 165 m 460 957 q 445 938 451 944 q 430 927 440 931 l 111 1092 l 117 1122 q 132 1134 122 1128 q 155 1148 143 1141 q 179 1162 167 1156 q 198 1173 190 1168 l 460 957 "},"ﬁ":{"x_min":30.875,"x_max":770.984375,"ha":808,"o":"m 554 985 q 544 969 554 980 q 521 947 535 958 q 493 925 507 935 q 468 910 478 915 q 435 935 452 924 q 403 952 419 945 q 375 962 388 959 q 353 966 362 966 q 315 954 335 966 q 278 911 295 942 q 249 826 261 880 q 238 689 238 773 l 238 631 l 412 631 l 432 611 q 417 591 426 602 q 399 571 408 580 q 381 553 389 561 q 366 543 372 545 q 321 559 350 551 q 238 567 292 567 l 238 69 q 245 61 238 65 q 269 52 252 57 q 312 42 286 48 q 379 29 339 36 l 379 0 l 41 0 l 41 29 q 111 49 87 37 q 136 69 136 61 l 136 567 l 45 567 l 30 585 l 83 631 l 136 631 l 136 652 q 146 786 136 731 q 176 878 157 841 q 219 941 195 916 q 271 988 244 967 q 311 1015 289 1003 q 354 1034 332 1026 q 395 1046 375 1042 q 427 1051 414 1051 q 470 1042 448 1051 q 511 1024 493 1034 q 542 1002 530 1013 q 554 985 554 991 m 479 0 l 479 29 q 549 49 525 38 q 574 70 574 61 l 574 454 q 572 510 574 488 q 562 543 571 531 q 534 560 553 555 q 479 569 515 566 l 479 596 q 523 606 500 600 q 569 619 546 612 q 614 634 593 626 q 652 651 635 642 l 676 651 l 676 70 q 698 50 676 62 q 770 29 721 38 l 770 0 l 479 0 m 696 854 q 689 818 696 835 q 673 789 683 801 q 648 769 662 776 q 617 762 634 762 q 573 778 586 762 q 560 826 560 795 q 566 862 560 845 q 583 892 572 879 q 608 911 594 904 q 638 919 622 919 q 696 854 696 919 "},"":{"x_min":0,"x_max":276.703125,"ha":277,"o":"m 276 731 q 259 718 267 722 q 238 710 250 713 l 0 965 l 14 993 q 34 998 21 995 q 62 1003 48 1000 q 91 1007 77 1005 q 113 1010 105 1009 l 276 731 "},"X":{"x_min":21.03125,"x_max":833.53125,"ha":855,"o":"m 527 0 l 527 29 q 575 36 557 31 q 602 46 594 40 q 609 62 610 53 q 598 86 608 72 l 409 363 l 238 86 q 241 44 219 56 q 326 29 263 33 l 326 0 l 21 0 l 21 29 q 96 44 65 32 q 144 86 127 57 l 359 437 l 133 768 q 113 793 123 783 q 92 809 104 802 q 65 818 80 815 q 27 826 50 822 l 27 855 l 333 855 l 333 826 q 258 809 276 820 q 261 768 240 798 l 428 522 l 581 768 q 590 794 591 784 q 577 810 588 804 q 544 820 565 817 q 493 826 523 823 l 493 855 l 800 855 l 800 826 q 756 819 775 823 q 722 809 737 815 q 696 793 707 802 q 676 768 685 783 l 478 449 l 726 86 q 747 61 736 71 q 770 45 757 52 q 798 35 782 39 q 833 29 813 31 l 833 0 l 527 0 "},"ô":{"x_min":54,"x_max":645,"ha":699,"o":"m 540 308 q 522 410 540 362 q 476 495 504 458 q 413 554 448 532 q 343 576 378 576 q 256 556 291 576 q 199 502 220 536 q 168 421 178 468 q 159 320 159 375 q 178 219 159 267 q 226 134 197 170 q 289 76 254 97 q 355 55 324 55 q 438 72 403 55 q 495 124 473 90 q 529 203 518 157 q 540 308 540 250 m 645 329 q 633 240 645 283 q 601 158 621 196 q 552 86 581 119 q 489 30 524 53 q 416 -6 455 6 q 336 -20 378 -20 q 220 4 272 -20 q 131 71 168 28 q 74 173 94 114 q 54 301 54 232 q 65 389 54 346 q 96 471 76 432 q 144 543 116 510 q 207 600 172 576 q 281 637 241 623 q 363 651 320 651 q 478 626 426 651 q 567 559 530 602 q 624 457 604 516 q 645 329 645 398 m 577 740 q 564 721 569 727 q 548 710 559 715 l 362 891 l 178 710 q 169 715 172 712 q 162 721 165 718 q 155 729 159 724 q 147 740 152 734 l 326 998 l 399 998 l 577 740 "},"ṹ":{"x_min":27.515625,"x_max":725.4375,"ha":736,"o":"m 725 55 q 677 25 700 39 q 634 1 654 11 q 599 -14 614 -8 q 576 -20 584 -20 q 538 11 553 -20 q 519 112 523 43 q 441 44 476 70 q 377 4 406 18 q 323 -14 347 -9 q 276 -20 298 -20 q 215 -11 244 -20 q 163 21 186 -2 q 128 85 141 44 q 115 189 115 125 l 115 482 q 112 532 115 514 q 102 559 110 550 q 76 572 93 568 q 27 579 58 575 l 27 606 q 73 613 51 608 q 114 622 94 617 q 155 635 134 627 q 197 651 175 642 l 217 624 l 217 226 q 224 147 217 179 q 244 96 231 115 q 277 69 257 77 q 320 61 296 61 q 365 67 342 61 q 412 87 388 73 q 462 123 436 101 q 519 177 489 145 l 519 482 q 515 530 519 512 q 502 559 512 549 q 473 573 492 569 q 424 579 455 577 l 424 606 q 517 625 472 612 q 600 651 562 638 l 621 624 l 621 172 q 624 104 621 130 q 636 70 627 77 q 664 68 644 65 q 718 86 684 71 l 725 55 m 600 912 q 571 857 588 884 q 534 808 554 830 q 489 773 513 787 q 438 760 464 760 q 393 771 414 760 q 351 798 371 783 q 310 825 330 813 q 271 837 290 837 q 221 814 244 837 q 174 755 199 792 l 138 768 q 167 823 150 796 q 204 873 183 851 q 249 908 225 894 q 300 922 274 922 q 349 910 326 922 q 392 883 372 898 q 431 856 413 868 q 465 845 449 845 q 516 866 491 845 q 564 928 541 888 l 600 912 m 340 954 q 318 961 328 956 q 301 973 309 967 l 460 1254 q 481 1251 468 1253 q 509 1248 495 1250 q 537 1243 524 1246 q 558 1238 551 1240 l 574 1212 l 340 954 "},"":{"x_min":48,"x_max":502,"ha":556,"o":"m 101 0 l 101 29 q 217 70 217 49 l 217 180 q 230 247 217 219 q 264 296 244 274 q 308 335 284 318 q 352 369 332 352 q 386 407 372 387 q 400 454 400 427 q 388 510 400 485 q 357 552 376 535 q 313 578 338 569 q 260 587 288 587 q 217 578 236 587 q 185 554 198 569 q 165 519 172 539 q 159 479 159 500 q 161 459 159 469 q 167 439 163 449 q 121 422 145 428 q 67 414 98 417 l 49 434 q 48 445 48 439 l 48 456 q 71 535 48 499 q 131 596 94 570 q 217 636 169 622 q 313 651 264 651 q 390 638 355 651 q 450 602 425 625 q 488 549 474 580 q 502 484 502 519 q 488 422 502 448 q 454 376 474 396 q 410 340 434 356 q 366 304 386 323 q 332 263 346 286 q 319 206 319 240 l 319 70 q 348 49 319 60 q 434 29 378 38 l 434 0 l 101 0 "},"Ė":{"x_min":33.65625,"x_max":647.265625,"ha":689,"o":"m 647 165 q 633 63 641 107 q 619 0 624 19 l 33 0 l 33 29 q 105 49 79 38 q 132 70 132 61 l 132 783 q 107 804 132 791 q 33 825 82 816 l 33 855 l 580 855 l 603 838 q 599 799 601 820 q 592 757 596 778 q 583 717 588 736 q 575 685 579 698 l 544 685 q 539 737 543 716 q 527 771 534 758 q 511 788 521 783 q 489 794 501 794 l 241 794 l 241 499 l 515 499 l 533 480 q 520 459 527 470 q 503 438 512 448 q 486 418 495 427 q 470 404 478 410 q 448 421 460 414 q 421 433 437 428 q 385 439 406 437 q 336 442 365 442 l 241 442 l 241 104 q 245 86 241 94 q 265 72 250 78 q 307 64 280 67 q 379 61 334 61 l 466 61 q 520 64 498 61 q 559 79 542 67 q 589 114 576 91 q 618 177 603 137 l 647 165 m 408 1045 q 402 1009 408 1026 q 385 980 396 992 q 361 960 375 967 q 329 953 346 953 q 286 969 299 953 q 272 1018 272 986 q 278 1053 272 1036 q 295 1083 284 1070 q 320 1102 306 1095 q 350 1110 334 1110 q 408 1045 408 1110 "},"ấ":{"x_min":54,"x_max":628.765625,"ha":638,"o":"m 238 68 q 325 88 279 68 q 423 154 371 109 l 423 329 q 328 311 365 320 q 267 293 291 302 q 229 274 243 284 q 204 252 215 264 q 175 210 186 234 q 165 155 165 187 q 173 111 165 128 q 192 84 181 94 q 217 71 204 74 q 238 68 229 68 m 628 55 q 533 -2 571 15 q 476 -20 495 -20 q 439 11 454 -20 q 423 97 424 42 q 361 44 392 66 q 302 7 331 22 q 246 -13 272 -6 q 198 -20 220 -20 q 148 -11 174 -20 q 101 13 122 -3 q 67 59 81 31 q 54 126 54 87 q 72 212 54 177 q 115 272 90 246 q 152 302 131 288 q 207 330 172 317 q 293 356 241 344 q 423 380 344 368 l 423 475 q 417 518 423 498 q 399 553 412 538 q 364 575 386 568 q 309 583 342 583 q 266 575 287 582 q 229 556 245 568 q 205 527 214 544 q 198 490 196 511 q 184 476 199 484 q 150 462 170 469 q 110 453 130 456 q 83 452 91 450 l 73 478 q 121 543 89 512 q 194 598 153 574 q 280 636 235 622 q 369 651 326 651 q 484 612 444 651 q 525 503 525 573 l 525 120 q 532 80 525 92 q 552 68 539 68 q 576 71 561 68 q 618 86 591 74 l 628 55 m 539 740 q 526 721 531 727 q 510 710 522 715 l 324 891 l 141 710 q 131 715 135 712 q 125 721 128 718 q 118 729 122 724 q 110 740 115 734 l 289 998 l 362 998 l 539 740 m 296 1015 q 274 1022 284 1017 q 257 1034 265 1028 l 416 1315 q 437 1312 424 1314 q 465 1309 451 1311 q 493 1304 480 1307 q 514 1299 507 1301 l 530 1273 l 296 1015 "},"ŋ":{"x_min":37.046875,"x_max":651,"ha":760,"o":"m 651 59 q 638 -73 651 -19 q 605 -165 625 -128 q 558 -228 584 -203 q 504 -275 532 -254 q 463 -303 486 -291 q 417 -322 440 -314 q 373 -334 394 -330 q 340 -339 353 -339 q 290 -332 317 -339 q 240 -315 263 -325 q 201 -293 216 -305 q 185 -272 185 -282 q 195 -255 185 -266 q 219 -233 205 -245 q 248 -211 233 -222 q 272 -196 263 -201 q 313 -226 292 -215 q 353 -245 334 -238 q 388 -255 372 -252 q 415 -258 405 -258 q 457 -245 434 -258 q 501 -201 481 -232 q 535 -114 521 -169 q 549 23 549 -60 l 549 429 q 544 496 549 470 q 529 536 539 521 q 502 556 519 551 q 462 562 485 562 q 415 552 441 562 q 359 519 388 542 q 297 461 329 497 q 233 372 265 425 l 233 70 q 258 49 233 60 q 328 29 284 38 l 328 0 l 37 0 l 37 29 q 106 49 81 40 q 132 70 132 58 l 132 481 q 129 523 132 508 q 118 548 127 539 q 90 560 109 556 q 37 569 71 564 l 37 597 q 122 618 83 604 q 200 652 161 632 l 224 628 l 230 458 q 296 539 260 504 q 368 599 332 575 q 439 637 405 624 q 501 651 474 651 q 557 642 530 651 q 605 615 584 633 q 638 568 625 596 q 651 502 651 540 l 651 59 "},"Ỵ":{"x_min":-0.390625,"x_max":797.6875,"ha":825,"o":"m 243 0 l 243 29 q 330 55 305 42 q 355 78 355 68 l 355 364 q 298 478 329 419 q 232 594 266 538 q 168 699 199 651 q 113 780 137 748 q 99 794 107 788 q 79 806 91 801 q 49 814 67 811 q 2 818 30 818 l 0 847 q 79 856 39 852 q 148 861 119 861 q 201 834 179 861 q 255 757 226 802 q 313 663 284 713 q 370 562 342 614 q 422 461 398 509 l 604 780 q 597 808 614 797 q 529 825 581 818 l 529 855 l 797 855 l 797 825 q 726 807 750 816 q 691 780 701 797 l 464 366 l 464 77 q 469 68 464 73 q 488 55 475 62 q 523 42 501 48 q 576 29 544 35 l 576 0 l 243 0 m 477 -189 q 471 -225 477 -208 q 455 -254 465 -242 q 430 -274 444 -267 q 399 -282 416 -282 q 355 -265 368 -282 q 341 -217 341 -248 q 348 -181 341 -198 q 365 -151 354 -164 q 389 -132 375 -139 q 420 -125 403 -125 q 477 -189 477 -125 "},"":{"x_min":29.59375,"x_max":640.484375,"ha":661,"o":"m 640 165 q 626 63 635 106 q 612 0 618 19 l 33 0 l 33 29 q 105 49 79 38 q 132 70 132 60 l 132 296 l 44 296 l 29 312 q 36 334 32 323 q 44 357 40 346 l 132 357 l 132 432 l 44 432 l 29 448 q 36 470 32 459 q 44 493 40 482 l 132 493 l 132 783 q 107 804 132 791 q 33 825 82 816 l 33 855 l 339 855 l 339 825 q 267 804 293 816 q 241 783 241 793 l 241 493 l 403 493 l 420 477 l 403 432 l 241 432 l 241 357 l 403 357 l 420 341 l 403 296 l 241 296 l 241 111 q 246 89 241 98 q 266 74 252 80 q 305 64 281 67 q 367 61 329 61 l 464 61 q 516 64 495 61 q 554 79 538 67 q 583 114 570 91 q 611 177 597 137 l 640 165 "},"ṇ":{"x_min":37.046875,"x_max":745.953125,"ha":766,"o":"m 454 0 l 454 29 q 525 51 502 42 q 549 70 549 61 l 549 429 q 544 496 549 470 q 529 537 539 522 q 502 557 519 552 q 462 563 486 563 q 415 552 441 563 q 360 520 389 542 q 298 461 330 497 q 234 372 266 425 l 234 70 q 259 49 234 60 q 328 29 284 38 l 328 0 l 37 0 l 37 29 q 106 49 81 40 q 132 70 132 59 l 132 482 q 129 524 132 508 q 118 548 127 540 q 90 561 109 557 q 37 570 71 565 l 37 597 q 122 618 83 604 q 199 651 161 632 l 223 627 l 231 458 q 296 539 260 503 q 369 599 332 575 q 440 637 406 624 q 501 651 474 651 q 557 642 530 651 q 605 615 584 633 q 638 568 625 596 q 651 502 651 540 l 651 70 q 671 51 651 61 q 745 29 692 42 l 745 0 l 454 0 m 459 -189 q 453 -225 459 -208 q 436 -254 447 -242 q 412 -274 426 -267 q 380 -282 397 -282 q 336 -265 350 -282 q 323 -217 323 -248 q 329 -181 323 -198 q 346 -151 335 -164 q 371 -132 357 -139 q 401 -125 385 -125 q 459 -189 459 -125 "},"Ǟ":{"x_min":0,"x_max":812.515625,"ha":827,"o":"m 514 363 l 394 711 l 278 363 l 514 363 m 258 302 l 183 75 q 201 44 176 54 q 282 29 226 35 l 282 0 l 0 0 l 0 29 q 73 46 46 37 q 107 75 100 54 l 359 838 q 398 869 375 855 q 438 893 421 883 l 723 75 q 733 58 727 65 q 749 45 739 50 q 775 35 759 40 q 812 29 790 31 l 812 0 l 526 0 l 526 29 q 599 42 579 32 q 612 75 619 52 l 535 302 l 258 302 m 609 1045 q 603 1009 609 1026 q 586 980 597 992 q 561 960 576 967 q 530 953 547 953 q 486 969 500 953 q 473 1018 473 986 q 479 1053 473 1036 q 496 1083 485 1070 q 521 1102 507 1095 q 551 1110 535 1110 q 609 1045 609 1110 m 338 1045 q 332 1009 338 1026 q 315 980 326 992 q 290 960 305 967 q 259 953 276 953 q 215 969 229 953 q 202 1018 202 986 q 208 1053 202 1036 q 225 1083 214 1070 q 250 1102 236 1095 q 280 1110 264 1110 q 338 1045 338 1110 m 642 1275 q 637 1258 640 1268 q 630 1238 634 1248 q 622 1219 626 1229 q 615 1204 618 1210 l 198 1204 l 183 1220 q 188 1237 185 1228 q 196 1257 191 1247 q 204 1276 200 1267 q 211 1292 208 1285 l 627 1292 l 642 1275 "},"ü":{"x_min":27.515625,"x_max":725.4375,"ha":736,"o":"m 725 55 q 677 25 700 39 q 634 1 654 11 q 599 -14 614 -8 q 576 -20 584 -20 q 538 11 553 -20 q 519 112 523 43 q 441 44 476 70 q 377 4 406 18 q 323 -14 347 -9 q 276 -20 298 -20 q 215 -11 244 -20 q 163 21 186 -2 q 128 85 141 44 q 115 189 115 125 l 115 482 q 112 532 115 514 q 102 559 110 550 q 76 572 93 568 q 27 579 58 575 l 27 606 q 73 613 51 608 q 114 622 94 617 q 155 635 134 627 q 197 651 175 642 l 217 624 l 217 226 q 224 147 217 179 q 244 96 231 115 q 277 69 257 77 q 320 61 296 61 q 365 67 342 61 q 412 87 388 73 q 462 123 436 101 q 519 177 489 145 l 519 482 q 515 530 519 512 q 502 559 512 549 q 473 573 492 569 q 424 579 455 577 l 424 606 q 517 625 472 612 q 600 651 562 638 l 621 624 l 621 172 q 624 104 621 130 q 636 70 627 77 q 664 68 644 65 q 718 86 684 71 l 725 55 m 572 854 q 566 818 572 835 q 550 789 560 801 q 525 769 539 776 q 494 762 511 762 q 450 778 463 762 q 436 826 436 795 q 443 862 436 845 q 460 892 449 879 q 484 911 470 904 q 515 919 498 919 q 572 854 572 919 m 301 854 q 295 818 301 835 q 279 789 289 801 q 254 769 268 776 q 223 762 240 762 q 179 778 192 762 q 165 826 165 795 q 172 862 165 845 q 189 892 178 879 q 213 911 199 904 q 244 919 227 919 q 301 854 301 919 "},"Ÿ":{"x_min":-0.390625,"x_max":797.6875,"ha":825,"o":"m 243 0 l 243 29 q 330 55 305 42 q 355 78 355 68 l 355 364 q 298 478 329 419 q 232 594 266 538 q 168 699 199 651 q 113 780 137 748 q 99 794 107 788 q 79 806 91 801 q 49 814 67 811 q 2 818 30 818 l 0 847 q 79 856 39 852 q 148 861 119 861 q 201 834 179 861 q 255 757 226 802 q 313 663 284 713 q 370 562 342 614 q 422 461 398 509 l 604 780 q 597 808 614 797 q 529 825 581 818 l 529 855 l 797 855 l 797 825 q 726 807 750 816 q 691 780 701 797 l 464 366 l 464 77 q 469 68 464 73 q 488 55 475 62 q 523 42 501 48 q 576 29 544 35 l 576 0 l 243 0 m 612 1045 q 606 1009 612 1026 q 590 980 600 992 q 565 960 579 967 q 534 953 551 953 q 490 969 503 953 q 476 1018 476 986 q 483 1053 476 1036 q 500 1083 489 1070 q 524 1102 510 1095 q 555 1110 538 1110 q 612 1045 612 1110 m 341 1045 q 335 1009 341 1026 q 319 980 329 992 q 294 960 308 967 q 263 953 280 953 q 219 969 232 953 q 205 1018 205 986 q 212 1053 205 1036 q 229 1083 218 1070 q 253 1102 239 1095 q 284 1110 267 1110 q 341 1045 341 1110 "},"€":{"x_min":16.28125,"x_max":627.359375,"ha":652,"o":"m 423 317 l 201 317 q 229 197 209 246 q 276 118 248 148 q 337 74 303 88 q 406 61 370 61 q 447 66 427 61 q 490 85 467 72 q 540 120 513 98 q 602 173 567 142 q 609 167 605 172 q 616 158 613 163 q 622 149 619 153 q 627 143 625 145 q 553 65 586 96 q 489 15 520 34 q 426 -11 458 -3 q 358 -20 395 -20 q 261 0 307 -20 q 181 61 216 20 q 122 166 145 102 q 93 317 99 230 l 31 317 l 16 333 q 23 355 19 344 q 31 378 27 367 l 91 378 l 91 380 q 95 466 91 425 l 51 466 l 36 482 q 43 504 40 493 q 51 527 47 516 l 103 527 q 147 661 118 603 q 218 759 176 719 q 313 818 260 798 q 429 838 366 838 q 489 832 463 838 q 538 817 516 827 q 578 796 560 808 q 614 769 596 784 q 612 756 618 766 q 595 733 606 746 q 573 707 585 720 q 553 686 561 694 l 529 690 q 497 719 512 706 q 464 742 482 732 q 424 757 446 752 q 372 763 402 763 q 323 752 349 763 q 274 716 297 742 q 231 643 250 689 q 203 527 212 598 l 444 527 l 461 511 l 444 466 l 198 466 q 197 436 197 451 q 196 405 196 421 l 196 378 l 423 378 l 440 362 l 423 317 "},"ß":{"x_min":37.046875,"x_max":724,"ha":785,"o":"m 724 192 q 711 114 724 152 q 670 46 698 76 q 599 -1 642 16 q 494 -20 555 -20 q 448 -14 475 -20 q 393 -2 420 -9 q 344 14 366 5 q 318 32 323 24 q 315 47 316 35 q 314 75 314 59 q 315 110 314 92 q 317 145 315 128 q 321 175 319 162 q 328 192 324 187 l 354 183 q 376 121 359 147 q 416 79 393 95 q 468 55 440 62 q 521 48 495 48 q 566 55 545 48 q 602 75 587 62 q 627 106 618 88 q 636 147 636 125 q 622 208 636 182 q 587 254 609 234 q 538 291 566 274 q 482 322 511 307 q 425 353 452 337 q 376 389 397 369 q 341 434 354 409 q 328 494 328 459 q 344 568 328 539 q 386 616 361 597 q 440 647 411 634 q 494 674 469 660 q 536 708 519 688 q 553 760 553 728 q 543 831 553 795 q 513 897 534 867 q 461 946 493 927 q 383 966 428 966 q 323 954 350 966 q 275 911 295 942 q 244 826 255 879 q 234 688 234 772 l 234 0 l 37 0 l 37 29 q 107 49 83 37 q 132 69 132 61 l 132 651 q 143 787 132 732 q 172 880 154 842 q 215 942 191 917 q 266 988 239 966 q 348 1034 303 1018 q 442 1051 394 1051 q 541 1026 501 1051 q 608 966 582 1002 q 644 886 633 929 q 656 806 656 844 q 638 716 656 751 q 595 658 621 680 q 539 621 569 636 q 483 594 509 607 q 440 565 457 581 q 423 522 423 549 q 435 483 423 499 q 470 452 448 466 q 518 425 491 438 q 573 396 545 411 q 628 364 601 381 q 676 321 655 346 q 711 266 698 297 q 724 192 724 234 "},"ǩ":{"x_min":37.046875,"x_max":694.515625,"ha":695,"o":"m 37 0 l 37 29 q 106 49 81 40 q 132 70 132 58 l 132 878 q 128 926 132 909 q 114 952 124 943 q 84 963 103 960 q 37 969 66 966 l 37 996 q 129 1018 83 1006 q 208 1051 174 1031 l 234 1027 l 234 359 l 442 542 q 470 573 465 561 q 468 591 474 585 q 446 599 461 597 q 413 601 431 601 l 413 631 l 670 631 l 670 601 q 615 590 640 598 q 562 559 590 582 l 330 374 l 586 75 q 605 57 595 64 q 628 45 615 50 q 655 40 640 41 q 690 41 670 39 l 694 12 q 655 3 674 7 q 619 -1 636 0 q 589 -5 602 -4 q 569 -7 576 -7 q 523 1 541 -7 q 491 28 506 9 l 234 353 l 234 70 q 236 61 234 65 q 246 52 238 56 q 268 42 253 48 q 308 29 283 37 l 308 0 l 37 0 m 402 1112 l 329 1112 l 150 1320 q 158 1332 155 1327 q 165 1340 162 1337 q 171 1346 168 1343 q 181 1352 175 1349 l 367 1209 l 550 1352 q 567 1340 562 1346 q 579 1320 571 1334 l 402 1112 "},"Ể":{"x_min":33.65625,"x_max":647.265625,"ha":689,"o":"m 647 165 q 633 63 641 107 q 619 0 624 19 l 33 0 l 33 29 q 105 49 79 38 q 132 70 132 61 l 132 783 q 107 804 132 791 q 33 825 82 816 l 33 855 l 580 855 l 603 838 q 599 799 601 820 q 592 757 596 778 q 583 717 588 736 q 575 685 579 698 l 544 685 q 539 737 543 716 q 527 771 534 758 q 511 788 521 783 q 489 794 501 794 l 241 794 l 241 499 l 515 499 l 533 480 q 520 459 527 470 q 503 438 512 448 q 486 418 495 427 q 470 404 478 410 q 448 421 460 414 q 421 433 437 428 q 385 439 406 437 q 336 442 365 442 l 241 442 l 241 104 q 245 86 241 94 q 265 72 250 78 q 307 64 280 67 q 379 61 334 61 l 466 61 q 520 64 498 61 q 559 79 542 67 q 589 114 576 91 q 618 177 603 137 l 647 165 m 554 957 q 541 938 546 944 q 525 927 537 932 l 339 1068 l 156 927 q 146 932 150 929 q 140 938 143 935 q 133 946 137 941 q 125 957 130 951 l 304 1167 l 377 1167 l 554 957 m 454 1392 q 442 1359 454 1374 q 412 1331 429 1344 q 379 1306 395 1318 q 356 1281 363 1294 q 355 1255 349 1269 q 390 1225 361 1242 q 369 1217 380 1218 q 348 1214 358 1215 q 303 1241 318 1229 q 286 1265 289 1254 q 289 1285 282 1275 q 307 1304 295 1294 q 333 1321 318 1313 q 359 1340 347 1330 q 380 1360 371 1349 q 388 1382 388 1370 q 375 1421 388 1408 q 343 1434 363 1434 q 324 1430 333 1434 q 310 1420 316 1426 q 300 1407 304 1414 q 297 1392 297 1399 q 299 1385 297 1388 q 302 1378 300 1381 q 289 1373 297 1376 q 270 1369 280 1371 q 251 1365 260 1367 q 235 1363 241 1363 l 227 1370 l 227 1379 q 240 1411 227 1395 q 273 1439 253 1426 q 317 1459 293 1451 q 366 1467 342 1467 q 431 1446 408 1467 q 454 1392 454 1426 "}}}
